<svg width="170" height="37" viewBox="0 0 170 37" fill="none" xmlns="http://www.w3.org/2000/svg">
<path d="M34.3813 0.99995H5.9049L35.7222 1.21167L34.3813 0.99995ZM5.9049 0.99995L35.7222 1.21167H6.99879L5.9049 0.99995Z" fill="#FEFFFF"/>
<path d="M35.7221 1.21175H6.99876L36.3573 1.38818L35.7221 1.21175ZM6.99876 1.21175L36.3573 1.38818H7.91622L6.99876 1.21175Z" fill="#FEFFFF"/>
<path d="M36.3573 1.38836H7.91621L36.8866 1.67065L36.3573 1.38836ZM7.91621 1.38836L36.8866 1.67065H9.08067L7.91621 1.38836Z" fill="#FEFFFF"/>
<path d="M36.9571 1.67057H9.22179L37.5217 2.02344L36.9571 1.67057ZM9.22179 1.67057L37.5217 2.02344H10.6685L9.22179 1.67057Z" fill="#FEFFFF"/>
<path d="M37.5218 2.02331H10.6687L37.5571 2.05859L37.5218 2.02331ZM10.6687 2.02331L37.5571 2.05859H10.7392L10.6687 2.02331Z" fill="#FEFFFF"/>
<path d="M37.557 2.05849H10.7391L38.051 2.48193L37.557 2.05849ZM10.7391 2.05849L38.051 2.48193H12.2212L10.7391 2.05849Z" fill="#FEFFFF"/>
<path d="M38.0863 2.48206H12.2564L38.545 2.97607L38.0863 2.48206ZM12.2564 2.48206L38.545 2.97607H13.7738L12.2564 2.48206Z" fill="#FEFFFF"/>
<path d="M38.5451 2.97601H13.7738L38.7921 3.2583L38.5451 2.97601ZM13.7738 2.97601L38.7921 3.2583H14.5501L13.7738 2.97601Z" fill="#FEFFFF"/>
<path d="M38.7921 3.25836H14.5501L38.9685 3.50537L38.7921 3.25836ZM14.5501 3.25836L38.9685 3.50537H15.1147L14.5501 3.25836Z" fill="#FEFFFF"/>
<path d="M38.9685 3.50522H15.1147L39.0038 3.61108L38.9685 3.50522ZM15.1147 3.50522L39.0038 3.61108H15.2911L15.1147 3.50522Z" fill="#FEFFFF"/>
<path d="M39.0037 3.611H15.2911L39.2507 3.96387L39.0037 3.611ZM15.2911 3.611L39.2507 3.96387H15.9968L15.2911 3.611Z" fill="#FEFFFF"/>
<path d="M39.2508 3.96432H15.9969L39.3214 4.10547L39.2508 3.96432ZM15.9969 3.96432L39.3214 4.10547H16.1733L15.9969 3.96432Z" fill="#FEFFFF"/>
<path d="M39.3214 4.10527H16.1733L39.4625 4.42285L39.3214 4.10527ZM16.1733 4.10527L39.4625 4.42285H16.6673L16.1733 4.10527Z" fill="#FEFFFF"/>
<path d="M39.4625 4.42278H16.6673L39.5684 4.70508L39.4625 4.42278ZM16.6673 4.42278L39.5684 4.70508H17.0554L16.6673 4.42278Z" fill="#FEFFFF"/>
<path d="M39.5683 4.70529H17.0554L39.78 5.37573L39.5683 4.70529ZM17.0554 4.70529L39.78 5.37573H17.8317L17.0554 4.70529Z" fill="#FEFFFF"/>
<path d="M39.78 5.37572H17.8317L39.8153 5.44629L39.78 5.37572ZM17.8317 5.37572L39.8153 5.44629H17.9375L17.8317 5.37572Z" fill="#FEFFFF"/>
<path d="M39.8153 5.44614H30.3585L39.8153 5.552V5.44614ZM30.3585 5.44614L39.8153 5.552H31.2054L30.3585 5.44614Z" fill="#FEFFFF"/>
<path d="M39.8153 5.55199H31.2053L39.8506 5.62256L39.8153 5.55199ZM31.2053 5.55199L39.8506 5.62256H31.5935L31.2053 5.55199Z" fill="#FEFFFF"/>
<path d="M39.8506 5.62264H31.5935L39.8506 5.79907V5.62264ZM31.5935 5.62264L39.8506 5.79907H31.9817L31.5935 5.62264Z" fill="#FEFFFF"/>
<path d="M39.8507 5.79891H31.9818L39.9213 5.97534L39.8507 5.79891ZM31.9818 5.79891L39.9213 5.97534H32.3699L31.9818 5.79891Z" fill="#FEFFFF"/>
<path d="M39.9213 5.97533H32.3699L39.9213 6.0459V5.97533ZM32.3699 5.97533L39.9213 6.0459H32.4052L32.3699 5.97533Z" fill="#FEFFFF"/>
<path d="M39.9213 6.04585H32.4052L39.9565 6.25757L39.9213 6.04585ZM32.4052 6.04585L39.9565 6.25757H32.7228L32.4052 6.04585Z" fill="#FEFFFF"/>
<path d="M39.9565 6.25786H32.7228L39.9918 6.57544L39.9565 6.25786ZM32.7228 6.25786L39.9918 6.57544H33.0051L32.7228 6.25786Z" fill="#FEFFFF"/>
<path d="M39.9918 6.57541H33.0051L39.9918 6.71655V6.57541ZM33.0051 6.57541L39.9918 6.71655H33.1109L33.0051 6.57541Z" fill="#FEFFFF"/>
<path d="M39.9918 6.7165H33.1109L39.9918 6.92822V6.7165ZM33.1109 6.7165L39.9918 6.92822H33.2521L33.1109 6.7165Z" fill="#FEFFFF"/>
<path d="M39.9918 6.92801H33.2521L39.9918 7.31616V6.92801ZM33.2521 6.92801L39.9918 7.31616H33.4285L33.2521 6.92801Z" fill="#FEFFFF"/>
<path d="M39.9918 7.31615H33.4285L39.9918 7.38672V7.31615ZM33.4285 7.31615L39.9918 7.38672H33.4638L33.4285 7.31615Z" fill="#FEFFFF"/>
<path d="M39.9918 7.38677H33.4638L39.9918 7.70435V7.38677ZM33.4638 7.38677L39.9918 7.70435H33.5696L33.4638 7.38677Z" fill="#FEFFFF"/>
<path d="M39.9918 7.70451H33.5696L39.9565 8.05737L39.9918 7.70451ZM33.5696 7.70451L39.9565 8.05737H33.6049L33.5696 7.70451Z" fill="#FEFFFF"/>
<path d="M39.9565 8.05736H33.6049L39.9565 8.12793V8.05736ZM33.6049 8.05736L39.9565 8.12793H33.6402L33.6049 8.05736Z" fill="#FEFFFF"/>
<path d="M39.9565 8.12783H33.6402L39.9213 8.55127L39.9565 8.12783ZM33.6402 8.12783L39.9213 8.55127H33.6402V8.12783Z" fill="#FEFFFF"/>
<path d="M39.9213 8.55135H33.6402L39.886 8.72778L39.9213 8.55135ZM33.6402 8.55135L39.886 8.72778H33.6402V8.55135Z" fill="#FEFFFF"/>
<path d="M39.8859 8.72775H33.6401L39.7447 9.39819L39.8859 8.72775ZM33.6401 8.72775L39.7447 9.39819H33.5695L33.6401 8.72775Z" fill="#FEFFFF"/>
<path d="M39.7448 9.39831H33.5696L39.7448 9.43359V9.39831ZM33.5696 9.39831L39.7448 9.43359H33.5696V9.39831Z" fill="#FEFFFF"/>
<path d="M39.7448 9.43344H33.5696L39.6036 10.0686L39.7448 9.43344ZM33.5696 9.43344L39.6036 10.0686H33.4637L33.5696 9.43344Z" fill="#FEFFFF"/>
<path d="M39.6036 10.0688H33.4638L39.5331 10.2805L39.6036 10.0688ZM33.4638 10.0688L39.5331 10.2805H33.4285L33.4638 10.0688Z" fill="#FEFFFF"/>
<path d="M39.5331 10.2804H33.4285L39.3919 10.7039L39.5331 10.2804ZM33.4285 10.2804L39.3919 10.7039H33.2873L33.4285 10.2804Z" fill="#FEFFFF"/>
<path d="M39.392 10.7039H33.2874L39.2508 11.092L39.392 10.7039ZM33.2874 10.7039L39.2508 11.092H33.1815L33.2874 10.7039Z" fill="#FEFFFF"/>
<path d="M39.2507 11.0919H33.1814L39.1802 11.3389L39.2507 11.0919ZM33.1814 11.0919L39.1802 11.3389H33.1108L33.1814 11.0919Z" fill="#FEFFFF"/>
<path d="M39.1802 11.3391H33.1109L38.9332 11.8684L39.1802 11.3391ZM33.1109 11.3391L38.9332 11.8684H32.8991L33.1109 11.3391Z" fill="#FEFFFF"/>
<path d="M38.9332 11.8682H32.8992L38.6156 12.574L38.9332 11.8682ZM32.8992 11.8682L38.6156 12.574H32.5463L32.8992 11.8682Z" fill="#FEFFFF"/>
<path d="M38.6156 12.574H32.5463L38.5803 12.6445L38.6156 12.574ZM32.5463 12.574L38.5803 12.6445H32.511L32.5463 12.574Z" fill="#FEFFFF"/>
<path d="M38.5803 12.6446H32.511L38.1569 13.3503L38.5803 12.6446ZM32.511 12.6446L38.1569 13.3503H32.017L32.511 12.6446Z" fill="#FEFFFF"/>
<path d="M38.157 13.3501H32.0171L37.9805 13.6677L38.157 13.3501ZM32.0171 13.3501L37.9805 13.6677H31.7701L32.0171 13.3501Z" fill="#FEFFFF"/>
<path d="M37.9805 13.6678H31.77L37.9452 13.7737L37.9805 13.6678ZM31.77 13.6678L37.9452 13.7737H31.6641L31.77 13.6678Z" fill="#FEFFFF"/>
<path d="M37.9452 13.7739H31.6642L37.7688 13.9856L37.9452 13.7739ZM31.6642 13.7739L37.7688 13.9856H31.4524L31.6642 13.7739Z" fill="#FEFFFF"/>
<path d="M37.7687 13.9857H31.4524L37.5922 14.2327L37.7687 13.9857ZM31.4524 13.9857L37.5922 14.2327H31.1348L31.4524 13.9857Z" fill="#FEFFFF"/>
<path d="M37.5923 14.2325H31.1348L37.4159 14.4795L37.5923 14.2325ZM31.1348 14.2325L37.4159 14.4795H30.782L31.1348 14.2325Z" fill="#FEFFFF"/>
<path d="M37.4158 14.4795H30.7819L37.2041 14.7971L37.4158 14.4795ZM30.7819 14.4795L37.2041 14.7971H30.0056L30.7819 14.4795Z" fill="#FEFFFF"/>
<path d="M37.2041 14.7971H30.0056L37.1335 14.8677L37.2041 14.7971ZM30.0056 14.7971L37.1335 14.8677H29.7939L30.0056 14.7971Z" fill="#FEFFFF"/>
<path d="M37.1335 14.8676H29.7939L36.9924 15.0793L37.1335 14.8676ZM29.7939 14.8676L36.9924 15.0793H29.194L29.7939 14.8676Z" fill="#FEFFFF"/>
<path d="M23.6893 7.63385H17.7612L20.9723 15.0793L23.6893 7.63385ZM17.7612 7.63385L20.9723 15.0793H15.0088L17.7612 7.63385Z" fill="#FEFFFF"/>
<path d="M36.9924 15.0794H15.0088L36.7101 15.397L36.9924 15.0794ZM15.0088 15.0794L36.7101 15.397H14.903L15.0088 15.0794Z" fill="#FEFFFF"/>
<path d="M36.7101 15.3969H14.9029L36.2514 15.8909L36.7101 15.3969ZM14.9029 15.3969L36.2514 15.8909H14.7265L14.9029 15.3969Z" fill="#FEFFFF"/>
<path d="M36.2515 15.891H14.7266L35.7222 16.3145L36.2515 15.891ZM14.7266 15.891L35.7222 16.3145H14.5501L14.7266 15.891Z" fill="#FEFFFF"/>
<path d="M35.7222 16.3145H14.5501L35.1576 16.7026L35.7222 16.3145ZM14.5501 16.3145L35.1576 16.7026H14.409L14.5501 16.3145Z" fill="#FEFFFF"/>
<path d="M35.1576 16.7025H14.409L33.9931 17.4082L35.1576 16.7025ZM14.409 16.7025L33.9931 17.4082H14.162L14.409 16.7025Z" fill="#FEFFFF"/>
<path d="M33.993 17.4083H14.1618L34.3458 18.114L33.993 17.4083ZM14.1618 17.4083L34.3458 18.114H13.8795L14.1618 17.4083Z" fill="#FEFFFF"/>
<path d="M34.346 18.114H13.8797L34.593 18.6433L34.346 18.114ZM13.8797 18.114L34.593 18.6433H13.7033L13.8797 18.114Z" fill="#FEFFFF"/>
<path d="M34.593 18.6435H27.0769L34.6636 18.8552L34.593 18.6435ZM27.0769 18.6435L34.6636 18.8552H27.3239L27.0769 18.6435Z" fill="#FEFFFF"/>
<path d="M34.6635 18.8551H27.3239L34.8047 19.3491L34.6635 18.8551ZM27.3239 18.8551L34.8047 19.3491H28.0296L27.3239 18.8551Z" fill="#FEFFFF"/>
<path d="M34.8047 19.3489H28.0296L34.8752 19.5959L34.8047 19.3489ZM28.0296 19.3489L34.8752 19.5959H28.2766L28.0296 19.3489Z" fill="#FEFFFF"/>
<path d="M34.8752 19.5959H28.2766L34.8752 19.7371V19.5959ZM28.2766 19.5959L34.8752 19.7371H28.4531L28.2766 19.5959Z" fill="#FEFFFF"/>
<path d="M34.8752 19.7373H28.453L34.9811 20.196L34.8752 19.7373ZM28.453 19.7373L34.9811 20.196H28.8059L28.453 19.7373Z" fill="#FEFFFF"/>
<path d="M34.9811 20.1961H28.8059L34.9811 20.3726V20.1961ZM28.8059 20.1961L34.9811 20.3726H28.9471L28.8059 20.1961Z" fill="#FEFFFF"/>
<path d="M34.9812 20.3724H28.9472L35.0165 20.6899L34.9812 20.3724ZM28.9472 20.3724L35.0165 20.6899H29.1236L28.9472 20.3724Z" fill="#FEFFFF"/>
<path d="M18.9609 20.5134H5.5167L18.7492 21.1133L18.9609 20.5134ZM5.5167 20.5134L18.7492 21.1133H7.21047L5.5167 20.5134Z" fill="#FEFFFF"/>
<path d="M35.0165 20.6899H29.1236L35.0518 21.2192L35.0165 20.6899ZM29.1236 20.6899L35.0518 21.2192H29.3706L29.1236 20.6899Z" fill="#FEFFFF"/>
<path d="M35.0517 21.2193H29.3706L35.087 21.7839L35.0517 21.2193ZM29.3706 21.2193L35.087 21.7839H29.4764L29.3706 21.2193Z" fill="#FEFFFF"/>
<path d="M18.7493 21.1134H7.21051L18.5023 21.8191L18.7493 21.1134ZM7.21051 21.1134L18.5023 21.8191H8.90428L7.21051 21.1134Z" fill="#FEFFFF"/>
<path d="M35.087 21.7838H29.4764L35.1223 21.9602L35.087 21.7838ZM29.4764 21.7838L35.1223 21.9602H29.5117L29.4764 21.7838Z" fill="#FEFFFF"/>
<path d="M18.5022 21.8191H8.90421L18.3258 22.2073L18.5022 21.8191ZM8.90421 21.8191L18.3258 22.2073H9.71581L8.90421 21.8191Z" fill="#FEFFFF"/>
<path d="M35.1223 21.9602H29.5117L35.1223 22.3484V21.9602ZM29.5117 21.9602L35.1223 22.3484H29.5117V21.9602Z" fill="#FEFFFF"/>
<path d="M18.3257 22.2074H9.71573L18.1493 22.7014L18.3257 22.2074ZM9.71573 22.2074L18.1493 22.7014H10.492L9.71573 22.2074Z" fill="#FEFFFF"/>
<path d="M35.1223 22.3485H29.5117L35.1223 22.9131V22.3485ZM29.5117 22.3485L35.1223 22.9131H29.4764L29.5117 22.3485Z" fill="#FEFFFF"/>
<path d="M18.1493 22.7013H10.4921L18.0434 22.9836L18.1493 22.7013ZM10.4921 22.7013L18.0434 22.9836H10.8449L10.4921 22.7013Z" fill="#FEFFFF"/>
<path d="M18.0435 22.9834H10.845L17.9376 23.301L18.0435 22.9834ZM10.845 22.9834L17.9376 23.301H11.1626L10.845 22.9834Z" fill="#FEFFFF"/>
<path d="M35.1223 22.9131H29.4764L35.087 23.5129L35.1223 22.9131ZM29.4764 22.9131L35.087 23.5129H29.4059L29.4764 22.9131Z" fill="#FEFFFF"/>
<path d="M35.087 23.5128H29.4059L35.087 23.5481V23.5128ZM29.4059 23.5128L35.087 23.5481H29.4059V23.5128Z" fill="#FEFFFF"/>
<path d="M17.9376 23.3013H11.1626L17.6906 24.0071L17.9376 23.3013ZM11.1626 23.3013L17.6906 24.0071H11.7272L11.1626 23.3013Z" fill="#FEFFFF"/>
<path d="M35.087 23.5483H29.4059L35.0517 24.3599L35.087 23.5483ZM29.4059 23.5483L35.0517 24.3599H29.1942L29.4059 23.5483Z" fill="#FEFFFF"/>
<path d="M35.0518 24.3598H29.1942L35.0165 24.6421L35.0518 24.3598ZM29.1942 24.3598L35.0165 24.6421H29.1236L29.1942 24.3598Z" fill="#FEFFFF"/>
<path d="M35.0165 24.6422H29.1236L34.9459 25.1362L35.0165 24.6422ZM29.1236 24.6422L34.9459 25.1362H28.9825L29.1236 24.6422Z" fill="#FEFFFF"/>
<path d="M34.9458 25.1361H28.9823L34.8399 25.7712L34.9458 25.1361ZM28.9823 25.1361L34.8399 25.7712H28.8059L28.9823 25.1361Z" fill="#FEFFFF"/>
<path d="M34.84 25.7712H28.8059L34.84 25.9124V25.7712ZM28.8059 25.7712L34.84 25.9124H28.7354L28.8059 25.7712Z" fill="#FEFFFF"/>
<path d="M34.84 25.9124H28.7354L34.6635 26.6887L34.84 25.9124ZM28.7354 25.9124L34.6635 26.6887H28.4531L28.7354 25.9124Z" fill="#FEFFFF"/>
<path d="M34.6636 26.6887H28.4531L34.6283 26.8298L34.6636 26.6887ZM28.4531 26.6887L34.6283 26.8298H28.3825L28.4531 26.6887Z" fill="#FEFFFF"/>
<path d="M34.6283 26.8297H28.3825L34.4871 27.3237L34.6283 26.8297ZM28.3825 26.8297L34.4871 27.3237H28.1355L28.3825 26.8297Z" fill="#FEFFFF"/>
<path d="M34.4871 27.3239H28.1355L34.4518 27.4651L34.4871 27.3239ZM28.1355 27.3239L34.4518 27.4651H28.0649L28.1355 27.3239Z" fill="#FEFFFF"/>
<path d="M34.4518 27.4651H28.0649L34.3106 27.8533L34.4518 27.4651ZM28.0649 27.4651L34.3106 27.8533H27.8179L28.0649 27.4651Z" fill="#FEFFFF"/>
<path d="M34.3107 27.8532H27.8179L34.2048 28.2061L34.3107 27.8532ZM27.8179 27.8532L34.2048 28.2061H27.5709L27.8179 27.8532Z" fill="#FEFFFF"/>
<path d="M34.2047 28.2059H27.5708L34.1341 28.3118L34.2047 28.2059ZM27.5708 28.2059L34.1341 28.3118H27.5002L27.5708 28.2059Z" fill="#FEFFFF"/>
<path d="M34.1342 28.312H27.5003L33.9577 28.7708L34.1342 28.312ZM27.5003 28.312L33.9577 28.7708H27.1121L27.5003 28.312Z" fill="#FEFFFF"/>
<path d="M33.9578 28.7706H27.1121L33.8872 28.947L33.9578 28.7706ZM27.1121 28.7706L33.8872 28.947H26.9357L27.1121 28.7706Z" fill="#FEFFFF"/>
<path d="M33.8872 28.9471H26.9357L33.7813 29.1941L33.8872 28.9471ZM26.9357 28.9471L33.7813 29.1941H26.724L26.9357 28.9471Z" fill="#FEFFFF"/>
<path d="M33.7814 29.1941H26.724L33.6049 29.5823L33.7814 29.1941ZM26.724 29.1941L33.6049 29.5823H26.2653L26.724 29.1941Z" fill="#FEFFFF"/>
<path d="M33.6049 29.5821H26.2652L33.5696 29.688L33.6049 29.5821ZM26.2652 29.5821L33.5696 29.688H26.1241L26.2652 29.5821Z" fill="#FEFFFF"/>
<path d="M33.5696 29.6881H26.1241L33.4284 29.9351L33.5696 29.6881ZM26.1241 29.6881L33.4284 29.9351H25.8065L26.1241 29.6881Z" fill="#FEFFFF"/>
<path d="M33.4285 29.9352H25.8065L33.2873 30.2175L33.4285 29.9352ZM25.8065 29.9352L33.2873 30.2175H25.3125L25.8065 29.9352Z" fill="#FEFFFF"/>
<path d="M33.2874 30.2174H25.3126L33.1815 30.3938L33.2874 30.2174ZM25.3126 30.2174L33.1815 30.3938H24.9244L25.3126 30.2174Z" fill="#FEFFFF"/>
<path d="M33.1815 30.3938H24.9244L33.1462 30.4644L33.1815 30.3938ZM24.9244 30.3938L33.1462 30.4644H24.7833L24.9244 30.3938Z" fill="#FEFFFF"/>
<path d="M33.1461 30.4643H24.7832L33.005 30.676L33.1461 30.4643ZM24.7832 30.4643L33.005 30.676H24.2539L24.7832 30.4643Z" fill="#FEFFFF"/>
<path d="M33.005 30.676H24.2539L32.8286 30.9583L33.005 30.676ZM24.2539 30.676L32.8286 30.9583H23.1247L24.2539 30.676Z" fill="#FEFFFF"/>
<path d="M32.8286 30.9586H23.1248L32.758 31.0645L32.8286 30.9586ZM23.1248 30.9586L32.758 31.0645H22.5602L23.1248 30.9586Z" fill="#FEFFFF"/>
<path d="M32.7581 31.0643H22.5602L32.7228 31.1702L32.7581 31.0643ZM22.5602 31.0643L32.7228 31.1702H21.9956L22.5602 31.0643Z" fill="#FEFFFF"/>
<path d="M32.7228 31.1701H21.9956L32.6522 31.2407L32.7228 31.1701ZM21.9956 31.1701L32.6522 31.2407H20.8312L21.9956 31.1701Z" fill="#FEFFFF"/>
<path d="M17.6906 24.0069H11.7271L15.0088 31.2407L17.6906 24.0069ZM11.7271 24.0069L15.0088 31.2407H9.04531L11.7271 24.0069Z" fill="#FEFFFF"/>
<path d="M32.6522 31.2407H9.04542L32.2994 31.6995L32.6522 31.2407ZM9.04542 31.2407L32.2994 31.6995H8.90427L9.04542 31.2407Z" fill="#FEFFFF"/>
<path d="M32.2993 31.6996H8.90423L31.8053 32.3347L32.2993 31.6996ZM8.90423 31.6996L31.8053 32.3347H8.65722L8.90423 31.6996Z" fill="#FEFFFF"/>
<path d="M31.8053 32.3347H8.65722L31.6994 32.4053L31.8053 32.3347ZM8.65722 32.3347L31.6994 32.4053H8.62193L8.65722 32.3347Z" fill="#FEFFFF"/>
<path d="M31.6995 32.405H8.62196L31.276 32.8638L31.6995 32.405ZM8.62196 32.405L31.276 32.8638H8.30438L8.62196 32.405Z" fill="#FEFFFF"/>
<path d="M31.2406 32.8638H8.30424L30.8524 33.1814L31.2406 32.8638ZM8.30424 32.8638L30.8524 33.1814H7.91609L8.30424 32.8638Z" fill="#FEFFFF"/>
<path d="M30.8525 33.1813H7.91618L30.6408 33.3931L30.8525 33.1813ZM7.91618 33.1813L30.6408 33.3931H7.56332L7.91618 33.1813Z" fill="#FEFFFF"/>
<path d="M30.6407 33.3934H7.56324L30.1467 33.7109L30.6407 33.3934ZM7.56324 33.3934L30.1467 33.7109H6.96337L7.56324 33.3934Z" fill="#FEFFFF"/>
<path d="M30.1469 33.7108H6.96349L29.9704 33.8167L30.1469 33.7108ZM6.96349 33.7108L29.9704 33.8167H6.75177L6.96349 33.7108Z" fill="#FEFFFF"/>
<path d="M29.9703 33.8167H6.75168L29.2999 34.2048L29.9703 33.8167ZM6.75168 33.8167L29.2999 34.2048H6.01066L6.75168 33.8167Z" fill="#FEFFFF"/>
<path d="M29.2999 34.2047H6.0107L29.2999 34.24V34.2047ZM6.0107 34.2047L29.2999 34.24H5.97542L6.0107 34.2047Z" fill="#FEFFFF"/>
<path d="M29.2999 34.24H5.97541L28.5589 34.5576L29.2999 34.24ZM5.97541 34.24L28.5589 34.5576H5.26968L5.97541 34.24Z" fill="#FEFFFF"/>
<path d="M28.559 34.5575H5.26974L28.312 34.6633L28.559 34.5575ZM5.26974 34.5575L28.312 34.6633H5.05802L5.26974 34.5575Z" fill="#FEFFFF"/>
<path d="M28.3119 34.6635H5.05795L27.8532 34.8752L28.3119 34.6635ZM5.05795 34.6635L27.8532 34.8752H4.56394L5.05795 34.6635Z" fill="#FEFFFF"/>
<path d="M27.8531 34.8752H4.56393L27.2533 35.0869L27.8531 34.8752ZM4.56393 34.8752L27.2533 35.0869H4.06991L4.56393 34.8752Z" fill="#FEFFFF"/>
<path d="M27.2533 35.087H4.06993L27.1121 35.1223L27.2533 35.087ZM4.06993 35.087L27.1121 35.1223H3.92879L4.06993 35.087Z" fill="#FEFFFF"/>
<path d="M27.1122 35.1223H3.92882L26.3359 35.334L27.1122 35.1223ZM3.92882 35.1223L26.3359 35.334H3.29366L3.92882 35.1223Z" fill="#FEFFFF"/>
<path d="M26.3358 35.3338H3.2936L26.0182 35.4397L26.3358 35.3338ZM3.2936 35.3338L26.0182 35.4397H3.04659L3.2936 35.3338Z" fill="#FEFFFF"/>
<path d="M26.0183 35.4396H3.04666L24.7833 35.7219L26.0183 35.4396ZM3.04666 35.4396L24.7833 35.7219H2.05864L3.04666 35.4396Z" fill="#FEFFFF"/>
<path d="M24.7832 35.7222H2.05857L23.1953 36.0398L24.7832 35.7222ZM2.05857 35.7222L23.1953 36.0398H0.999966L2.05857 35.7222Z" fill="#FEFFFF"/>
<path d="M62.1518 14.7971H57.3175L62.9281 14.9382L62.1518 14.7971ZM57.3175 14.7971L62.9281 14.9382H57.3175V14.7971Z" fill="#FEFFFF"/>
<path d="M62.9283 14.9381H57.3177L63.2811 15.0439L62.9283 14.9381ZM57.3177 14.9381L63.2811 15.0439H57.3177V14.9381Z" fill="#FEFFFF"/>
<path d="M63.281 15.0443H57.3176L63.6339 15.1501L63.281 15.0443ZM57.3176 15.0443L63.6339 15.1501H57.3176V15.0443Z" fill="#FEFFFF"/>
<path d="M63.634 15.15H57.3176L63.9515 15.3264L63.634 15.15ZM57.3176 15.15L63.9515 15.3264H57.3176V15.15Z" fill="#FEFFFF"/>
<path d="M63.9515 15.3264H57.3176L64.1985 15.5381L63.9515 15.3264ZM57.3176 15.3264L64.1985 15.5381H57.3176V15.3264Z" fill="#FEFFFF"/>
<path d="M64.1985 15.538H57.3176L64.4456 15.8203L64.1985 15.538ZM57.3176 15.538L64.4456 15.8203H57.3176V15.538Z" fill="#FEFFFF"/>
<path d="M64.4455 15.8202H57.3176L64.5867 16.1731L64.4455 15.8202ZM57.3176 15.8202L64.5867 16.1731H57.3176V15.8202Z" fill="#FEFFFF"/>
<path d="M64.5867 16.1733H57.3176L64.6219 16.3145L64.5867 16.1733ZM57.3176 16.1733L64.6219 16.3145H57.3176V16.1733Z" fill="#FEFFFF"/>
<path d="M64.6572 16.3144H62.046L64.6572 16.385V16.3144ZM62.046 16.3144L64.6572 16.385H62.1872L62.046 16.3144Z" fill="#FEFFFF"/>
<path d="M64.6572 16.3851H62.1872L64.6572 16.4204V16.3851ZM62.1872 16.3851L64.6572 16.4204H62.3283L62.1872 16.3851Z" fill="#FEFFFF"/>
<path d="M64.6572 16.4205H62.3283L64.6925 16.5264L64.6572 16.4205ZM62.3283 16.4205L64.6925 16.5264H62.4694L62.3283 16.4205Z" fill="#FEFFFF"/>
<path d="M64.6925 16.5262H62.4694L64.7278 16.6321L64.6925 16.5262ZM62.4694 16.5262L64.7278 16.6321H62.5753L62.4694 16.5262Z" fill="#FEFFFF"/>
<path d="M64.7278 16.632H62.5753L64.7278 16.7732V16.632ZM62.5753 16.632L64.7278 16.7732H62.6459L62.5753 16.632Z" fill="#FEFFFF"/>
<path d="M64.7278 16.7732H62.6459L64.7278 16.9143V16.7732ZM62.6459 16.7732L64.7278 16.9143H62.7164L62.6459 16.7732Z" fill="#FEFFFF"/>
<path d="M64.7278 16.9141H62.7164L64.7278 17.0906V16.9141ZM62.7164 16.9141L64.7278 17.0906H62.7517L62.7164 16.9141Z" fill="#FEFFFF"/>
<path d="M64.7278 17.0908H62.7517L64.6925 17.2319L64.7278 17.0908ZM62.7517 17.0908L64.6925 17.2319H62.7517V17.0908Z" fill="#FEFFFF"/>
<path d="M64.6925 17.2317H62.7517L64.6925 17.3022V17.2317ZM62.7517 17.2317L64.6925 17.3022H62.7164L62.7517 17.2317Z" fill="#FEFFFF"/>
<path d="M64.6925 17.3025H62.7164L64.6925 17.373V17.3025ZM62.7164 17.3025L64.6925 17.373H62.7164V17.3025Z" fill="#FEFFFF"/>
<path d="M64.6925 17.3731H62.7164L64.6219 17.5496L64.6925 17.3731ZM62.7164 17.3731L64.6219 17.5496H62.6459L62.7164 17.3731Z" fill="#FEFFFF"/>
<path d="M64.6219 17.5497H62.6459L64.5867 17.6555L64.6219 17.5497ZM62.6459 17.5497L64.5867 17.6555H62.5753L62.6459 17.5497Z" fill="#FEFFFF"/>
<path d="M64.5867 17.6555H62.5753L64.5161 17.7966L64.5867 17.6555ZM62.5753 17.6555L64.5161 17.7966H62.4695L62.5753 17.6555Z" fill="#FEFFFF"/>
<path d="M64.5161 17.7966H62.4695L64.4808 17.8672L64.5161 17.7966ZM62.4695 17.7966L64.4808 17.8672H62.3283L62.4695 17.7966Z" fill="#FEFFFF"/>
<path d="M64.4808 17.8672H62.3283L64.4103 17.9377L64.4808 17.8672ZM62.3283 17.8672L64.4103 17.9377H62.1872L62.3283 17.8672Z" fill="#FEFFFF"/>
<path d="M64.4102 17.9376H62.1871L64.4102 17.9729V17.9376ZM62.1871 17.9376L64.4102 17.9729H62.1165L62.1871 17.9376Z" fill="#FEFFFF"/>
<path d="M64.3749 17.973H62.046L64.3749 18.0083V17.973ZM62.046 17.973L64.3749 18.0083H61.9048L62.046 17.973Z" fill="#FEFFFF"/>
<path d="M59.1172 16.3145H57.3176L59.1172 18.0083V16.3145ZM57.3176 16.3145L59.1172 18.0083H57.3176V16.3145Z" fill="#FEFFFF"/>
<path d="M64.3749 18.0083H57.3175L64.1632 18.22L64.3749 18.0083ZM57.3175 18.0083L64.1632 18.22H57.3175V18.0083Z" fill="#FEFFFF"/>
<path d="M64.1632 18.2198H57.3176L63.528 18.6079L64.1632 18.2198ZM57.3176 18.2198L63.528 18.6079H57.3176V18.2198Z" fill="#FEFFFF"/>
<path d="M63.528 18.6082H57.3176L64.2338 19.0669L63.528 18.6082ZM57.3176 18.6082L64.2338 19.0669H57.3176V18.6082Z" fill="#FEFFFF"/>
<path d="M64.2338 19.0668H57.3176L64.5514 19.3491L64.2338 19.0668ZM57.3176 19.0668L64.5514 19.3491H57.3176V19.0668Z" fill="#FEFFFF"/>
<path d="M64.5514 19.349H57.3176L64.6572 19.5254L64.5514 19.349ZM57.3176 19.349L64.6572 19.5254H57.3176V19.349Z" fill="#FEFFFF"/>
<path d="M64.6925 19.5254H62.3283L64.7278 19.5959L64.6925 19.5254ZM62.3283 19.5254L64.7278 19.5959H62.4694L62.3283 19.5254Z" fill="#FEFFFF"/>
<path d="M64.7278 19.5959H62.4694L64.7631 19.6665L64.7278 19.5959ZM62.4694 19.5959L64.7631 19.6665H62.6106L62.4694 19.5959ZM64.7631 19.6665H62.6106H62.6459H64.7631Z" fill="#FEFFFF"/>
<path d="M64.763 19.6666H62.6458L64.8336 19.7725L64.763 19.6666ZM62.6458 19.6666L64.8336 19.7725H62.787L62.6458 19.6666Z" fill="#FEFFFF"/>
<path d="M64.8336 19.7726H62.787L64.8689 19.8784L64.8336 19.7726ZM62.787 19.7726L64.8689 19.8784H62.8928L62.787 19.7726Z" fill="#FEFFFF"/>
<path d="M64.8689 19.8784H62.8928L64.9042 20.0195L64.8689 19.8784ZM62.8928 19.8784L64.9042 20.0195H62.9634L62.8928 19.8784Z" fill="#FEFFFF"/>
<path d="M64.9042 20.0196H62.9634L64.9042 20.0549V20.0196ZM62.9634 20.0196L64.9042 20.0549H62.9987L62.9634 20.0196Z" fill="#FEFFFF"/>
<path d="M64.9042 20.0549H62.9987L64.9395 20.196L64.9042 20.0549ZM62.9987 20.0549L64.9395 20.196H63.0693L62.9987 20.0549Z" fill="#FEFFFF"/>
<path d="M64.9394 20.1961H63.0692L64.9747 20.3726L64.9394 20.1961ZM63.0692 20.1961L64.9747 20.3726H63.1045L63.0692 20.1961Z" fill="#FEFFFF"/>
<path d="M64.9747 20.3723H63.1045L64.9747 20.4429V20.3723ZM63.1045 20.3723L64.9747 20.4429H63.1045V20.3723Z" fill="#FEFFFF"/>
<path d="M64.9747 20.443H63.1045L64.9394 20.5488L64.9747 20.443ZM63.1045 20.443L64.9394 20.5488H63.1045V20.443Z" fill="#FEFFFF"/>
<path d="M64.9395 20.5489H63.1045L64.9395 20.7253V20.5489ZM63.1045 20.5489L64.9395 20.7253H63.0693L63.1045 20.5489Z" fill="#FEFFFF"/>
<path d="M64.9395 20.7253H63.0693L64.9395 20.8665V20.7253ZM63.0693 20.7253L64.9395 20.8665H62.9987L63.0693 20.7253Z" fill="#FEFFFF"/>
<path d="M64.9395 20.8663H62.9987L64.9395 20.9016V20.8663ZM62.9987 20.8663L64.9395 20.9016H62.9987V20.8663Z" fill="#FEFFFF"/>
<path d="M64.9395 20.9016H62.9987L64.8689 21.0427L64.9395 20.9016ZM62.9987 20.9016L64.8689 21.0427H62.8928L62.9987 20.9016Z" fill="#FEFFFF"/>
<path d="M64.8689 21.0427H62.8928L64.8689 21.1838V21.0427ZM62.8928 21.0427L64.8689 21.1838H62.787L62.8928 21.0427Z" fill="#FEFFFF"/>
<path d="M64.8689 21.1842H62.787L64.8336 21.29L64.8689 21.1842ZM62.787 21.1842L64.8336 21.29H62.6458L62.787 21.1842ZM64.8336 21.29H62.6458H62.5753H64.8336Z" fill="#FEFFFF"/>
<path d="M64.8336 21.29H62.5753L64.7983 21.3606L64.8336 21.29ZM62.5753 21.29L64.7983 21.3606H62.4694L62.5753 21.29Z" fill="#FEFFFF"/>
<path d="M64.7983 21.3605H62.4694L64.7631 21.3958L64.7983 21.3605ZM62.4694 21.3605L64.7631 21.3958H62.3283L62.4694 21.3605Z" fill="#FEFFFF"/>
<path d="M64.7631 21.3959H62.3283L64.7631 21.4312V21.3959ZM62.3283 21.3959L64.7631 21.4312H62.1518L62.3283 21.3959Z" fill="#FEFFFF"/>
<path d="M59.1172 19.5257H57.3176L59.1172 21.4312V19.5257ZM57.3176 19.5257L59.1172 21.4312H57.3176V19.5257Z" fill="#FEFFFF"/>
<path d="M64.7631 21.4311H57.3176L64.6219 21.7134L64.7631 21.4311ZM57.3176 21.4311L64.6219 21.7134H57.3176V21.4311Z" fill="#FEFFFF"/>
<path d="M64.6219 21.7133H57.3176L64.4102 22.0662L64.6219 21.7133ZM57.3176 21.7133L64.4102 22.0662H57.3176V21.7133Z" fill="#FEFFFF"/>
<path d="M64.4102 22.066H57.3175L64.0926 22.3835L64.4102 22.066ZM57.3175 22.066L64.0926 22.3835H57.3175V22.066Z" fill="#FEFFFF"/>
<path d="M64.0927 22.3837H57.3176L63.7751 22.5955L64.0927 22.3837ZM57.3176 22.3837L63.7751 22.5955H57.3176V22.3837Z" fill="#FEFFFF"/>
<path d="M63.775 22.5954H57.3176L63.3869 22.7366L63.775 22.5954ZM57.3176 22.5954L63.3869 22.7366H57.3176V22.5954Z" fill="#FEFFFF"/>
<path d="M63.387 22.7368H57.3177L62.9988 22.8074L63.387 22.7368ZM57.3177 22.7368L62.9988 22.8074H57.3177V22.7368Z" fill="#FEFFFF"/>
<path d="M62.9987 22.8071H57.3175L62.1518 22.9482L62.9987 22.8071ZM57.3175 22.8071L62.1518 22.9482H57.3175V22.8071Z" fill="#FEFFFF"/>
<path d="M165.154 14.7971H163.319L166.001 16.5967L165.154 14.7971ZM163.319 14.7971L166.001 16.5967H162.472L163.319 14.7971Z" fill="#FEFFFF"/>
<path d="M166.001 16.5966H164.236L167.377 19.5254L166.001 16.5966ZM164.236 16.5966L167.377 19.5254H165.613L164.236 16.5966Z" fill="#FEFFFF"/>
<path d="M164.236 16.5966H162.472L162.86 19.5254L164.236 16.5966ZM162.472 16.5966L162.86 19.5254H161.061L162.472 16.5966Z" fill="#FEFFFF"/>
<path d="M167.377 19.5254H161.06L168.118 21.0427L167.377 19.5254ZM161.06 19.5254L168.118 21.0427H160.355L161.06 19.5254Z" fill="#FEFFFF"/>
<path d="M168.118 21.0428H166.318L169 22.9482L168.118 21.0428ZM166.318 21.0428L169 22.9482H167.236L166.318 21.0428Z" fill="#FEFFFF"/>
<path d="M162.119 21.0428H160.355L161.237 22.9482L162.119 21.0428ZM160.355 21.0428L161.237 22.9482H159.473L160.355 21.0428Z" fill="#FEFFFF"/>
<path d="M155.768 14.797H153.968L155.768 22.9482V14.797ZM153.968 14.797L155.768 22.9482H153.968V14.797Z" fill="#FEFFFF"/>
<path d="M146.064 14.7971H141.406L146.805 14.8677L146.064 14.7971ZM141.406 14.7971L146.805 14.8677H141.406V14.7971Z" fill="#FEFFFF"/>
<path d="M146.805 14.8676H141.406L147.546 15.0793L146.805 14.8676ZM141.406 14.8676L147.546 15.0793H141.406V14.8676Z" fill="#FEFFFF"/>
<path d="M147.546 15.0794H141.406L148.216 15.397L147.546 15.0794ZM141.406 15.0794L148.216 15.397H141.406V15.0794Z" fill="#FEFFFF"/>
<path d="M148.216 15.397H141.406L148.816 15.8557L148.216 15.397ZM141.406 15.397L148.816 15.8557H141.406V15.397Z" fill="#FEFFFF"/>
<path d="M148.816 15.8557H141.406L149.239 16.3145L148.816 15.8557ZM141.406 15.8557L149.239 16.3145H141.406V15.8557Z" fill="#FEFFFF"/>
<path d="M149.239 16.3146H145.429L149.275 16.3499L149.239 16.3146ZM145.429 16.3146L149.275 16.3499H145.887L145.429 16.3146Z" fill="#FEFFFF"/>
<path d="M149.275 16.3498H145.887L149.31 16.4204L149.275 16.3498ZM145.887 16.3498L149.31 16.4204H146.099L145.887 16.3498Z" fill="#FEFFFF"/>
<path d="M149.31 16.4204H146.099L149.345 16.491L149.31 16.4204ZM146.099 16.4204L149.345 16.491H146.346L146.099 16.4204Z" fill="#FEFFFF"/>
<path d="M149.345 16.4909H146.346L149.486 16.7026L149.345 16.4909ZM146.346 16.4909L149.486 16.7026H146.769L146.346 16.4909Z" fill="#FEFFFF"/>
<path d="M149.487 16.7026H146.769L149.663 16.9849L149.487 16.7026ZM146.769 16.7026L149.663 16.9849H147.158L146.769 16.7026Z" fill="#FEFFFF"/>
<path d="M149.663 16.9848H147.158L149.698 17.0554L149.663 16.9848ZM147.158 16.9848L149.698 17.0554H147.228L147.158 16.9848Z" fill="#FEFFFF"/>
<path d="M149.698 17.0554H147.228L149.804 17.3376L149.698 17.0554ZM147.228 17.0554L149.804 17.3376H147.475L147.228 17.0554Z" fill="#FEFFFF"/>
<path d="M149.804 17.3379H147.475L149.98 17.7261L149.804 17.3379ZM147.475 17.3379L149.98 17.7261H147.722L147.475 17.3379Z" fill="#FEFFFF"/>
<path d="M149.98 17.7259H147.722L149.98 17.7612V17.7259ZM147.722 17.7259L149.98 17.7612H147.722V17.7259Z" fill="#FEFFFF"/>
<path d="M149.98 17.7613H147.722L150.051 18.1494L149.98 17.7613ZM147.722 17.7613L150.051 18.1494H147.899L147.722 17.7613Z" fill="#FEFFFF"/>
<path d="M150.051 18.1493H147.899L150.122 18.5022L150.051 18.1493ZM147.899 18.1493L150.122 18.5022H147.934L147.899 18.1493Z" fill="#FEFFFF"/>
<path d="M150.122 18.5022H147.934L150.122 18.6433V18.5022ZM147.934 18.5022L150.122 18.6433H147.969L147.934 18.5022Z" fill="#FEFFFF"/>
<path d="M150.122 18.6433H147.969L150.122 19.1021V18.6433ZM147.969 18.6433L150.122 19.1021H147.969V18.6433Z" fill="#FEFFFF"/>
<path d="M150.122 19.102H147.969L150.122 19.2432V19.102ZM147.969 19.102L150.122 19.2432H147.934L147.969 19.102Z" fill="#FEFFFF"/>
<path d="M150.122 19.2432H147.934L150.051 19.5608L150.122 19.2432ZM147.934 19.2432L150.051 19.5608H147.899L147.934 19.2432Z" fill="#FEFFFF"/>
<path d="M150.051 19.5607H147.899L149.98 19.9841L150.051 19.5607ZM147.899 19.5607L149.98 19.9841H147.722L147.899 19.5607Z" fill="#FEFFFF"/>
<path d="M149.98 19.9842H147.722L149.98 20.0195V19.9842ZM147.722 19.9842L149.98 20.0195H147.722V19.9842Z" fill="#FEFFFF"/>
<path d="M149.98 20.0196H147.722L149.804 20.4077L149.98 20.0196ZM147.722 20.0196L149.804 20.4077H147.475L147.722 20.0196Z" fill="#FEFFFF"/>
<path d="M149.804 20.4076H147.475L149.698 20.6899L149.804 20.4076ZM147.475 20.4076L149.698 20.6899H147.228L147.475 20.4076Z" fill="#FEFFFF"/>
<path d="M149.698 20.6899H147.228L149.663 20.7605L149.698 20.6899ZM147.228 20.6899L149.663 20.7605H147.158L147.228 20.6899Z" fill="#FEFFFF"/>
<path d="M149.663 20.7604H147.158L149.487 21.0427L149.663 20.7604ZM147.158 20.7604L149.487 21.0427H146.769L147.158 20.7604Z" fill="#FEFFFF"/>
<path d="M149.486 21.0429H146.769L149.345 21.2546L149.486 21.0429ZM146.769 21.0429L149.345 21.2546H146.346L146.769 21.0429Z" fill="#FEFFFF"/>
<path d="M149.345 21.2546H146.346L149.31 21.3252L149.345 21.2546ZM146.346 21.2546L149.31 21.3252H146.099L146.346 21.2546Z" fill="#FEFFFF"/>
<path d="M149.31 21.3252H146.099L149.275 21.3958L149.31 21.3252ZM146.099 21.3252L149.275 21.3958H145.887L146.099 21.3252Z" fill="#FEFFFF"/>
<path d="M149.275 21.3959H145.887L149.239 21.4312L149.275 21.3959ZM145.887 21.3959L149.239 21.4312H145.429L145.887 21.3959Z" fill="#FEFFFF"/>
<path d="M143.205 16.3146H141.406L143.205 21.4312V16.3146ZM141.406 16.3146L143.205 21.4312H141.406V16.3146Z" fill="#FEFFFF"/>
<path d="M149.239 21.4311H141.406L148.816 21.8545L149.239 21.4311ZM141.406 21.4311L148.816 21.8545H141.406V21.4311Z" fill="#FEFFFF"/>
<path d="M148.816 21.8543H141.406L148.216 22.313L148.816 21.8543ZM141.406 21.8543L148.216 22.313H141.406V21.8543Z" fill="#FEFFFF"/>
<path d="M148.216 22.3131H141.406L147.546 22.666L148.216 22.3131ZM141.406 22.3131L147.546 22.666H141.406V22.3131Z" fill="#FEFFFF"/>
<path d="M147.546 22.666H141.406L146.805 22.8777L147.546 22.666ZM141.406 22.666L146.805 22.8777H141.406V22.666Z" fill="#FEFFFF"/>
<path d="M146.805 22.8777H141.406L146.064 22.9482L146.805 22.8777ZM141.406 22.8777L146.064 22.9482H141.406V22.8777Z" fill="#FEFFFF"/>
<path d="M137.101 14.7971H130.185L137.101 16.3145V14.7971ZM130.185 14.7971L137.101 16.3145H130.185V14.7971Z" fill="#FEFFFF"/>
<path d="M132.02 16.3145H130.185L132.02 18.0083V16.3145ZM130.185 16.3145L132.02 18.0083H130.185V16.3145Z" fill="#FEFFFF"/>
<path d="M136.889 18.0081H130.185L136.889 19.5254V18.0081ZM130.185 18.0081L136.889 19.5254H130.185V18.0081Z" fill="#FEFFFF"/>
<path d="M132.02 19.5257H130.185L132.02 21.4312V19.5257ZM130.185 19.5257L132.02 21.4312H130.185V19.5257Z" fill="#FEFFFF"/>
<path d="M137.383 21.4309H130.185L137.101 22.9482L137.383 21.4309ZM130.185 21.4309L137.101 22.9482H130.185V21.4309Z" fill="#FEFFFF"/>
<path d="M125.774 14.7972H123.48L125.774 17.5496V14.7972ZM123.48 14.7972L125.774 17.5496H122.21L123.48 14.7972Z" fill="#FEFFFF"/>
<path d="M117.975 14.7972H115.682L119.281 17.5496L117.975 14.7972ZM115.682 14.7972L119.281 17.5496H115.682V14.7972Z" fill="#FEFFFF"/>
<path d="M123.974 17.5495H122.21L122.492 20.7253L123.974 17.5495ZM122.21 17.5495L122.492 20.7253H120.728L122.21 17.5495Z" fill="#FEFFFF"/>
<path d="M119.281 17.5495H117.517L120.728 20.7253L119.281 17.5495ZM117.517 17.5495L120.728 20.7253H118.963L117.517 17.5495Z" fill="#FEFFFF"/>
<path d="M117.517 17.5495H115.682L117.517 20.7253V17.5495ZM115.682 17.5495L117.517 20.7253H115.682V17.5495Z" fill="#FEFFFF"/>
<path d="M125.774 17.5494H123.974L125.774 22.9482V17.5494ZM123.974 17.5494L125.774 22.9482H123.974V17.5494Z" fill="#FEFFFF"/>
<path d="M122.492 20.7252H118.963L121.469 22.9482L122.492 20.7252ZM118.963 20.7252L121.469 22.9482H119.987L118.963 20.7252Z" fill="#FEFFFF"/>
<path d="M117.517 20.7252H115.682L117.517 22.9482V20.7252ZM115.682 20.7252L117.517 22.9482H115.682V20.7252Z" fill="#FEFFFF"/>
<path d="M102.555 14.4442L103.296 14.4795H102.238L102.555 14.4442Z" fill="#FEFFFF"/>
<path d="M103.296 14.4796H102.238L103.437 14.5149L103.296 14.4796ZM102.238 14.4796L103.437 14.5149H101.779L102.238 14.4796Z" fill="#FEFFFF"/>
<path d="M103.437 14.5149H101.779L104.002 14.5854L103.437 14.5149ZM101.779 14.5149L104.002 14.5854H101.073L101.779 14.5149ZM104.002 14.5854H101.073H101.038H104.002Z" fill="#FEFFFF"/>
<path d="M104.002 14.5853H101.038L104.355 14.6912L104.002 14.5853ZM101.038 14.5853L104.355 14.6912H100.614L101.038 14.5853Z" fill="#FEFFFF"/>
<path d="M104.355 14.6911H100.614L104.531 14.7617L104.355 14.6911ZM100.614 14.6911L104.531 14.7617H100.367L100.614 14.6911Z" fill="#FEFFFF"/>
<path d="M104.531 14.7617H100.367L104.708 14.8323L104.531 14.7617ZM100.367 14.7617L104.708 14.8323H100.156L100.367 14.7617Z" fill="#FEFFFF"/>
<path d="M104.708 14.8323H100.156L104.813 14.9028L104.708 14.8323ZM100.156 14.8323L104.813 14.9028H100.014L100.156 14.8323Z" fill="#FEFFFF"/>
<path d="M104.814 14.9029H100.015L105.096 15.0793L104.814 14.9029ZM100.015 14.9029L105.096 15.0793H99.6617L100.015 14.9029Z" fill="#FEFFFF"/>
<path d="M105.096 15.0796H99.6616L105.343 15.2207L105.096 15.0796ZM99.6616 15.0796L105.343 15.2207H99.4852L99.6616 15.0796Z" fill="#FEFFFF"/>
<path d="M105.343 15.2207H99.4853L105.449 15.2913L105.343 15.2207ZM99.4853 15.2207L105.449 15.2913H99.3794L99.4853 15.2207Z" fill="#FEFFFF"/>
<path d="M105.449 15.2911H99.3794L105.625 15.4675L105.449 15.2911ZM99.3794 15.2911L105.625 15.4675H99.2029L99.3794 15.2911Z" fill="#FEFFFF"/>
<path d="M105.625 15.4676H99.2029L105.731 15.5735L105.625 15.4676ZM99.2029 15.4676L105.731 15.5735H99.0971L99.2029 15.4676Z" fill="#FEFFFF"/>
<path d="M105.731 15.5735H99.097L105.907 15.7146L105.731 15.5735ZM99.097 15.5735L105.907 15.7146H98.9912L99.097 15.5735Z" fill="#FEFFFF"/>
<path d="M105.907 15.7146H98.9911L105.978 15.8557L105.907 15.7146ZM98.9911 15.7146L105.978 15.8557H98.8853L98.9911 15.7146Z" fill="#FEFFFF"/>
<path d="M105.978 15.8557H98.8853L106.013 15.9263L105.978 15.8557ZM98.8853 15.8557L106.013 15.9263H98.85L98.8853 15.8557Z" fill="#FEFFFF"/>
<path d="M102.238 15.9261H98.85L101.991 15.9614L102.238 15.9261ZM98.85 15.9261L101.991 15.9614H98.8147L98.85 15.9261Z" fill="#FEFFFF"/>
<path d="M106.049 15.9263H102.732L106.084 15.9968L106.049 15.9263ZM102.732 15.9263L106.084 15.9968H103.12L102.732 15.9263Z" fill="#FEFFFF"/>
<path d="M106.084 15.9967H103.12L106.084 16.032V15.9967ZM103.12 15.9967L106.084 16.032H103.19L103.12 15.9967Z" fill="#FEFFFF"/>
<path d="M101.991 15.9614H98.8148L101.638 16.032L101.991 15.9614ZM98.8148 15.9614L101.638 16.032H98.7795L98.8148 15.9614Z" fill="#FEFFFF"/>
<path d="M106.084 16.032H103.19L106.119 16.1025L106.084 16.032ZM103.19 16.032L106.119 16.1025H103.473L103.19 16.032Z" fill="#FEFFFF"/>
<path d="M101.638 16.0319H98.7795L101.25 16.1731L101.638 16.0319ZM98.7795 16.0319L101.25 16.1731H98.7442L98.7795 16.0319Z" fill="#FEFFFF"/>
<path d="M101.25 16.1732H98.7443L101.179 16.2085L101.25 16.1732ZM98.7443 16.1732L101.179 16.2085H98.709L98.7443 16.1732Z" fill="#FEFFFF"/>
<path d="M106.119 16.1026H103.473L106.19 16.2791L106.119 16.1026ZM103.473 16.1026L106.19 16.2791H103.825L103.473 16.1026Z" fill="#FEFFFF"/>
<path d="M101.179 16.2087H98.7089L100.897 16.3499L101.179 16.2087ZM98.7089 16.2087L100.897 16.3499H98.6736L98.7089 16.2087Z" fill="#FEFFFF"/>
<path d="M106.19 16.2793H103.825L106.225 16.3499L106.19 16.2793ZM103.825 16.2793L106.225 16.3499H103.931L103.825 16.2793Z" fill="#FEFFFF"/>
<path d="M100.897 16.3498H98.6735L100.755 16.491L100.897 16.3498ZM98.6735 16.3498L100.755 16.491H98.6383L98.6735 16.3498Z" fill="#FEFFFF"/>
<path d="M106.225 16.3498H103.931L106.26 16.491L106.225 16.3498ZM103.931 16.3498L106.26 16.491H104.108L103.931 16.3498Z" fill="#FEFFFF"/>
<path d="M100.755 16.491H98.6383L100.72 16.5615L100.755 16.491ZM98.6383 16.491L100.72 16.5615H98.603L98.6383 16.491Z" fill="#FEFFFF"/>
<path d="M100.72 16.5615H98.603L100.685 16.6321L100.72 16.5615ZM98.603 16.5615L100.685 16.6321H98.603V16.5615Z" fill="#FEFFFF"/>
<path d="M106.26 16.4909H104.108L106.331 16.7732L106.26 16.4909ZM104.108 16.4909L106.331 16.7732H104.355L104.108 16.4909Z" fill="#FEFFFF"/>
<path d="M100.685 16.6319H98.603L100.65 16.8083L100.685 16.6319ZM98.603 16.6319L100.65 16.8083H98.5677L98.603 16.6319Z" fill="#FEFFFF"/>
<path d="M100.65 16.8086H98.5677L100.65 16.9497V16.8086ZM98.5677 16.8086L100.65 16.9497H98.5677V16.8086Z" fill="#FEFFFF"/>
<path d="M100.65 16.9494H98.5677L100.65 17.02V16.9494ZM98.5677 16.9494L100.65 17.02H98.5677V16.9494Z" fill="#FEFFFF"/>
<path d="M106.331 16.773H104.355L106.366 17.0906L106.331 16.773ZM104.355 16.773L106.366 17.0906H104.566L104.355 16.773Z" fill="#FEFFFF"/>
<path d="M100.65 17.0201H98.5677L100.685 17.1965L100.65 17.0201ZM98.5677 17.0201L100.685 17.1965H98.5677V17.0201Z" fill="#FEFFFF"/>
<path d="M100.685 17.1964H98.5677L100.755 17.3022L100.685 17.1964ZM98.5677 17.1964L100.755 17.3022H98.5677V17.1964Z" fill="#FEFFFF"/>
<path d="M100.755 17.3025H98.5677L100.791 17.373L100.755 17.3025ZM98.5677 17.3025L100.791 17.373H98.603L98.5677 17.3025Z" fill="#FEFFFF"/>
<path d="M100.791 17.3729H98.603L100.897 17.4788L100.791 17.3729ZM98.603 17.3729L100.897 17.4788H98.603V17.3729Z" fill="#FEFFFF"/>
<path d="M100.897 17.4791H98.6029L101.073 17.585L100.897 17.4791ZM98.6029 17.4791L101.073 17.585H98.6382L98.6029 17.4791Z" fill="#FEFFFF"/>
<path d="M101.073 17.5848H98.6384L101.355 17.6907L101.073 17.5848ZM98.6384 17.5848L101.355 17.6907H98.6737L98.6384 17.5848Z" fill="#FEFFFF"/>
<path d="M101.355 17.6908H98.6737L101.426 17.7261L101.355 17.6908ZM98.6737 17.6908L101.426 17.7261H98.6737V17.6908Z" fill="#FEFFFF"/>
<path d="M101.426 17.7259H98.6736L102.202 17.8318L101.426 17.7259ZM98.6736 17.7259L102.202 17.8318H98.7089L98.6736 17.7259Z" fill="#FEFFFF"/>
<path d="M102.202 17.8319H98.7088L102.943 17.8672L102.202 17.8319ZM98.7088 17.8319L102.943 17.8672H98.7441L98.7088 17.8319Z" fill="#FEFFFF"/>
<path d="M102.943 17.867H98.7442L103.649 17.9729L102.943 17.867ZM98.7442 17.867L103.649 17.9729H98.7795L98.7442 17.867Z" fill="#FEFFFF"/>
<path d="M103.649 17.9729H98.7794L103.861 18.0435L103.649 17.9729ZM98.7794 17.9729L103.861 18.0435H98.8147L98.7794 17.9729Z" fill="#FEFFFF"/>
<path d="M103.861 18.0436H98.8147L104.39 18.1494L103.861 18.0436ZM98.8147 18.0436L104.39 18.1494H98.8853L98.8147 18.0436Z" fill="#FEFFFF"/>
<path d="M104.39 18.1493H98.8854L104.919 18.3257L104.39 18.1493ZM98.8854 18.1493L104.919 18.3257H99.0266L98.8854 18.1493Z" fill="#FEFFFF"/>
<path d="M104.919 18.3257H99.0265L105.096 18.3962L104.919 18.3257ZM99.0265 18.3257L105.096 18.3962H99.0618L99.0265 18.3257Z" fill="#FEFFFF"/>
<path d="M105.096 18.3963H99.0618L105.449 18.5728L105.096 18.3963ZM99.0618 18.3963L105.449 18.5728H99.2383L99.0618 18.3963Z" fill="#FEFFFF"/>
<path d="M105.449 18.5726H99.2383L105.484 18.6079L105.449 18.5726ZM99.2383 18.5726L105.484 18.6079H99.2735L99.2383 18.5726Z" fill="#FEFFFF"/>
<path d="M105.484 18.6082H99.2735L105.731 18.7847L105.484 18.6082ZM99.2735 18.6082L105.731 18.7847H99.4852L99.2735 18.6082Z" fill="#FEFFFF"/>
<path d="M105.731 18.7847H99.4852L105.837 18.8552L105.731 18.7847ZM99.4852 18.7847L105.837 18.8552H99.5558L99.4852 18.7847Z" fill="#FEFFFF"/>
<path d="M105.837 18.8552H99.5558L106.049 18.9963L105.837 18.8552ZM99.5558 18.8552L106.049 18.9963H99.8381L99.5558 18.8552Z" fill="#FEFFFF"/>
<path d="M106.049 18.9962H99.8381L106.049 19.0315V18.9962ZM99.8381 18.9962L106.049 19.0315H99.8734L99.8381 18.9962Z" fill="#FEFFFF"/>
<path d="M106.049 19.0315H99.8734L106.19 19.1726L106.049 19.0315ZM99.8734 19.0315L106.19 19.1726H100.226L99.8734 19.0315Z" fill="#FEFFFF"/>
<path d="M106.19 19.1727H100.226L106.296 19.2786L106.19 19.1727ZM100.226 19.1727L106.296 19.2786H100.579L100.226 19.1727Z" fill="#FEFFFF"/>
<path d="M106.296 19.2784H100.579L106.331 19.3843L106.296 19.2784ZM100.579 19.2784L106.331 19.3843H100.932L100.579 19.2784Z" fill="#FEFFFF"/>
<path d="M106.331 19.3844H100.932L106.401 19.4902L106.331 19.3844ZM100.932 19.3844L106.401 19.4902H101.673L100.932 19.3844Z" fill="#FEFFFF"/>
<path d="M106.401 19.4901H101.673L106.437 19.5254L106.401 19.4901ZM101.673 19.4901L106.437 19.5254H102.379L101.673 19.4901Z" fill="#FEFFFF"/>
<path d="M106.437 19.5254H102.379L106.472 19.5959L106.437 19.5254ZM102.379 19.5254L106.472 19.5959H103.12L102.379 19.5254Z" fill="#FEFFFF"/>
<path d="M106.472 19.5959H103.12L106.507 19.6665L106.472 19.5959ZM103.12 19.5959L106.507 19.6665H103.473L103.12 19.5959Z" fill="#FEFFFF"/>
<path d="M106.507 19.6666H103.473L106.542 19.7725L106.507 19.6666ZM103.473 19.6666L106.542 19.7725H103.861L103.473 19.6666Z" fill="#FEFFFF"/>
<path d="M106.542 19.7723H103.861L106.613 19.9487L106.542 19.7723ZM103.861 19.7723L106.613 19.9487H104.214L103.861 19.7723Z" fill="#FEFFFF"/>
<path d="M106.613 19.9491H104.214L106.648 20.0549L106.613 19.9491ZM104.214 19.9491L106.648 20.0549H104.39L104.214 19.9491Z" fill="#FEFFFF"/>
<path d="M106.648 20.0549H104.39L106.648 20.196V20.0549ZM104.39 20.0549L106.648 20.196H104.496L104.39 20.0549Z" fill="#FEFFFF"/>
<path d="M106.648 20.1961H104.496L106.684 20.302L106.648 20.1961ZM104.496 20.1961L106.684 20.302H104.531L104.496 20.1961Z" fill="#FEFFFF"/>
<path d="M106.684 20.302H104.531L106.684 20.3726V20.302ZM104.531 20.302L106.684 20.3726H104.566L104.531 20.302Z" fill="#FEFFFF"/>
<path d="M100.261 20.1254H98.2854L100.403 20.4783L100.261 20.1254ZM98.2854 20.1254L100.403 20.4783H98.3207L98.2854 20.1254Z" fill="#FEFFFF"/>
<path d="M106.684 20.3724H104.566L106.684 20.5488V20.3724ZM104.566 20.3724L106.684 20.5488H104.602L104.566 20.3724Z" fill="#FEFFFF"/>
<path d="M106.684 20.5488H104.602L106.684 20.6899V20.5488ZM104.602 20.5488L106.684 20.6899H104.566L104.602 20.5488Z" fill="#FEFFFF"/>
<path d="M106.684 20.6901H104.566L106.684 20.7253V20.6901ZM104.566 20.6901L106.684 20.7253H104.566V20.6901Z" fill="#FEFFFF"/>
<path d="M100.403 20.4782H98.3206L100.544 20.8311L100.403 20.4782ZM98.3206 20.4782L100.544 20.8311H98.3559L98.3206 20.4782Z" fill="#FEFFFF"/>
<path d="M100.544 20.8312H98.356L100.614 20.8665L100.544 20.8312ZM98.356 20.8312L100.614 20.8665H98.356V20.8312Z" fill="#FEFFFF"/>
<path d="M106.684 20.7253H104.566L106.648 20.937L106.684 20.7253ZM104.566 20.7253L106.648 20.937H104.496L104.566 20.7253Z" fill="#FEFFFF"/>
<path d="M106.648 20.937H104.496L106.613 21.0781L106.648 20.937ZM104.496 20.937L106.613 21.0781H104.425L104.496 20.937Z" fill="#FEFFFF"/>
<path d="M100.614 20.8663H98.356L100.791 21.1133L100.614 20.8663ZM98.356 20.8663L100.791 21.1133H98.4266L98.356 20.8663Z" fill="#FEFFFF"/>
<path d="M106.613 21.0781H104.425L106.578 21.2192L106.613 21.0781ZM104.425 21.0781L106.578 21.2192H104.284L104.425 21.0781Z" fill="#FEFFFF"/>
<path d="M100.791 21.1134H98.4265L100.967 21.2192L100.791 21.1134ZM98.4265 21.1134L100.967 21.2192H98.4618L98.4265 21.1134Z" fill="#FEFFFF"/>
<path d="M100.967 21.2193H98.4618L101.073 21.3252L100.967 21.2193ZM98.4618 21.2193L101.073 21.3252H98.5324L98.4618 21.2193Z" fill="#FEFFFF"/>
<path d="M106.578 21.2193H104.284L106.507 21.3958L106.578 21.2193ZM104.284 21.2193L106.507 21.3958H103.967L104.284 21.2193Z" fill="#FEFFFF"/>
<path d="M106.507 21.3959H103.967L106.507 21.4312V21.3959ZM103.967 21.3959L106.507 21.4312H103.861L103.967 21.3959Z" fill="#FEFFFF"/>
<path d="M101.073 21.3253H98.5325L101.426 21.5017L101.073 21.3253ZM98.5325 21.3253L101.426 21.5017H98.6031L98.5325 21.3253Z" fill="#FEFFFF"/>
<path d="M101.426 21.5016H98.6031L101.567 21.5369L101.426 21.5016ZM98.6031 21.5016L101.567 21.5369H98.6383L98.6031 21.5016Z" fill="#FEFFFF"/>
<path d="M106.507 21.431H103.861L106.437 21.6074L106.507 21.431ZM103.861 21.431L106.437 21.6074H103.226L103.861 21.431Z" fill="#FEFFFF"/>
<path d="M101.567 21.5368H98.6383L101.779 21.6074L101.567 21.5368ZM98.6383 21.5368L101.779 21.6074H98.7089L98.6383 21.5368Z" fill="#FEFFFF"/>
<path d="M106.437 21.6074H103.226L106.401 21.678L106.437 21.6074ZM103.226 21.6074L106.401 21.678H102.626L103.226 21.6074Z" fill="#FEFFFF"/>
<path d="M101.779 21.6074H98.7089L102.132 21.678L101.779 21.6074ZM98.7089 21.6074L102.132 21.678H98.7442L98.7089 21.6074Z" fill="#FEFFFF"/>
<path d="M106.401 21.6781H98.7442L106.366 21.7839L106.401 21.6781ZM98.7442 21.6781L106.366 21.7839H98.8147L98.7442 21.6781Z" fill="#FEFFFF"/>
<path d="M106.366 21.7839H98.8147L106.331 21.8545L106.366 21.7839ZM98.8147 21.7839L106.331 21.8545H98.8853L98.8147 21.7839Z" fill="#FEFFFF"/>
<path d="M106.331 21.8543H98.8853L106.154 22.1013L106.331 21.8543ZM98.8853 21.8543L106.154 22.1013H99.1676L98.8853 21.8543Z" fill="#FEFFFF"/>
<path d="M106.154 22.1014H99.1677L105.943 22.3484L106.154 22.1014ZM99.1677 22.1014L105.943 22.3484H99.4852L99.1677 22.1014Z" fill="#FEFFFF"/>
<path d="M105.943 22.3483H99.4852L105.907 22.3835L105.943 22.3483ZM99.4852 22.3483L105.907 22.3835H99.5557L99.4852 22.3483Z" fill="#FEFFFF"/>
<path d="M105.907 22.3838H99.5557L105.696 22.5249L105.907 22.3838ZM99.5557 22.3838L105.696 22.5249H99.8027L99.5557 22.3838Z" fill="#FEFFFF"/>
<path d="M105.696 22.5249H99.8028L105.625 22.5955L105.696 22.5249ZM99.8028 22.5249L105.625 22.5955H99.9792L99.8028 22.5249Z" fill="#FEFFFF"/>
<path d="M105.625 22.5955H99.9792L105.308 22.772L105.625 22.5955ZM99.9792 22.5955L105.308 22.772H100.403L99.9792 22.5955Z" fill="#FEFFFF"/>
<path d="M105.307 22.7721H100.403L105.202 22.8074L105.307 22.7721ZM100.403 22.7721L105.202 22.8074H100.509L100.403 22.7721Z" fill="#FEFFFF"/>
<path d="M105.202 22.8072H100.509L104.955 22.9131L105.202 22.8072ZM100.509 22.8072L104.955 22.9131H100.897L100.509 22.8072Z" fill="#FEFFFF"/>
<path d="M104.955 22.9132H100.897L104.602 23.019L104.955 22.9132ZM100.897 22.9132L104.602 23.019H101.214L100.897 22.9132Z" fill="#FEFFFF"/>
<path d="M104.602 23.0188H101.214L104.214 23.0894L104.602 23.0188ZM101.214 23.0188L104.214 23.0894H101.814L101.214 23.0188Z" fill="#FEFFFF"/>
<path d="M104.214 23.0895H101.814L104.002 23.1248L104.214 23.0895ZM101.814 23.0895L104.002 23.1248H101.92L101.814 23.0895Z" fill="#FEFFFF"/>
<path d="M101.92 23.1247L102.626 23.16H103.437L101.92 23.1247ZM102.626 23.16H103.437L102.661 23.1953L102.626 23.16Z" fill="#FEFFFF"/>
<path d="M101.92 23.1246H104.002L103.437 23.1599L101.92 23.1246Z" fill="#FEFFFF"/>
<path d="M94.4038 14.797H92.6042L94.4038 22.9482V14.797ZM92.6042 14.797L94.4038 22.9482H92.6042V14.797Z" fill="#FEFFFF"/>
<path d="M83.959 14.7973H82.1594L83.959 21.4312V14.7973ZM82.1594 14.7973L83.959 21.4312H82.1594V14.7973Z" fill="#FEFFFF"/>
<path d="M88.9698 21.4309H82.1595L88.6876 22.9482L88.9698 21.4309ZM82.1595 21.4309L88.6876 22.9482H82.1595V21.4309Z" fill="#FEFFFF"/>
<path d="M57.3176 14.7971H62.1519" stroke="#FEFFFF" stroke-width="0.96" stroke-linecap="round" stroke-linejoin="round"/>
<path d="M82.1594 14.7971H83.959" stroke="#FEFFFF" stroke-width="0.96" stroke-linecap="round" stroke-linejoin="round"/>
<path d="M92.6042 14.7971H94.4038" stroke="#FEFFFF" stroke-width="0.96" stroke-linecap="round" stroke-linejoin="round"/>
<path d="M115.682 14.7971H117.975" stroke="#FEFFFF" stroke-width="0.96" stroke-linecap="round" stroke-linejoin="round"/>
<path d="M123.48 14.7971H125.774" stroke="#FEFFFF" stroke-width="0.96" stroke-linecap="round" stroke-linejoin="round"/>
<path d="M130.185 14.7971H137.101" stroke="#FEFFFF" stroke-width="0.96" stroke-linecap="round" stroke-linejoin="round"/>
<path d="M141.406 14.7971H146.064" stroke="#FEFFFF" stroke-width="0.96" stroke-linecap="round" stroke-linejoin="round"/>
<path d="M153.968 14.7971H155.768" stroke="#FEFFFF" stroke-width="0.96" stroke-linecap="round" stroke-linejoin="round"/>
<path d="M163.319 14.7971H165.154" stroke="#FEFFFF" stroke-width="0.96" stroke-linecap="round" stroke-linejoin="round"/>
<path d="M57.3176 22.9482H62.1519" stroke="#FEFFFF" stroke-width="0.96" stroke-linecap="round" stroke-linejoin="round"/>
<path d="M82.1593 22.9482H88.6874" stroke="#FEFFFF" stroke-width="0.96" stroke-linecap="round" stroke-linejoin="round"/>
<path d="M92.6042 22.9482H94.4038" stroke="#FEFFFF" stroke-width="0.96" stroke-linecap="round" stroke-linejoin="round"/>
<path d="M115.682 22.9482H117.517" stroke="#FEFFFF" stroke-width="0.96" stroke-linecap="round" stroke-linejoin="round"/>
<path d="M119.987 22.9482H121.469" stroke="#FEFFFF" stroke-width="0.96" stroke-linecap="round" stroke-linejoin="round"/>
<path d="M123.974 22.9482H125.774" stroke="#FEFFFF" stroke-width="0.96" stroke-linecap="round" stroke-linejoin="round"/>
<path d="M130.185 22.9482H137.101" stroke="#FEFFFF" stroke-width="0.96" stroke-linecap="round" stroke-linejoin="round"/>
<path d="M141.406 22.9482H146.064" stroke="#FEFFFF" stroke-width="0.96" stroke-linecap="round" stroke-linejoin="round"/>
<path d="M153.968 22.9482H155.768" stroke="#FEFFFF" stroke-width="0.96" stroke-linecap="round" stroke-linejoin="round"/>
<path d="M159.473 22.9482H161.237" stroke="#FEFFFF" stroke-width="0.96" stroke-linecap="round" stroke-linejoin="round"/>
<path d="M167.236 22.9482H169" stroke="#FEFFFF" stroke-width="0.96" stroke-linecap="round" stroke-linejoin="round"/>
<path d="M57.3176 14.797V22.9482" stroke="#FEFFFF" stroke-width="0.96" stroke-linecap="round" stroke-linejoin="round"/>
<path d="M59.1172 16.3145V18.0083" stroke="#FEFFFF" stroke-width="0.96" stroke-linecap="round" stroke-linejoin="round"/>
<path d="M59.1172 19.5257V21.4312" stroke="#FEFFFF" stroke-width="0.96" stroke-linecap="round" stroke-linejoin="round"/>
<path d="M82.1594 14.797V22.9482" stroke="#FEFFFF" stroke-width="0.96" stroke-linecap="round" stroke-linejoin="round"/>
<path d="M83.959 14.7973V21.4312" stroke="#FEFFFF" stroke-width="0.96" stroke-linecap="round" stroke-linejoin="round"/>
<path d="M92.6044 14.797V22.9482" stroke="#FEFFFF" stroke-width="0.96" stroke-linecap="round" stroke-linejoin="round"/>
<path d="M94.4038 14.797V22.9482" stroke="#FEFFFF" stroke-width="0.96" stroke-linecap="round" stroke-linejoin="round"/>
<path d="M115.682 14.797V22.9482" stroke="#FEFFFF" stroke-width="0.96" stroke-linecap="round" stroke-linejoin="round"/>
<path d="M117.517 17.5494V22.9482" stroke="#FEFFFF" stroke-width="0.96" stroke-linecap="round" stroke-linejoin="round"/>
<path d="M123.974 17.5494V22.9482" stroke="#FEFFFF" stroke-width="0.96" stroke-linecap="round" stroke-linejoin="round"/>
<path d="M125.774 14.797V22.9482" stroke="#FEFFFF" stroke-width="0.96" stroke-linecap="round" stroke-linejoin="round"/>
<path d="M130.185 14.797V22.9482" stroke="#FEFFFF" stroke-width="0.96" stroke-linecap="round" stroke-linejoin="round"/>
<path d="M132.02 16.3145V18.0083" stroke="#FEFFFF" stroke-width="0.96" stroke-linecap="round" stroke-linejoin="round"/>
<path d="M132.02 19.5257V21.4312" stroke="#FEFFFF" stroke-width="0.96" stroke-linecap="round" stroke-linejoin="round"/>
<path d="M141.406 14.797V22.9482" stroke="#FEFFFF" stroke-width="0.96" stroke-linecap="round" stroke-linejoin="round"/>
<path d="M143.205 16.3146V21.4312" stroke="#FEFFFF" stroke-width="0.96" stroke-linecap="round" stroke-linejoin="round"/>
<path d="M153.968 14.797V22.9482" stroke="#FEFFFF" stroke-width="0.96" stroke-linecap="round" stroke-linejoin="round"/>
<path d="M155.768 14.797V22.9482" stroke="#FEFFFF" stroke-width="0.96" stroke-linecap="round" stroke-linejoin="round"/>
<path d="M5.90473 1H34.3811" stroke="#FEFFFF" stroke-width="0.96" stroke-linecap="round" stroke-linejoin="round"/>
<path d="M0.999974 36.0398H23.1953" stroke="#FEFFFF" stroke-width="0.96" stroke-linecap="round" stroke-linejoin="round"/>
<path d="M17.7611 7.63386L13.7031 18.6433" stroke="#FEFFFF" stroke-width="0.96" stroke-linecap="round" stroke-linejoin="round"/>
<path d="M11.7272 24.007L8.62194 32.4053" stroke="#FEFFFF" stroke-width="0.96" stroke-linecap="round" stroke-linejoin="round"/>
<path d="M23.6893 7.63385L20.9723 15.0793" stroke="#FEFFFF" stroke-width="0.96" stroke-linecap="round" stroke-linejoin="round"/>
<path d="M18.9609 20.5136L15.0088 31.2407" stroke="#FEFFFF" stroke-width="0.96" stroke-linecap="round" stroke-linejoin="round"/>
<path d="M20.9723 15.0793H29.1941" stroke="#FEFFFF" stroke-width="0.96" stroke-linecap="round" stroke-linejoin="round"/>
<path d="M13.7032 18.6433H27.0769" stroke="#FEFFFF" stroke-width="0.96" stroke-linecap="round" stroke-linejoin="round"/>
<path d="M15.0087 31.2407H20.8311" stroke="#FEFFFF" stroke-width="0.96" stroke-linecap="round" stroke-linejoin="round"/>
<path d="M17.9376 5.44629H30.3585" stroke="#FEFFFF" stroke-width="0.96" stroke-linecap="round" stroke-linejoin="round"/>
<path d="M17.7612 7.63379H23.6893" stroke="#FEFFFF" stroke-width="0.96" stroke-linecap="round" stroke-linejoin="round"/>
<path d="M5.5167 20.5137H18.9609" stroke="#FEFFFF" stroke-width="0.96" stroke-linecap="round" stroke-linejoin="round"/>
<path d="M5.90486 1.00016L6.71645 1.14131L7.1046 1.21188L7.49276 1.31774L7.9162 1.38832L8.30435 1.49418L8.69251 1.56475L9.08066 1.67061L9.5041 1.74119L9.68053 1.77647L9.89225 1.84705L10.0687 1.88233L10.2804 1.95291L10.4568 1.98819L10.6686 2.02348L10.8803 2.09405L11.0567 2.12934L11.2684 2.19991L11.4449 2.2352L11.6566 2.30577L11.833 2.34106L12.0447 2.41163L12.2212 2.48221L12.4329 2.51749L12.6093 2.58807L12.8211 2.65864L12.9975 2.72921L13.2092 2.7645L13.3856 2.83507L13.5974 2.90565L13.7738 2.97622L13.9502 3.04679L14.1619 3.11737L14.3384 3.18794L14.5501 3.25851L14.7265 3.32909L14.8324 3.39966L14.903 3.43495L15.0088 3.47023L15.1147 3.50552L15.1853 3.54081L15.2911 3.61138L15.3617 3.64667L15.4676 3.68195L15.5381 3.71724L15.644 3.78781L15.7498 3.8231L15.8204 3.85839L15.9263 3.92896L15.9969 3.96425L16.0674 4.03482L16.1733 4.07011L16.2439 4.14068L16.3497 4.17597L16.4203 4.24654L16.4909 4.31711L16.5967 4.3524L16.6673 4.42297L16.7379 4.49355L16.8437 4.52883L16.9143 4.59941L16.9849 4.66998L17.1613 4.77584L17.3025 4.91699L17.4789 5.05814L17.62 5.19928L17.9376 5.44629" stroke="#FEFFFF" stroke-width="0.96" stroke-linecap="round" stroke-linejoin="round"/>
<path d="M0.999898 36.0398L1.2469 35.9692L1.5292 35.8986L1.77621 35.8281L2.02321 35.7575L2.16436 35.7222L2.30551 35.6869L2.41137 35.6164L2.55251 35.5811L2.65837 35.5458L2.79952 35.5105L2.94067 35.4752L3.04653 35.4399L3.18767 35.4046L3.29353 35.3341L3.43468 35.2988L3.57583 35.2635L3.68169 35.2282L3.82283 35.1576L3.92869 35.1223L4.06984 35.0871L4.1757 35.0165L4.31685 34.9812L4.42271 34.9459L4.56385 34.8753L4.66972 34.84L4.81086 34.7695L4.91672 34.7342L5.05787 34.6636L5.16373 34.6283L5.30488 34.5578L5.41074 34.5225L5.5166 34.4519L5.65774 34.3813L5.7636 34.346L5.86946 34.2755L6.01061 34.2049L6.11647 34.1696L6.25762 34.099L6.36348 34.0285L6.46934 33.9579L6.61048 33.9226L6.71634 33.852L6.8222 33.7814L6.96335 33.7109L7.06921 33.6403L7.21036 33.605L7.31622 33.5344L7.42208 33.4639L7.56322 33.3933L7.6338 33.358L7.66909 33.3227L7.73966 33.2874L7.81023 33.2521L7.84552 33.2169H7.88081L7.91609 33.1816H7.95138V33.1463H7.98667L8.02195 33.111H8.05724V33.0757H8.09253L8.12781 33.0404L8.1631 33.0051L8.19839 32.9699L8.23367 32.9346L8.26896 32.8993L8.30425 32.864L8.33953 32.8287L8.37482 32.7934L8.41011 32.7581V32.7228L8.44539 32.6876L8.48068 32.6523L8.51597 32.617V32.5817L8.55125 32.5464L8.58654 32.4758L8.62183 32.4053" stroke="#FEFFFF" stroke-width="0.96" stroke-linecap="round" stroke-linejoin="round"/>
<path d="M5.51671 20.5137L5.94015 20.6901L6.36359 20.8313L6.57531 20.9019L6.78703 20.9724L6.99875 21.043L7.21047 21.1136L7.42219 21.2194L7.63391 21.29L7.84564 21.3606L8.05736 21.4664L8.26908 21.537L8.4808 21.6429L8.69252 21.7134L8.90424 21.8193L9.0101 21.8546L9.11596 21.9252L9.22182 21.9605L9.32768 21.9957L9.43354 22.0663L9.5394 22.1016L9.60997 22.1722L9.71583 22.2075L9.82169 22.278L9.92755 22.3133L10.0334 22.3839L10.1393 22.4545L10.2098 22.4898L10.3157 22.5603L10.4216 22.6309L10.4921 22.7015L10.598 22.772L10.6686 22.8426L10.7744 22.9132L10.845 22.9838L10.8803 23.0191L10.9509 23.0543L10.9862 23.0896L11.0214 23.1249L11.0567 23.1602L11.092 23.1955L11.1273 23.2661L11.1626 23.3013L11.1979 23.3366L11.2332 23.3719L11.2684 23.4072L11.3037 23.4778L11.3743 23.5484L11.4449 23.6542L11.5155 23.7248L11.586 23.8306L11.7272 24.0071" stroke="#FEFFFF" stroke-width="0.96" stroke-linecap="round" stroke-linejoin="round"/>
<path d="M34.3812 0.999885H34.5577L34.6988 1.03517L34.8752 1.07046H34.9811H35.0517L35.1223 1.10574H35.2281L35.2987 1.14103H35.3693H35.4751L35.5457 1.17632H35.6163L35.7221 1.21161L35.7927 1.24689H35.8633L35.9691 1.28218H36.0397L36.1103 1.31747L36.1809 1.35275L36.2867 1.38804H36.3573L36.4279 1.42333L36.4984 1.45861L36.6043 1.4939L36.6749 1.52919L36.7454 1.56447L36.816 1.59976L36.8866 1.63505L36.9572 1.67033L37.063 1.74091L37.1336 1.77619L37.2042 1.81148L37.2747 1.84677L37.3453 1.91734L37.4159 1.95263L37.4865 1.98791L37.557 2.05849L37.6276 2.09377L37.6982 2.16435L37.7688 2.19963L37.804 2.27021L37.8746 2.30549L37.9452 2.37607L38.0158 2.41135L38.0863 2.48193L38.1569 2.5525L38.1922 2.58779L38.2628 2.65836L38.3333 2.72893L38.3686 2.79951L38.4392 2.83479L38.5098 2.90537L38.5451 2.97594L38.6156 3.04651L38.6509 3.11709L38.7215 3.18766L38.7568 3.22295L38.8274 3.29352L38.8626 3.36409L38.9332 3.43467L38.9685 3.50524L39.0038 3.57581L39.0744 3.64639L39.1097 3.71696L39.1449 3.78753L39.1802 3.89339L39.2155 3.96397L39.2861 4.03454L39.3214 4.10511L39.3567 4.17569L39.3919 4.24626L39.4272 4.31684L39.4625 4.4227L39.4978 4.49327L39.5331 4.56384L39.5684 4.63442V4.70499L39.6037 4.81085L39.639 4.88142L39.6742 4.952L39.7095 5.05786V5.12843L39.7448 5.199L39.7801 5.26958V5.37544L39.8154 5.44601V5.51658L39.8507 5.62244V5.69302L39.886 5.79888V5.86945L39.9212 5.94002V6.04588V6.11646L39.9565 6.18703V6.29289V6.36346V6.46932L39.9918 6.5399V6.61047V6.71633V6.7869V6.89276V6.96334V7.03391V7.13977V7.21035V7.31621V7.38678V7.45735V7.56321V7.63379V7.73965V7.81022V7.88079V7.98665L39.9565 8.05723V8.16309V8.23366V8.30423L39.9212 8.41009V8.48067V8.58653L39.886 8.6571V8.72767V8.83353L39.8507 8.90411V8.97468L39.8154 9.08054V9.15111L39.7801 9.25697V9.32755L39.7448 9.39812V9.50398L39.7095 9.57455V9.64513L39.6742 9.75099V9.82156L39.639 9.89213L39.6037 9.99799V10.0686L39.5684 10.1391V10.245L39.5331 10.3156L39.4978 10.3861L39.4625 10.4567V10.5626L39.4272 10.6332L39.3919 10.7037L39.3567 10.8096V10.8802L39.3214 10.9507L39.2861 11.0213L39.2508 11.1272L39.2155 11.1977L39.1802 11.2683V11.3389L39.1449 11.4447L39.1097 11.5153L39.0744 11.5859L39.0391 11.6565L39.0038 11.727L38.9685 11.8329L38.9332 11.9035L38.8979 11.9741L38.8626 12.0446L38.8274 12.1152L38.7921 12.2211L38.7568 12.2916L38.7215 12.3622L38.6862 12.4328L38.6509 12.5034L38.6156 12.5739L38.5804 12.6445L38.5451 12.7504L38.4745 12.8209L38.4392 12.8915L38.4039 12.9621L38.3686 13.0327L38.3333 13.1032L38.2981 13.1738L38.2275 13.2444L38.1922 13.3149L38.1569 13.3855L38.1216 13.4561L38.0511 13.562L38.0158 13.6325L37.9805 13.7031L37.9452 13.7737L37.8746 13.8442L37.8393 13.9148L37.804 13.9854L37.7335 14.056L37.6982 14.1265L37.6629 14.1971L37.5923 14.2677L37.557 14.3383L37.4865 14.4088L37.4512 14.4794L37.4159 14.55L37.3453 14.6206L37.31 14.6558L37.2395 14.7264L37.2042 14.797L37.1336 14.8676L37.0983 14.9381L37.0277 15.0087L36.9925 15.0793L36.9219 15.1499L36.8866 15.2204L36.816 15.2557L36.7807 15.3263L36.7102 15.3969L36.6396 15.4674L36.6043 15.5027L36.5337 15.5733L36.4632 15.6439L36.4279 15.7144L36.3573 15.7497L36.2867 15.8203L36.2514 15.8909L36.1809 15.9262L36.1103 15.9967L36.0397 16.032L35.9691 16.1026L35.9339 16.1379L35.8633 16.2085L35.7927 16.2437L35.7221 16.3143L35.6516 16.3496L35.581 16.4202L35.5104 16.4555L35.4398 16.4907L35.3693 16.5613L35.2987 16.5966L35.2281 16.6319L35.1575 16.7025L35.087 16.7378L35.0164 16.773L34.9458 16.8436L34.8752 16.8789L34.7341 16.9495L34.593 17.0553L34.4518 17.1259L34.3107 17.2318L33.9931 17.4082" stroke="#FEFFFF" stroke-width="0.96" stroke-linecap="round" stroke-linejoin="round"/>
<path d="M27.0769 18.6434L27.3239 18.8198L27.4298 18.8904L27.5709 18.9962L27.6768 19.0668L27.7827 19.1727L27.8885 19.2432L27.9591 19.2785L28.0297 19.3491L28.065 19.3844L28.1355 19.4197L28.1708 19.4903L28.2414 19.5255L28.2767 19.5961L28.3473 19.6314L28.3825 19.702L28.4531 19.7373L28.4884 19.8078L28.5237 19.8431L28.5943 19.9137L28.6296 19.949L28.6648 20.0196L28.7354 20.0901L28.7707 20.1254L28.806 20.196L28.8413 20.2666L28.9118 20.3018L28.9471 20.3724L28.9824 20.443L29.0177 20.5136L29.053 20.5489L29.0883 20.6194L29.1236 20.69L29.1589 20.7606L29.1941 20.8311L29.2294 20.9017L29.2647 20.937V21.0076L29.3 21.0782L29.3353 21.1487L29.3706 21.2193V21.2899L29.4059 21.3604V21.431L29.4411 21.5016V21.5722L29.4764 21.6427V21.7133V21.7839L29.5117 21.8545V21.925V21.9956V22.0662V22.1368V22.2073V22.2779V22.3485V22.419V22.4896V22.5602V22.6308V22.7013V22.7719V22.8425L29.4764 22.9131V22.9836V23.0542V23.1248L29.4411 23.2306V23.3718L29.4059 23.5129L29.3706 23.6541L29.3353 23.7952L29.3 23.9364L29.2647 24.0775L29.2294 24.2187L29.1941 24.3598L29.1589 24.501L29.1236 24.6421L29.0883 24.7833L29.053 24.9244L29.0177 25.0655L28.9824 25.2067L28.9471 25.3478L28.9118 25.489L28.8413 25.6301L28.806 25.7713L28.7707 25.9124L28.7001 26.0183L28.6648 26.1594L28.6296 26.3006L28.559 26.4417L28.4884 26.5476L28.4531 26.6887L28.3825 26.8299L28.312 26.971L28.2767 27.0769L28.2061 27.218L28.1355 27.3239L28.065 27.465L27.9944 27.6062L27.8885 27.7121L27.818 27.8532L27.7474 27.9591L27.6768 28.1002L27.5709 28.2061L27.5004 28.3119L27.3945 28.4531L27.3239 28.5589L27.2181 28.6648L27.1475 28.7354L27.1122 28.7707L27.0769 28.8412L27.0064 28.8765L26.9711 28.9471L26.9005 28.9824L26.8652 29.0529L26.8299 29.0882L26.7594 29.1588L26.7241 29.1941L26.6535 29.2294L26.6182 29.3L26.5476 29.3352L26.5123 29.4058L26.4418 29.4411L26.3712 29.4764L26.3359 29.547L26.2653 29.5822L26.2301 29.6175L26.1595 29.6528L26.0889 29.7234L26.0536 29.7587L25.983 29.794L25.9125 29.8293L25.8772 29.8645L25.8066 29.9351L25.736 29.9704L25.7008 30.0057L25.6302 30.041L25.5596 30.0763L25.489 30.1115L25.4185 30.1468L25.3832 30.1821L25.3126 30.2174L25.242 30.2527L25.1715 30.288L25.1009 30.3233H25.0656L24.995 30.3586L24.9244 30.3938L24.7833 30.4644L24.6422 30.4997L24.501 30.5703L24.3951 30.6056L24.254 30.6761L24.1129 30.7114L23.9717 30.7467L23.8306 30.782L23.6894 30.8173L23.5483 30.8879L23.4071 30.9231L23.266 30.9584H23.1248L22.9837 30.9937L22.8425 31.029L22.7014 31.0643L22.5602 31.0996H22.4191L22.2779 31.1349H22.1368L21.9957 31.1701H21.8545H21.7134L21.5722 31.2054H21.4311L21.1488 31.2407H20.8312" stroke="#FEFFFF" stroke-width="0.96" stroke-linecap="round" stroke-linejoin="round"/>
<path d="M30.3585 5.44607L30.5702 5.48136H30.7819L30.8878 5.51665H30.9936H31.0995L31.2054 5.55194H31.3112L31.3818 5.58722L31.4876 5.62251H31.5935L31.6994 5.6578L31.8052 5.69308L31.9111 5.72837L31.9817 5.79894L32.0875 5.83423L32.1934 5.86952L32.264 5.94009L32.3698 5.97538L32.4404 6.04595L32.5462 6.11652L32.6168 6.1871L32.7227 6.25767L32.7933 6.32824L32.8638 6.39882L32.9344 6.50468L33.005 6.57525L33.0755 6.64582L33.1461 6.75168L33.1814 6.82226L33.252 6.92812L33.3226 7.03398L33.3578 7.10455L33.3931 7.21041L33.4284 7.31627L33.4637 7.42213L33.499 7.52799L33.5343 7.63385L33.5696 7.70442V7.81028L33.6049 7.91614V8.022L33.6401 8.12786V8.23372V8.33958V8.44544V8.55131V8.65717V8.76303V8.90417L33.6049 9.01003V9.11589V9.22175L33.5696 9.32761V9.43347L33.5343 9.64519L33.499 9.85691L33.4637 10.0686L33.4284 10.2804L33.3578 10.4921V10.5626L33.3226 10.6685L33.2873 10.7744L33.252 10.8802L33.2167 10.9861L33.1814 11.0919L33.1461 11.1978V11.3037L33.1108 11.3742L33.0403 11.4801L33.005 11.586L32.9697 11.6918L32.9344 11.7624L32.8991 11.8683L32.8638 11.9741L32.8285 12.08L32.758 12.1505L32.7227 12.2564L32.6521 12.3623L32.6168 12.4328L32.5815 12.5387L32.511 12.6446L32.4757 12.7151L32.4051 12.821L32.3345 12.9269L32.2992 12.9974L32.2287 13.1033L32.1581 13.1739L32.0875 13.2797L32.0169 13.3503L31.9817 13.4562L31.9111 13.5267L31.8405 13.5973L31.7699 13.6679L31.6994 13.7737L31.5935 13.8443L31.5229 13.9149L31.4524 13.9855L31.3818 14.056L31.3112 14.1266L31.2054 14.1972L31.1348 14.2325L31.0289 14.303L30.9583 14.3736L30.8525 14.4089L30.7819 14.4795L30.6761 14.5148L30.6055 14.5853L30.4996 14.6206L30.3938 14.6559L30.2879 14.6912L30.2173 14.7265L30.1115 14.7618L30.0056 14.7971L29.8997 14.8323L29.7939 14.8676L29.6175 14.9382L29.4057 15.0088L29.194 15.0793" stroke="#FEFFFF" stroke-width="0.96" stroke-linecap="round" stroke-linejoin="round"/>
<path d="M33.9931 17.4084L34.099 17.5848L34.1696 17.7613L34.2754 17.9377L34.346 18.1141L34.4166 18.1847L34.4519 18.2906L34.4872 18.3612L34.5224 18.467L34.5577 18.5729L34.593 18.6434L34.6283 18.7493L34.6636 18.8552L34.6989 18.9257L34.7342 19.0316V19.1022L34.7694 19.208L34.8047 19.3139L34.84 19.4198V19.4903L34.8753 19.5962V19.7021L34.9106 19.8079V19.8785L34.9459 19.9843V20.0902L34.9812 20.1961V20.2666V20.3725L35.0165 20.4784V20.5842L35.0517 20.7607V20.9724L35.087 21.1841V21.3605V21.5722V21.784L35.1223 21.9604V22.1721V22.3838V22.5603V22.772V22.9837V23.1601V23.3719L35.087 23.5483V23.76V23.9717L35.0517 24.1482V24.3599L35.0165 24.5363V24.748L34.9812 24.9598L34.9459 25.1362V25.3479L34.9106 25.5244L34.8753 25.7361L34.84 25.9125L34.8047 26.1242L34.7342 26.3007L34.6989 26.5124L34.6636 26.6888L34.593 26.9005L34.5577 27.077L34.4872 27.2534L34.4519 27.4651L34.3813 27.6416L34.3107 27.8533L34.2401 28.0297L34.2049 28.2061L34.1343 28.4179L34.0637 28.5943L33.9579 28.7707L33.8873 28.9472L33.8167 29.1236L33.7461 29.3353L33.6403 29.5118L33.5697 29.6882L33.4638 29.8646L33.3933 30.0411L33.2874 30.2175L33.1815 30.3939L33.1463 30.4645L33.0757 30.5704L33.0404 30.6409L33.0051 30.7115L32.9345 30.8174L32.8993 30.8879L32.8287 30.9938L32.7581 31.0644L32.7228 31.1349L32.6522 31.2408L32.617 31.3114L32.5464 31.3819L32.4758 31.4878L32.4405 31.5584L32.37 31.629L32.2994 31.6995L32.2641 31.8054L32.1935 31.876L32.1229 31.9465L32.0524 32.0171L32.0171 32.0877L31.9465 32.1583L31.8759 32.2641L31.8054 32.3347L31.7348 32.4053L31.6642 32.4758L31.5936 32.5464L31.5231 32.617L31.4525 32.6876L31.3819 32.7581L31.3114 32.8287L31.2408 32.864L31.1702 32.9346L31.0996 33.0051L31.0291 33.0757L30.9232 33.1463L30.8526 33.2169L30.7821 33.2521L30.7115 33.3227L30.6409 33.3933L30.535 33.4286L30.4645 33.4992L30.3939 33.5697L30.288 33.605L30.2175 33.6756L30.1469 33.7109L30.041 33.7814L29.9705 33.8167L29.8999 33.8873L29.794 33.9226L29.7234 33.9932L29.6176 34.0285L29.547 34.099L29.4412 34.1343L29.3706 34.1696L29.3 34.2402L29.1941 34.2755L29.1236 34.3107L29.0177 34.346L28.9471 34.4166L28.8413 34.4519L28.7354 34.4872L28.6648 34.5225L28.559 34.5578L28.4884 34.6283L28.3826 34.6636L28.312 34.6989L28.2061 34.7342L28.0297 34.8048L27.8533 34.8753L27.6415 34.9459L27.4651 35.0165L27.2887 35.0518L27.1122 35.1223L26.9005 35.1929L26.7241 35.2282L26.5124 35.2988L26.3359 35.3341L26.1595 35.4046L25.9478 35.4399L25.7713 35.5105L25.5596 35.5458L25.3832 35.5811L25.1715 35.6516L24.995 35.6869L24.7833 35.7222L24.5716 35.7575L24.3952 35.7928L24.007 35.8986L23.6188 35.9692L23.1954 36.0398" stroke="#FEFFFF" stroke-width="0.96" stroke-linecap="round" stroke-linejoin="round"/>
<path d="M59.1172 21.4312H62.1519" stroke="#FEFFFF" stroke-width="0.96" stroke-linecap="round" stroke-linejoin="round"/>
<path d="M83.9591 21.4312H88.9698" stroke="#FEFFFF" stroke-width="0.96" stroke-linecap="round" stroke-linejoin="round"/>
<path d="M132.02 21.4312H137.383" stroke="#FEFFFF" stroke-width="0.96" stroke-linecap="round" stroke-linejoin="round"/>
<path d="M143.205 21.4312H145.428" stroke="#FEFFFF" stroke-width="0.96" stroke-linecap="round" stroke-linejoin="round"/>
<path d="M137.383 21.4309L137.101 22.9482" stroke="#FEFFFF" stroke-width="0.96" stroke-linecap="round" stroke-linejoin="round"/>
<path d="M88.9698 21.4309L88.6876 22.9482" stroke="#FEFFFF" stroke-width="0.96" stroke-linecap="round" stroke-linejoin="round"/>
<path d="M162.119 21.0427H166.318" stroke="#FEFFFF" stroke-width="0.96" stroke-linecap="round" stroke-linejoin="round"/>
<path d="M59.1171 16.3145H61.9048" stroke="#FEFFFF" stroke-width="0.96" stroke-linecap="round" stroke-linejoin="round"/>
<path d="M132.02 16.3145H137.101" stroke="#FEFFFF" stroke-width="0.96" stroke-linecap="round" stroke-linejoin="round"/>
<path d="M143.205 16.3145H145.428" stroke="#FEFFFF" stroke-width="0.96" stroke-linecap="round" stroke-linejoin="round"/>
<path d="M59.1171 18.0083H61.9048" stroke="#FEFFFF" stroke-width="0.96" stroke-linecap="round" stroke-linejoin="round"/>
<path d="M132.02 18.0083H136.889" stroke="#FEFFFF" stroke-width="0.96" stroke-linecap="round" stroke-linejoin="round"/>
<path d="M59.1172 19.5254H62.1519" stroke="#FEFFFF" stroke-width="0.96" stroke-linecap="round" stroke-linejoin="round"/>
<path d="M132.02 19.5254H136.889" stroke="#FEFFFF" stroke-width="0.96" stroke-linecap="round" stroke-linejoin="round"/>
<path d="M162.86 19.5254H165.613" stroke="#FEFFFF" stroke-width="0.96" stroke-linecap="round" stroke-linejoin="round"/>
<path d="M123.974 17.5494L121.469 22.9482" stroke="#FEFFFF" stroke-width="0.96" stroke-linecap="round" stroke-linejoin="round"/>
<path d="M117.517 17.5494L119.987 22.9482" stroke="#FEFFFF" stroke-width="0.96" stroke-linecap="round" stroke-linejoin="round"/>
<path d="M117.975 14.7972L120.728 20.7253L123.48 14.7972" stroke="#FEFFFF" stroke-width="0.96" stroke-linecap="round" stroke-linejoin="round"/>
<path d="M137.101 14.7971V16.3145" stroke="#FEFFFF" stroke-width="0.96" stroke-linecap="round" stroke-linejoin="round"/>
<path d="M136.889 18.0081V19.5254" stroke="#FEFFFF" stroke-width="0.96" stroke-linecap="round" stroke-linejoin="round"/>
<path d="M163.319 14.797L159.473 22.9482" stroke="#FEFFFF" stroke-width="0.96" stroke-linecap="round" stroke-linejoin="round"/>
<path d="M165.154 14.797L169 22.9482" stroke="#FEFFFF" stroke-width="0.96" stroke-linecap="round" stroke-linejoin="round"/>
<path d="M164.236 16.5966L165.613 19.5254" stroke="#FEFFFF" stroke-width="0.96" stroke-linecap="round" stroke-linejoin="round"/>
<path d="M166.318 21.0428L167.236 22.9482" stroke="#FEFFFF" stroke-width="0.96" stroke-linecap="round" stroke-linejoin="round"/>
<path d="M164.236 16.5966L162.86 19.5254" stroke="#FEFFFF" stroke-width="0.96" stroke-linecap="round" stroke-linejoin="round"/>
<path d="M162.119 21.0428L161.237 22.9482" stroke="#FEFFFF" stroke-width="0.96" stroke-linecap="round" stroke-linejoin="round"/>
<path d="M61.8872 18.0083C62.3647 18.0083 62.7517 17.6212 62.7517 17.1438C62.7517 16.6663 62.3647 16.2793 61.8872 16.2793" stroke="#FEFFFF" stroke-width="0.96" stroke-linecap="round" stroke-linejoin="round"/>
<path d="M62.1343 21.4312C62.6702 21.4312 63.1047 20.9967 63.1047 20.4608C63.1047 19.9248 62.6702 19.4904 62.1343 19.4904" stroke="#FEFFFF" stroke-width="0.96" stroke-linecap="round" stroke-linejoin="round"/>
<path d="M62.1518 14.797L62.3282 14.8323H62.4341L62.5399 14.8676H62.6458L62.7164 14.9029L62.8222 14.9382H62.9281L62.9987 14.9734H63.1045L63.2104 15.0087H63.2457L63.281 15.044H63.3515L63.3868 15.0793H63.4221L63.4574 15.1146H63.4927H63.5633L63.5986 15.1499H63.6338L63.6691 15.1852H63.7044L63.7397 15.2205L63.8103 15.2557H63.8456L63.8808 15.291H63.9161L63.9514 15.3263L63.9867 15.3616L64.022 15.3969H64.0573L64.0926 15.4322L64.1279 15.4675L64.1631 15.5027H64.1984V15.538L64.2337 15.5733L64.269 15.6086L64.3043 15.6439L64.3396 15.6792L64.3749 15.7145V15.7498L64.4101 15.785L64.4454 15.8203V15.8556L64.4807 15.8909L64.516 15.9615V15.9968L64.5513 16.032V16.0673L64.5866 16.1026V16.1732L64.6219 16.2085V16.2438L64.6572 16.3143V16.3496V16.3849L64.6924 16.4555V16.4908V16.5261V16.5966L64.7277 16.6319V16.7025V16.7378V16.7731V16.8436V16.8789V16.9142V16.9848V17.0201V17.0906V17.1259V17.1612V17.2318V17.2671L64.6924 17.3024V17.3729V17.4082L64.6572 17.4435V17.5141V17.5494L64.6219 17.5847V17.62L64.5866 17.6552V17.7258L64.5513 17.7611L64.516 17.7964V17.8317L64.4807 17.867L64.4454 17.9022V17.9375L64.4101 17.9728L64.3749 18.0081L64.3396 18.0434L64.3043 18.0787L64.269 18.114H64.2337V18.1493L64.1984 18.1845L64.1631 18.2198L64.1279 18.2551H64.0926L64.022 18.2904L63.9867 18.3257L63.9514 18.361H63.9161L63.8456 18.4315L63.775 18.4668L63.6691 18.5021L63.528 18.608L63.7044 18.7138L63.8103 18.7844L63.8808 18.8197L63.9867 18.8903L64.022 18.9256L64.0573 18.9608H64.1279L64.1631 18.9961L64.1984 19.0314L64.2337 19.0667L64.269 19.102L64.3043 19.1373L64.3749 19.1726L64.4101 19.2079L64.4454 19.2431L64.4807 19.2784L64.516 19.3137L64.5513 19.349L64.5866 19.3843L64.6219 19.4196V19.4549L64.6572 19.4901L64.6924 19.5254L64.7277 19.5607L64.763 19.596V19.6666L64.7983 19.7019L64.8336 19.7372V19.7724L64.8689 19.843V19.8783L64.9042 19.9136V19.9842V20.0194L64.9394 20.0547V20.1253V20.1606V20.2312V20.2665L64.9747 20.337V20.3723V20.4429V20.4782V20.5487V20.584L64.9394 20.6546V20.6899V20.7605V20.831V20.8663L64.9042 20.9369V20.9722V21.0428L64.8689 21.078V21.1486V21.1839L64.8336 21.2545V21.2898L64.7983 21.3603L64.763 21.3956V21.4662L64.7277 21.5015V21.5721L64.6924 21.6073L64.6572 21.6779L64.6219 21.7132V21.7485L64.5866 21.8191L64.5513 21.8544L64.516 21.8896L64.4807 21.9602L64.4454 21.9955V22.0308L64.4101 22.0661L64.3749 22.1366L64.3396 22.1719L64.3043 22.2072L64.269 22.2425L64.2337 22.2778L64.1984 22.3131L64.1279 22.3484L64.0926 22.3837L64.0573 22.4189H64.022L63.9867 22.4542L63.9514 22.4895L63.8808 22.5248H63.8456L63.8103 22.5601L63.775 22.5954H63.7044L63.6691 22.6307H63.6338L63.5986 22.6659H63.528L63.4927 22.7012H63.4221L63.3868 22.7365H63.3515L63.281 22.7718H63.2457H63.1751L63.1398 22.8071H63.1045H63.034H62.9987L62.8928 22.8424H62.787L62.6811 22.8777H62.5752L62.4694 22.913H62.3635L62.1518 22.9482" stroke="#FEFFFF" stroke-width="0.96" stroke-linecap="round" stroke-linejoin="round"/>
<path d="M145.411 21.3958C146.824 21.3958 147.969 20.2504 147.969 18.8375C147.969 17.4246 146.824 16.2792 145.411 16.2792" stroke="#FEFFFF" stroke-width="0.96" stroke-linecap="round" stroke-linejoin="round"/>
<path d="M146.046 22.9131C148.297 22.9131 150.122 21.0884 150.122 18.8375C150.122 16.5866 148.297 14.7619 146.046 14.7619" stroke="#FEFFFF" stroke-width="0.96" stroke-linecap="round" stroke-linejoin="round"/>
<path d="M98.2854 20.1255H100.261" stroke="#FEFFFF" stroke-width="0.96" stroke-linecap="round" stroke-linejoin="round"/>
<path d="M104.566 17.0906H106.366" stroke="#FEFFFF" stroke-width="0.96" stroke-linecap="round" stroke-linejoin="round"/>
<path d="M100.261 20.1254L100.297 20.2312L100.332 20.2665V20.3018V20.3724L100.367 20.4077V20.4429L100.403 20.4782V20.5135L100.438 20.5841V20.6194H100.473V20.6547V20.69L100.508 20.7252V20.7605H100.544V20.7958V20.8311H100.579V20.8664L100.614 20.9017V20.937H100.65V20.9722H100.685V21.0075L100.72 21.0428L100.756 21.0781L100.791 21.1134L100.826 21.1487H100.861V21.184H100.897V21.2193H100.932L100.967 21.2545L101.003 21.2898H101.038L101.073 21.3251H101.108V21.3604H101.144L101.179 21.3957H101.214L101.25 21.431H101.285L101.32 21.4663H101.355L101.426 21.5015H101.461L101.497 21.5368H101.532L101.602 21.5721H101.638L101.673 21.6074H101.708H101.779H101.814L101.849 21.6427H101.885H101.955H101.991L102.026 21.678H102.061H102.132H102.167H102.202H102.273H102.308H102.343H102.414H102.449H102.485H102.52H102.59H102.626H102.661H102.732H102.767H102.802H102.873H102.908L102.943 21.6427H103.014H103.049H103.084H103.155L103.19 21.6074H103.226H103.296H103.331L103.367 21.5721H103.437H103.473L103.508 21.5368H103.578H103.614L103.649 21.5015H103.72H103.755L103.79 21.4663H103.825H103.861L103.896 21.431H103.931H103.967V21.3957H104.002H104.037L104.072 21.3604H104.108L104.143 21.3251H104.178V21.2898H104.214L104.249 21.2545H104.284V21.2193H104.319V21.184H104.355V21.1487H104.39V21.1134L104.425 21.0781L104.461 21.0428V21.0075L104.496 20.9722V20.937L104.531 20.9017V20.8664V20.8311L104.566 20.7958V20.7605V20.7252V20.69V20.6547L104.602 20.6194V20.5841V20.5488V20.5135V20.4782L104.566 20.4429V20.4077V20.3724V20.3371V20.3018H104.531V20.2665V20.2312H104.496V20.1959L104.461 20.1607L104.425 20.1254V20.0901H104.39V20.0548H104.355V20.0195H104.319L104.284 19.9842L104.249 19.9489H104.214L104.178 19.9136H104.143V19.8784H104.108H104.072V19.8431H104.037H104.002L103.967 19.8078H103.931H103.896L103.861 19.7725H103.825L103.79 19.7372H103.72H103.684L103.614 19.7019H103.578L103.543 19.6666H103.473H103.437H103.402L103.331 19.6313H103.296H103.261L103.19 19.5961H103.155H103.12H103.049H103.014L102.979 19.5608H102.908H102.873H102.837H102.767H102.732H102.696L102.661 19.5255H102.555H102.449H102.379H102.273H102.202L102.026 19.4902H101.92H101.849H101.744H101.673L101.567 19.4549H101.532H101.497H101.426H101.391H101.355H101.285L101.25 19.4196H101.214H101.179H101.108H101.073L101.038 19.3843H100.967H100.932H100.897L100.861 19.3491H100.791H100.756H100.72L100.65 19.3138H100.614H100.579L100.544 19.2785H100.473L100.438 19.2432H100.403H100.367L100.297 19.2079H100.261L100.226 19.1726H100.191L100.12 19.1373H100.085L100.05 19.102H100.014L99.9792 19.0668H99.9086L99.8733 19.0315L99.838 18.9962H99.8028L99.7675 18.9609H99.7322L99.6616 18.9256L99.6263 18.8903L99.591 18.855H99.5558L99.5205 18.8198L99.4852 18.7845L99.4499 18.7492H99.4146L99.3793 18.7139L99.344 18.6786L99.3087 18.6433L99.2735 18.608L99.2382 18.5727L99.2029 18.5375L99.1676 18.5022L99.1323 18.4669L99.097 18.4316L99.0617 18.3963V18.361L99.0265 18.3257L98.9912 18.2905L98.9559 18.2552L98.9206 18.2199V18.1846H98.8853V18.1493V18.114H98.85V18.0787H98.8147V18.0434V18.0082L98.7794 17.9729V17.9376H98.7442V17.9023V17.867L98.7089 17.8317V17.7964V17.7612H98.6736V17.7259V17.6906L98.6383 17.6553V17.62V17.5847V17.5494L98.603 17.5141V17.4789V17.4436V17.4083V17.373H98.5677V17.3377V17.3024V17.2671V17.2319V17.1966V17.1613V17.126V17.0907V17.0554V17.0201V16.9848V16.9496V16.9143V16.879V16.8437V16.8084V16.7731V16.7378V16.7026V16.6673H98.603V16.632V16.5967V16.5614V16.5261V16.4908L98.6383 16.4555V16.4203V16.385L98.6736 16.3497V16.3144V16.2791L98.7089 16.2438V16.2085V16.1733L98.7442 16.138V16.1027L98.7794 16.0674V16.0321L98.8147 15.9968V15.9615V15.9262H98.85V15.891L98.8853 15.8557V15.8204L98.9206 15.7851L98.9559 15.7498V15.7145H98.9912V15.6792H99.0265V15.644L99.0617 15.6087L99.097 15.5734V15.5381H99.1323L99.1676 15.5028L99.2029 15.4675L99.2382 15.4322L99.2735 15.3969L99.3087 15.3617L99.344 15.3264L99.3793 15.2911L99.4146 15.2558H99.4499L99.4852 15.2205L99.5205 15.1852L99.5558 15.1499H99.591L99.6263 15.1147L99.6616 15.0794L99.6969 15.0441H99.7675L99.8028 15.0088L99.838 14.9735H99.8733L99.9086 14.9382H99.9439L100.014 14.9029L100.05 14.8676H100.085L100.12 14.8324H100.191L100.226 14.7971H100.261L100.297 14.7618H100.367H100.403L100.438 14.7265H100.473L100.544 14.6912H100.579H100.614L100.65 14.6559H100.72H100.756L100.791 14.6206H100.826H100.897H100.932L100.967 14.5854H101.003H101.073H101.108H101.144L101.214 14.5501H101.25H101.285H101.32H101.391H101.426L101.461 14.5148H101.532H101.602H101.708H101.779L101.885 14.4795H101.991H102.061H102.167H102.273H102.343H102.449L102.555 14.4442H102.626H102.696H102.732H102.767H102.837H102.873H102.908H102.979H103.014L103.049 14.4795H103.12H103.155H103.19H103.261H103.296H103.331H103.402H103.437H103.473L103.508 14.5148H103.578H103.614H103.649H103.72L103.755 14.5501H103.79H103.825H103.896L103.931 14.5854H103.967H104.002H104.072L104.108 14.6206H104.143H104.178L104.249 14.6559H104.284L104.319 14.6912H104.355L104.425 14.7265H104.461H104.496L104.531 14.7618H104.566L104.602 14.7971L104.672 14.8324H104.708L104.743 14.8676H104.778L104.813 14.9029L104.849 14.9382H104.919L104.955 14.9735H104.99L105.025 15.0088L105.06 15.0441L105.096 15.0794H105.131L105.166 15.1147L105.237 15.1499H105.272L105.307 15.1852L105.343 15.2205L105.378 15.2558L105.413 15.2911H105.449L105.484 15.3264L105.519 15.3617L105.554 15.3969L105.59 15.4322L105.625 15.4675L105.66 15.5028H105.696L105.731 15.5381L105.766 15.5734L105.802 15.6087V15.644H105.837V15.6792H105.872V15.7145H105.907V15.7498L105.943 15.7851L105.978 15.8204V15.8557H106.013V15.891L106.049 15.9262V15.9615L106.084 15.9968V16.0321H106.119V16.0674V16.1027H106.154V16.138V16.1733L106.19 16.2085V16.2438V16.2791L106.225 16.3144V16.3497V16.385L106.26 16.4555V16.4908V16.5261L106.296 16.5614V16.632V16.6673L106.331 16.7026V16.7731V16.8084V16.8437L106.366 16.9143V16.9848V17.0907" stroke="#FEFFFF" stroke-width="0.96" stroke-linecap="round" stroke-linejoin="round"/>
<path d="M104.566 17.0907L104.461 16.9143L104.39 16.8437L104.355 16.7731L104.284 16.7026L104.214 16.632V16.5967L104.178 16.5614L104.143 16.5261L104.108 16.4908L104.072 16.4556L104.037 16.4203L104.002 16.385H103.967L103.931 16.3497L103.896 16.3144L103.861 16.2791H103.825L103.755 16.2438L103.72 16.2085H103.684L103.649 16.1733L103.543 16.138L103.473 16.1027L103.402 16.0674L103.296 16.0321H103.19L103.12 15.9968L103.014 15.9615H102.943H102.837L102.731 15.9263H102.661H102.555H102.484H102.379H102.273H102.202L102.096 15.9615H101.99H101.92L101.814 15.9968L101.708 16.0321H101.638L101.532 16.0674L101.426 16.1027L101.355 16.138L101.249 16.1733H101.214L101.144 16.2085L101.108 16.2438H101.073L101.038 16.2791L100.967 16.3144H100.932L100.897 16.3497L100.861 16.385L100.826 16.4203L100.791 16.4556L100.755 16.4908V16.5261L100.72 16.5614L100.685 16.5967V16.632L100.65 16.6673V16.7026V16.7731V16.8084L100.614 16.8437L100.65 16.9143V16.9496V17.0201V17.0554V17.0907L100.685 17.1613V17.1966L100.72 17.2319V17.2671L100.755 17.3377L100.791 17.373L100.826 17.4083L100.861 17.4436V17.4789H100.897L100.932 17.5142L101.002 17.5494L101.038 17.5847H101.073L101.108 17.62H101.144L101.214 17.6553H101.249L101.285 17.6906H101.32H101.391L101.426 17.7259H101.532L101.638 17.7612H101.743H101.814L101.92 17.7964H102.026H102.132L102.202 17.8317H102.379L102.59 17.867H102.767H102.943L103.12 17.9023L103.296 17.9376H103.473L103.578 17.9729H103.649L103.755 18.0082H103.861L103.931 18.0435H104.037L104.108 18.0787H104.214L104.319 18.114L104.39 18.1493L104.496 18.1846H104.566L104.672 18.2199L104.743 18.2552L104.849 18.2905L104.919 18.3257L105.025 18.361L105.096 18.3963L105.166 18.4316L105.272 18.4669L105.343 18.5375L105.449 18.5728L105.519 18.608L105.59 18.6786L105.66 18.7139L105.731 18.7845L105.801 18.8198L105.907 18.8903L105.978 18.9609L106.048 18.9962L106.084 19.0668L106.154 19.1373L106.225 19.2079L106.295 19.2785V19.3138L106.331 19.3491L106.366 19.3843L106.401 19.4549V19.4902L106.437 19.5255L106.472 19.5608V19.5961L106.507 19.6314V19.7019L106.542 19.7372V19.7725L106.578 19.8078V19.8431L106.613 19.9136V19.9489V19.9842L106.648 20.0195V20.0901V20.1254V20.1607L106.684 20.2312V20.2665V20.3018V20.3724V20.4077V20.5135V20.5841V20.69V20.7958L106.648 20.9017V20.9723L106.613 21.0781V21.184L106.578 21.2545L106.542 21.3604L106.507 21.431L106.472 21.5368L106.437 21.6074L106.401 21.7133L106.366 21.7838L106.295 21.8544L106.26 21.9603L106.19 22.0309L106.154 22.1014L106.084 22.172L106.048 22.2426L106.013 22.2779L105.978 22.3131L105.943 22.3484L105.907 22.3837L105.872 22.419H105.837L105.766 22.4896L105.696 22.5602L105.625 22.5954L105.554 22.666L105.449 22.7013L105.378 22.7366L105.307 22.7719L105.202 22.8072L105.131 22.8424L105.025 22.8777L104.955 22.913L104.849 22.9483L104.778 22.9836L104.672 23.0189H104.566L104.496 23.0542H104.39L104.284 23.0895H104.214L104.108 23.1247H104.002H103.896L103.825 23.16H103.72H103.614H103.508H103.437L103.331 23.1953H103.225H103.155H103.049H102.943H102.873H102.767H102.661L102.59 23.16H102.484H102.379H102.308H102.132L101.92 23.1247L101.743 23.0895L101.567 23.0542H101.391L101.285 23.0189H101.214L101.108 22.9836L101.038 22.9483H100.932L100.861 22.913H100.755L100.685 22.8777L100.579 22.8424L100.508 22.8072L100.403 22.7719H100.332L100.226 22.7366L100.156 22.7013L100.05 22.666L99.9791 22.5954L99.8733 22.5602L99.8027 22.5249L99.7321 22.4896L99.6263 22.419L99.5557 22.3837L99.4851 22.3484L99.3792 22.2779L99.3087 22.2073L99.2381 22.172L99.1675 22.1014L99.097 22.0309L99.0264 21.9956L98.9558 21.925L98.8852 21.8544L98.8147 21.7838L98.7441 21.7133L98.7088 21.678V21.6427L98.6735 21.6074L98.6382 21.5368L98.6029 21.5016V21.4663L98.5677 21.431L98.5324 21.3957V21.3604L98.4971 21.3251V21.2898L98.4618 21.2193V21.184L98.4265 21.1487V21.1134V21.0428L98.3912 21.0075V20.9723L98.3559 20.8664V20.7958L98.3206 20.69V20.6194V20.5135V20.4077L98.2854 20.3371V20.1254" stroke="#FEFFFF" stroke-width="0.96" stroke-linecap="round" stroke-linejoin="round"/>
<path d="M73.6553 14.4089H72.8437L74.4669 14.55L73.6553 14.4089ZM72.8437 14.4089L74.4669 14.55H72.0321L72.8437 14.4089Z" fill="#FEFFFF"/>
<path d="M74.4669 14.55H72.0321L75.2432 14.7617L74.4669 14.55ZM72.0321 14.55L75.2432 14.7617H71.2911L72.0321 14.55Z" fill="#FEFFFF"/>
<path d="M75.2432 14.7619H71.2911L75.949 15.1147L75.2432 14.7619ZM71.2911 14.7619L75.949 15.1147H70.5501L71.2911 14.7619Z" fill="#FEFFFF"/>
<path d="M75.9489 15.1148H70.5501L76.5841 15.5735L75.9489 15.1148ZM70.5501 15.1148L76.5841 15.5735H69.9149L70.5501 15.1148Z" fill="#FEFFFF"/>
<path d="M76.5841 15.5732H69.9149L77.1487 16.1025L76.5841 15.5732ZM69.9149 15.5732L77.1487 16.1025H69.3856L69.9149 15.5732Z" fill="#FEFFFF"/>
<path d="M77.1487 16.1027H69.3856L77.1487 16.1379V16.1027ZM69.3856 16.1027L77.1487 16.1379H69.3503L69.3856 16.1027Z" fill="#FEFFFF"/>
<path d="M77.1487 16.1378H73.373L77.184 16.1731L77.1487 16.1378ZM73.373 16.1378L77.184 16.1731H73.5494L73.373 16.1378Z" fill="#FEFFFF"/>
<path d="M73.373 16.1378H69.3504L72.879 16.1731L73.373 16.1378ZM69.3504 16.1378L72.879 16.1731H69.3151L69.3504 16.1378Z" fill="#FEFFFF"/>
<path d="M77.184 16.1732H73.5494L77.2192 16.2085L77.184 16.1732ZM73.5494 16.1732L77.2192 16.2085H73.9023L73.5494 16.1732Z" fill="#FEFFFF"/>
<path d="M72.879 16.1732H69.3151L72.3497 16.2791L72.879 16.1732ZM69.3151 16.1732L72.3497 16.2791H69.2445L69.3151 16.1732Z" fill="#FEFFFF"/>
<path d="M77.2193 16.2086H73.9024L77.3252 16.385L77.2193 16.2086ZM73.9024 16.2086L77.3252 16.385H74.3964L73.9024 16.2086Z" fill="#FEFFFF"/>
<path d="M72.3496 16.2792H69.2444L71.8909 16.491L72.3496 16.2792ZM69.2444 16.2792L71.8909 16.491H69.0679L69.2444 16.2792Z" fill="#FEFFFF"/>
<path d="M77.3251 16.3851H74.3963L77.5369 16.6321L77.3251 16.3851ZM74.3963 16.3851L77.5369 16.6321H74.8198L74.3963 16.3851Z" fill="#FEFFFF"/>
<path d="M77.5369 16.6321H74.8198L77.5721 16.7026L77.5369 16.6321ZM74.8198 16.6321L77.5721 16.7026H74.9256L74.8198 16.6321Z" fill="#FEFFFF"/>
<path d="M71.891 16.4909H69.0681L71.5734 16.7026L71.891 16.4909ZM69.0681 16.4909L71.5734 16.7026H68.9269L69.0681 16.4909Z" fill="#FEFFFF"/>
<path d="M71.5734 16.7026H68.9269L71.4675 16.7732L71.5734 16.7026ZM68.9269 16.7026L71.4675 16.7732H68.8916L68.9269 16.7026Z" fill="#FEFFFF"/>
<path d="M77.5721 16.7027H74.9256L77.7133 16.9497L77.5721 16.7027ZM74.9256 16.7027L77.7133 16.9497H75.2432L74.9256 16.7027Z" fill="#FEFFFF"/>
<path d="M71.4675 16.7732H68.8916L71.1147 17.1614L71.4675 16.7732ZM68.8916 16.7732L71.1147 17.1614H68.7152L68.8916 16.7732Z" fill="#FEFFFF"/>
<path d="M77.7132 16.9495H75.2431L77.8896 17.3376L77.7132 16.9495ZM75.2431 16.9495L77.8896 17.3376H75.5607L75.2431 16.9495Z" fill="#FEFFFF"/>
<path d="M77.8896 17.3378H75.5607L77.8896 17.373V17.3378ZM75.5607 17.3378L77.8896 17.373H75.5607V17.3378Z" fill="#FEFFFF"/>
<path d="M71.1146 17.1613H68.7151L70.9735 17.373L71.1146 17.1613ZM68.7151 17.1613L70.9735 17.373H68.6093L68.7151 17.1613Z" fill="#FEFFFF"/>
<path d="M70.9735 17.3732H68.6093L70.8324 17.585L70.9735 17.3732ZM68.6093 17.3732L70.8324 17.585H68.5387L68.6093 17.3732Z" fill="#FEFFFF"/>
<path d="M77.8897 17.3732H75.5608L78.0309 17.7966L77.8897 17.3732ZM75.5608 17.3732L78.0309 17.7966H75.7725L75.5608 17.3732Z" fill="#FEFFFF"/>
<path d="M70.8324 17.5847H68.5388L70.6207 18.0435L70.8324 17.5847ZM68.5388 17.5847L70.6207 18.0435H68.3976L68.5388 17.5847Z" fill="#FEFFFF"/>
<path d="M78.0309 17.7966H75.7725L78.1014 18.0789L78.0309 17.7966ZM75.7725 17.7966L78.1014 18.0789H75.8784L75.7725 17.7966Z" fill="#FEFFFF"/>
<path d="M70.6207 18.0436H68.3977L70.6207 18.0789V18.0436ZM68.3977 18.0436L70.6207 18.0789H68.3977V18.0436Z" fill="#FEFFFF"/>
<path d="M78.1014 18.0788H75.8784L78.1367 18.2905L78.1014 18.0788ZM75.8784 18.0788L78.1367 18.2905H75.9489L75.8784 18.0788Z" fill="#FEFFFF"/>
<path d="M70.6207 18.0786H68.3977L70.5502 18.5374L70.6207 18.0786ZM68.3977 18.0786L70.5502 18.5374H68.3624L68.3977 18.0786Z" fill="#FEFFFF"/>
<path d="M78.1367 18.2907H75.9489L78.172 18.7847L78.1367 18.2907ZM75.9489 18.2907L78.172 18.7847H75.9842L75.9489 18.2907Z" fill="#FEFFFF"/>
<path d="M70.5502 18.5377H68.3624L70.5502 18.7847V18.5377ZM68.3624 18.5377L70.5502 18.7847H68.3271L68.3624 18.5377Z" fill="#FEFFFF"/>
<path d="M70.5502 18.7845H68.3271L70.5502 19.0315V18.7845ZM68.3271 18.7845L70.5502 19.0315H68.3624L68.3271 18.7845Z" fill="#FEFFFF"/>
<path d="M78.172 18.7844H75.9842L78.1367 19.3137L78.172 18.7844ZM75.9842 18.7844L78.1367 19.3137H75.9489L75.9842 18.7844Z" fill="#FEFFFF"/>
<path d="M78.1367 19.3137H75.9489L78.1014 19.5254L78.1367 19.3137ZM75.9489 19.3137L78.1014 19.5254H75.8784L75.9489 19.3137Z" fill="#FEFFFF"/>
<path d="M70.5502 19.0314H68.3624L70.6207 19.5254L70.5502 19.0314ZM68.3624 19.0314L70.6207 19.5254H68.3977L68.3624 19.0314Z" fill="#FEFFFF"/>
<path d="M70.6207 19.5255H68.3977L70.6207 19.5608V19.5255ZM68.3977 19.5255L70.6207 19.5608H68.3977V19.5255Z" fill="#FEFFFF"/>
<path d="M78.1014 19.5255H75.8784L78.0309 19.7725L78.1014 19.5255ZM75.8784 19.5255L78.0309 19.7725H75.7725L75.8784 19.5255Z" fill="#FEFFFF"/>
<path d="M70.6207 19.5608H68.3976L70.8324 20.0195L70.6207 19.5608ZM68.3976 19.5608L70.8324 20.0195H68.5388L68.3976 19.5608Z" fill="#FEFFFF"/>
<path d="M78.0309 19.7725H75.7725L77.8897 20.2312L78.0309 19.7725ZM75.7725 19.7725L77.8897 20.2312H75.5608L75.7725 19.7725Z" fill="#FEFFFF"/>
<path d="M70.8324 20.0195H68.5387L70.9735 20.2312L70.8324 20.0195ZM68.5387 20.0195L70.9735 20.2312H68.6093L68.5387 20.0195Z" fill="#FEFFFF"/>
<path d="M70.9735 20.2312H68.6093L71.1146 20.4429L70.9735 20.2312ZM68.6093 20.2312L71.1146 20.4429H68.7151L68.6093 20.2312Z" fill="#FEFFFF"/>
<path d="M77.8896 20.2312H75.5607L77.7132 20.6194L77.8896 20.2312ZM75.5607 20.2312L77.7132 20.6194H75.2431L75.5607 20.2312Z" fill="#FEFFFF"/>
<path d="M71.1147 20.443H68.7152L71.4675 20.7959L71.1147 20.443ZM68.7152 20.443L71.4675 20.7959H68.8916L68.7152 20.443Z" fill="#FEFFFF"/>
<path d="M77.7133 20.6193H75.2432L77.5721 20.9016L77.7133 20.6193ZM75.2432 20.6193L77.5721 20.9016H74.9256L75.2432 20.6193Z" fill="#FEFFFF"/>
<path d="M71.4675 20.7958H68.8916L71.5734 20.9016L71.4675 20.7958ZM68.8916 20.7958L71.5734 20.9016H68.9269L68.8916 20.7958Z" fill="#FEFFFF"/>
<path d="M77.5721 20.9016H74.9256L77.5369 20.9722L77.5721 20.9016ZM74.9256 20.9016L77.5369 20.9722H74.8198L74.9256 20.9016Z" fill="#FEFFFF"/>
<path d="M71.5734 20.9016H68.9269L71.891 21.1133L71.5734 20.9016ZM68.9269 20.9016L71.891 21.1133H69.0681L68.9269 20.9016Z" fill="#FEFFFF"/>
<path d="M77.5369 20.9722H74.8198L77.3251 21.2192L77.5369 20.9722ZM74.8198 20.9722L77.3251 21.2192H74.3963L74.8198 20.9722Z" fill="#FEFFFF"/>
<path d="M71.8909 21.1135H69.0679L72.3496 21.3252L71.8909 21.1135ZM69.0679 21.1135L72.3496 21.3252H69.2444L69.0679 21.1135Z" fill="#FEFFFF"/>
<path d="M77.3252 21.2193H74.3964L77.2193 21.3958L77.3252 21.2193ZM74.3964 21.2193L77.2193 21.3958H73.9024L74.3964 21.2193Z" fill="#FEFFFF"/>
<path d="M72.3497 21.3253H69.2445L72.879 21.4312L72.3497 21.3253ZM69.2445 21.3253L72.879 21.4312H69.3151L69.2445 21.3253Z" fill="#FEFFFF"/>
<path d="M77.2192 21.3957H73.9023L77.1487 21.4663L77.2192 21.3957ZM73.9023 21.3957L77.1487 21.4663H73.373L73.9023 21.3957Z" fill="#FEFFFF"/>
<path d="M72.879 21.431H69.3151L73.373 21.4663L72.879 21.431ZM69.3151 21.431L73.373 21.4663H69.3504L69.3151 21.431Z" fill="#FEFFFF"/>
<path d="M77.1487 21.4664H69.3503L77.1487 21.5017V21.4664ZM69.3503 21.4664L77.1487 21.5017H69.3856L69.3503 21.4664Z" fill="#FEFFFF"/>
<path d="M77.1487 21.5015H69.3856L76.5841 22.0308L77.1487 21.5015ZM69.3856 21.5015L76.5841 22.0308H69.9149L69.3856 21.5015Z" fill="#FEFFFF"/>
<path d="M76.5841 22.0309H69.9149L75.9489 22.4543L76.5841 22.0309ZM69.9149 22.0309L75.9489 22.4543H70.5501L69.9149 22.0309Z" fill="#FEFFFF"/>
<path d="M75.949 22.4545H70.5501L75.2432 22.8074L75.949 22.4545ZM70.5501 22.4545L75.2432 22.8074H71.2911L70.5501 22.4545Z" fill="#FEFFFF"/>
<path d="M75.2432 22.8072H71.2911L74.4669 23.0542L75.2432 22.8072ZM71.2911 22.8072L74.4669 23.0542H72.0321L71.2911 22.8072Z" fill="#FEFFFF"/>
<path d="M74.4669 23.0541H72.0321L73.6553 23.1599L74.4669 23.0541ZM72.0321 23.0541L73.6553 23.1599H72.8437L72.0321 23.0541Z" fill="#FEFFFF"/>
<path d="M73.2496 21.4312C74.76 21.4312 75.9843 20.2384 75.9843 18.767C75.9843 17.2956 74.76 16.1029 73.2496 16.1029C71.7393 16.1029 70.5149 17.2956 70.5149 18.767C70.5149 20.2384 71.7393 21.4312 73.2496 21.4312Z" stroke="#FEFFFF" stroke-width="0.96" stroke-linecap="round" stroke-linejoin="round"/>
<path d="M73.2495 23.1599C75.9681 23.1599 78.172 21.193 78.172 18.7667C78.172 16.3404 75.9681 14.3735 73.2495 14.3735C70.5309 14.3735 68.327 16.3404 68.327 18.7667C68.327 21.193 70.5309 23.1599 73.2495 23.1599Z" stroke="#FEFFFF" stroke-width="0.96" stroke-linecap="round" stroke-linejoin="round"/>
</svg>
