<svg width="181" height="38" viewBox="0 0 181 38" fill="none" xmlns="http://www.w3.org/2000/svg">
<path d="M21.0379 1.3945H12.9912L22.1423 1.47339L21.0379 1.3945ZM12.9912 1.3945L22.1423 1.47339H12.9912V1.3945Z" fill="#FFFFFF"/>
<path d="M22.1424 1.47346H12.9912L23.2074 1.5918L22.1424 1.47346ZM12.9912 1.47346L23.2074 1.5918H12.9518L12.9912 1.47346Z" fill="#FFFFFF"/>
<path d="M23.2073 1.5917H12.9517L24.2723 1.82837L23.2073 1.5917ZM12.9517 1.5917L24.2723 1.82837H12.9123L12.9517 1.5917Z" fill="#FFFFFF"/>
<path d="M24.2723 1.82835H12.9122L25.2584 2.18335L24.2723 1.82835ZM12.9122 1.82835L25.2584 2.18335H12.8333L12.9122 1.82835Z" fill="#FFFFFF"/>
<path d="M25.2585 2.1835H12.8334L25.7712 2.42017L25.2585 2.1835ZM12.8334 2.1835L25.7712 2.42017H12.7939L12.8334 2.1835Z" fill="#FFFFFF"/>
<path d="M25.7713 2.42007H12.794L26.2446 2.65674L25.7713 2.42007ZM12.794 2.42007L26.2446 2.65674H12.7545L12.794 2.42007Z" fill="#FFFFFF"/>
<path d="M26.2447 2.65661H12.7546L26.6786 2.97217L26.2447 2.65661ZM12.7546 2.65661L26.6786 2.97217H12.6757L12.7546 2.65661Z" fill="#FFFFFF"/>
<path d="M26.6784 2.97239H12.6756L27.0729 3.32739L26.6784 2.97239ZM12.6756 2.97239L27.0729 3.32739H12.5967L12.6756 2.97239Z" fill="#FFFFFF"/>
<path d="M27.073 3.32737H12.5968L27.4674 3.68237L27.073 3.32737ZM12.5968 3.32737L27.4674 3.68237H12.5179L12.5968 3.32737Z" fill="#FFFFFF"/>
<path d="M27.4675 3.68221H12.518L27.8619 4.07666L27.4675 3.68221ZM12.518 3.68221L27.8619 4.07666H12.4391L12.518 3.68221Z" fill="#FFFFFF"/>
<path d="M27.8618 4.07661H12.4389L28.1774 4.5105L27.8618 4.07661ZM12.4389 4.07661L28.1774 4.5105H12.36L12.4389 4.07661Z" fill="#FFFFFF"/>
<path d="M28.1774 4.51075H12.3601L28.3746 4.78687L28.1774 4.51075ZM12.3601 4.51075L28.3746 4.78687H12.3206L12.3601 4.51075Z" fill="#FFFFFF"/>
<path d="M28.3746 4.7867H20.1701L28.4141 4.90503L28.3746 4.7867ZM20.1701 4.7867L28.4141 4.90503H21.0379L20.1701 4.7867Z" fill="#FFFFFF"/>
<path d="M18.3951 4.7867H12.3207L16.5412 4.90503L18.3951 4.7867ZM12.3207 4.7867L16.5412 4.90503H12.2812L12.3207 4.7867Z" fill="#FFFFFF"/>
<path d="M28.414 4.905H21.0379L28.4929 4.98389L28.414 4.905ZM21.0379 4.905L28.4929 4.98389H21.5112L21.0379 4.905Z" fill="#FFFFFF"/>
<path d="M28.493 4.98399H21.5113L28.5325 5.02344L28.493 4.98399ZM21.5113 4.98399L28.5325 5.02344H21.7874L21.5113 4.98399Z" fill="#FFFFFF"/>
<path d="M28.5324 5.02334H21.7874L28.6508 5.26001L28.5324 5.02334ZM21.7874 5.02334L28.6508 5.26001H22.5368L21.7874 5.02334Z" fill="#FFFFFF"/>
<path d="M28.6507 5.26005H22.5368L28.769 5.45728L28.6507 5.26005ZM22.5368 5.26005L28.769 5.45728H22.9312L22.5368 5.26005Z" fill="#FFFFFF"/>
<path d="M28.769 5.45711H22.9312L28.8085 5.57544L28.769 5.45711ZM22.9312 5.45711L28.8085 5.57544H23.1679L22.9312 5.45711Z" fill="#FFFFFF"/>
<path d="M28.8085 5.57552H23.1679L29.0057 5.96997L28.8085 5.57552ZM23.1679 5.57552L29.0057 5.96997H23.6807L23.1679 5.57552Z" fill="#FFFFFF"/>
<path d="M29.0057 5.97008H23.6807L29.0057 6.00952V5.97008ZM23.6807 5.97008L29.0057 6.00952H23.7596L23.6807 5.97008Z" fill="#FFFFFF"/>
<path d="M29.0057 6.00929H23.7596L29.0846 6.2854L29.0057 6.00929ZM23.7596 6.00929L29.0846 6.2854H23.9962L23.7596 6.00929Z" fill="#FFFFFF"/>
<path d="M29.0847 6.28565H23.9963L29.203 6.56177L29.0847 6.28565ZM23.9963 6.28565L29.203 6.56177H24.233L23.9963 6.28565Z" fill="#FFFFFF"/>
<path d="M29.203 6.56171H24.2329L29.3213 6.99561L29.203 6.56171ZM24.2329 6.56171L29.3213 6.99561H24.4696L24.2329 6.56171Z" fill="#FFFFFF"/>
<path d="M29.3213 6.99551H24.4696L29.4001 7.23218L29.3213 6.99551ZM24.4696 6.99551L29.4001 7.23218H24.6273L24.4696 6.99551Z" fill="#FFFFFF"/>
<path d="M29.4002 7.2321H24.6274L29.558 8.021L29.4002 7.2321ZM24.6274 7.2321L29.558 8.021H24.9035L24.6274 7.2321Z" fill="#FFFFFF"/>
<path d="M29.558 8.0211H24.9035L29.558 8.06055V8.0211ZM24.9035 8.0211L29.558 8.06055H24.9035V8.0211Z" fill="#FFFFFF"/>
<path d="M29.558 8.06061H24.9035L29.5974 8.81006L29.558 8.06061ZM24.9035 8.06061L29.5974 8.81006H25.1007L24.9035 8.06061Z" fill="#FFFFFF"/>
<path d="M29.5974 8.81004H25.1007L29.6368 9.16504L29.5974 8.81004ZM25.1007 8.81004L29.6368 9.16504H25.1401L25.1007 8.81004Z" fill="#FFFFFF"/>
<path d="M29.6368 9.16509H25.1401L29.5974 9.63843L29.6368 9.16509ZM25.1401 9.16509L29.5974 9.63843H25.1796L25.1401 9.16509Z" fill="#FFFFFF"/>
<path d="M29.5974 9.63842H25.1796L29.558 10.2695L29.5974 9.63842ZM25.1796 9.63842L29.558 10.2695H25.1402L25.1796 9.63842Z" fill="#FFFFFF"/>
<path d="M29.558 10.2695H25.1402L29.5185 10.4272L29.558 10.2695ZM25.1402 10.2695L29.5185 10.4272H25.1402V10.2695Z" fill="#FFFFFF"/>
<path d="M29.5186 10.4272H25.1402L29.4002 11.2161L29.5186 10.4272ZM25.1402 10.4272L29.4002 11.2161H25.0219L25.1402 10.4272Z" fill="#FFFFFF"/>
<path d="M29.4001 11.2162H25.0218L29.3607 11.374L29.4001 11.2162ZM25.0218 11.2162L29.3607 11.374H24.9823L25.0218 11.2162Z" fill="#FFFFFF"/>
<path d="M29.3607 11.3739H24.9824L29.2029 11.9656L29.3607 11.3739ZM24.9824 11.3739L29.2029 11.9656H24.7851L24.9824 11.3739Z" fill="#FFFFFF"/>
<path d="M29.203 11.9656H24.7852L29.0452 12.439L29.203 11.9656ZM24.7852 11.9656L29.0452 12.439H24.588L24.7852 11.9656Z" fill="#FFFFFF"/>
<path d="M29.0452 12.439H24.5879L28.9663 12.7151L29.0452 12.439ZM24.5879 12.439L28.9663 12.7151H24.4301L24.5879 12.439Z" fill="#FFFFFF"/>
<path d="M28.9663 12.7149H24.4302L28.6902 13.3855L28.9663 12.7149ZM24.4302 12.7149L28.6902 13.3855H23.9963L24.4302 12.7149Z" fill="#FFFFFF"/>
<path d="M28.6902 13.3857H23.9963L28.6507 13.4646L28.6902 13.3857ZM23.9963 13.3857L28.6507 13.4646H23.9568L23.9963 13.3857Z" fill="#FFFFFF"/>
<path d="M28.6508 13.4644H23.9568L28.3352 14.0166L28.6508 13.4644ZM23.9568 13.4644L28.3352 14.0166H23.4835L23.9568 13.4644Z" fill="#FFFFFF"/>
<path d="M28.3352 14.0168H23.4835L28.0985 14.4507L28.3352 14.0168ZM23.4835 14.0168L28.0985 14.4507H23.0496L23.4835 14.0168Z" fill="#FFFFFF"/>
<path d="M28.0985 14.4507H23.0496L28.0591 14.5295L28.0985 14.4507ZM23.0496 14.4507L28.0591 14.5295H22.9313L23.0496 14.4507Z" fill="#FFFFFF"/>
<path d="M28.0591 14.5295H22.9313L27.7435 14.9634L28.0591 14.5295ZM22.9313 14.5295L27.7435 14.9634H22.3002L22.9313 14.5295Z" fill="#FFFFFF"/>
<path d="M27.7434 14.9634H22.3L27.5067 15.3184L27.7434 14.9634ZM22.3 14.9634L27.5067 15.3184H21.6295L22.3 14.9634Z" fill="#FFFFFF"/>
<path d="M27.4674 15.3184H21.5901L27.2702 15.5945L27.4674 15.3184ZM21.5901 15.3184L27.2702 15.5945H20.9196L21.5901 15.3184Z" fill="#FFFFFF"/>
<path d="M27.2701 15.5945H20.9195L27.0729 15.7917L27.2701 15.5945ZM20.9195 15.5945L27.0729 15.7917H20.1701L20.9195 15.5945Z" fill="#FFFFFF"/>
<path d="M27.0729 15.7917H20.1701L26.9151 15.9495L27.0729 15.7917ZM20.1701 15.7917L26.9151 15.9495H19.3812L20.1701 15.7917Z" fill="#FFFFFF"/>
<path d="M26.9152 15.9495H19.3812L26.8363 16.0679L26.9152 15.9495ZM19.3812 15.9495L26.8363 16.0679H18.5923L19.3812 15.9495Z" fill="#FFFFFF"/>
<path d="M26.8363 16.0678H18.5924L26.7969 16.1467L26.8363 16.0678ZM18.5924 16.0678L26.7969 16.1467H17.7246L18.5924 16.0678Z" fill="#FFFFFF"/>
<path d="M16.5413 4.90499H12.2812L14.2535 16.1467L16.5413 4.90499ZM12.2812 4.90499L14.2535 16.1467H10.0329L12.2812 4.90499Z" fill="#FFFFFF"/>
<path d="M26.7573 16.1467H9.99333L25.9684 16.8567L26.7573 16.1467ZM9.99333 16.1467L25.9684 16.8567H9.875L9.99333 16.1467Z" fill="#FFFFFF"/>
<path d="M25.9685 16.8567H9.87507L25.1007 17.4878L25.9685 16.8567ZM9.87507 16.8567L25.1007 17.4878H9.75674L9.87507 16.8567Z" fill="#FFFFFF"/>
<path d="M25.1007 17.4878H9.75673L24.154 18.04L25.1007 17.4878ZM9.75673 17.4878L24.154 18.04H9.63839L9.75673 17.4878Z" fill="#FFFFFF"/>
<path d="M24.1541 18.0401H9.63841L23.1679 18.4346L24.1541 18.0401ZM9.63841 18.0401L23.1679 18.4346H9.55952L9.63841 18.0401Z" fill="#FFFFFF"/>
<path d="M23.168 18.4344H9.55955L22.1424 18.75L23.168 18.4344ZM9.55955 18.4344L22.1424 18.75H9.48066L9.55955 18.4344Z" fill="#FFFFFF"/>
<path d="M22.1423 18.7503H9.48059L21.0773 19.0264L22.1423 18.7503ZM9.48059 18.7503L21.0773 19.0264H9.44115L9.48059 18.7503Z" fill="#FFFFFF"/>
<path d="M21.0774 19.0263H9.44121L20.0518 19.1841L21.0774 19.0263ZM9.44121 19.0263L20.0518 19.1841H9.40176L9.44121 19.0263Z" fill="#FFFFFF"/>
<path d="M20.0518 19.1842H9.40169L18.9868 19.3025L20.0518 19.1842ZM9.40169 19.1842L18.9868 19.3025H9.36225L9.40169 19.1842Z" fill="#FFFFFF"/>
<path d="M18.9868 19.3022H9.36231L17.8824 19.3811L18.9868 19.3022ZM9.36231 19.3022L17.8824 19.3811H9.36231V19.3022Z" fill="#FFFFFF"/>
<path d="M13.6222 19.3812H17.1328L15.7522 19.4207L13.6222 19.3812Z" fill="#FFFFFF"/>
<path d="M83.676 25.4952L87.2655 25.5347H80.0471L83.676 25.4952Z" fill="#FFFFFF"/>
<path d="M90.855 25.5348H76.4577L94.4445 25.5742L90.855 25.5348ZM76.4577 25.5348L94.4445 25.5742H72.8682L76.4577 25.5348Z" fill="#FFFFFF"/>
<path d="M94.4445 25.5741H72.8682L98.0339 25.6135L94.4445 25.5741ZM72.8682 25.5741L98.0339 25.6135H69.3182L72.8682 25.5741Z" fill="#FFFFFF"/>
<path d="M98.0339 25.6134H69.3181L101.544 25.6528L98.0339 25.6134ZM69.3181 25.6134L101.544 25.6528H65.7681L69.3181 25.6134Z" fill="#FFFFFF"/>
<path d="M101.545 25.6529H65.7683L105.055 25.6924L101.545 25.6529ZM65.7683 25.6529L105.055 25.6924H62.2577L65.7683 25.6529Z" fill="#FFFFFF"/>
<path d="M105.055 25.6924H62.2576L108.526 25.7712L105.055 25.6924ZM62.2576 25.6924L108.526 25.7712H58.7865L62.2576 25.6924Z" fill="#FFFFFF"/>
<path d="M108.526 25.7712H58.7866L111.958 25.8501L108.526 25.7712ZM58.7866 25.7712L111.958 25.8501H55.3943L58.7866 25.7712Z" fill="#FFFFFF"/>
<path d="M111.958 25.8501H55.3943L115.311 25.929L111.958 25.8501ZM55.3943 25.8501L115.311 25.929H52.0415L55.3943 25.8501Z" fill="#FFFFFF"/>
<path d="M115.311 25.929H52.0414L118.585 26.0474L115.311 25.929ZM52.0414 25.929L118.585 26.0474H48.7281L52.0414 25.929Z" fill="#FFFFFF"/>
<path d="M118.585 26.0473H48.7281L121.819 26.1262L118.585 26.0473ZM48.7281 26.0473L121.819 26.1262H45.4936L48.7281 26.0473Z" fill="#FFFFFF"/>
<path d="M121.819 26.1263H45.4936L125.014 26.2446L121.819 26.1263ZM45.4936 26.1263L125.014 26.2446H42.338L45.4936 26.1263Z" fill="#FFFFFF"/>
<path d="M125.014 26.2445H42.3381L128.091 26.3628L125.014 26.2445ZM42.3381 26.2445L128.091 26.3628H39.2614L42.3381 26.2445Z" fill="#FFFFFF"/>
<path d="M128.091 26.363H39.2614L131.089 26.5208L128.091 26.363ZM39.2614 26.363L131.089 26.5208H36.2636L39.2614 26.363Z" fill="#FFFFFF"/>
<path d="M131.089 26.5208H36.2635L134.007 26.6392L131.089 26.5208ZM36.2635 26.5208L134.007 26.6392H33.3446L36.2635 26.5208Z" fill="#FFFFFF"/>
<path d="M134.008 26.6391H33.3447L136.808 26.7969L134.008 26.6391ZM33.3447 26.6391L136.808 26.7969H30.5441L33.3447 26.6391Z" fill="#FFFFFF"/>
<path d="M136.808 26.7968H30.544L139.53 26.9546L136.808 26.7968ZM30.544 26.7968L139.53 26.9546H27.8223L30.544 26.7968Z" fill="#FFFFFF"/>
<path d="M139.53 26.9545H27.8224L139.924 26.9939L139.53 26.9545ZM27.8224 26.9545L139.924 26.9939H27.3885L27.8224 26.9545Z" fill="#FFFFFF"/>
<path d="M77.4438 26.9942H27.2308L73.8938 27.0337L77.4438 26.9942ZM27.2308 26.9942L73.8938 27.0337H26.9546L27.2308 26.9942Z" fill="#FFFFFF"/>
<path d="M140.24 26.9942H91.6833L140.555 27.0337L140.24 26.9942ZM91.6833 26.9942L140.555 27.0337H95.1939L91.6833 26.9942Z" fill="#FFFFFF"/>
<path d="M140.555 27.0336H95.1938L141.029 27.073L140.555 27.0336ZM95.1938 27.0336L141.029 27.073H98.7044L95.1938 27.0336Z" fill="#FFFFFF"/>
<path d="M70.3832 27.0336H26.5601L66.8726 27.073L70.3832 27.0336ZM26.5601 27.0336L66.8726 27.073H26.0473L26.5601 27.0336Z" fill="#FFFFFF"/>
<path d="M141.029 27.0729H98.7044L141.581 27.1123L141.029 27.0729ZM98.7044 27.0729L141.581 27.1123H102.215L98.7044 27.0729Z" fill="#FFFFFF"/>
<path d="M66.8727 27.0729H26.0474L63.4015 27.1123L66.8727 27.0729ZM26.0474 27.0729L63.4015 27.1123H25.3769L26.0474 27.0729Z" fill="#FFFFFF"/>
<path d="M141.581 27.1124H102.215L142.133 27.1519L141.581 27.1124ZM102.215 27.1124L142.133 27.1519H104.779L102.215 27.1124Z" fill="#FFFFFF"/>
<path d="M63.4016 27.1124H25.3769L62.5338 27.1519L63.4016 27.1124ZM25.3769 27.1124L62.5338 27.1519H25.2192L25.3769 27.1124Z" fill="#FFFFFF"/>
<path d="M142.291 27.1517H105.647L143.04 27.1912L142.291 27.1517ZM105.647 27.1517L143.04 27.1912H109.078L105.647 27.1517Z" fill="#FFFFFF"/>
<path d="M59.9698 27.1518H24.7063L56.5776 27.2307L59.9698 27.1518ZM24.7063 27.1518L56.5776 27.2307H23.878L24.7063 27.1518Z" fill="#FFFFFF"/>
<path d="M143.04 27.1914H109.078L143.869 27.2703L143.04 27.1914ZM109.078 27.1914L143.869 27.2703H112.431L109.078 27.1914Z" fill="#FFFFFF"/>
<path d="M56.5775 27.2308H23.8779L53.2642 27.2703L56.5775 27.2308ZM23.8779 27.2308L53.2642 27.2703H22.9706L23.8779 27.2308Z" fill="#FFFFFF"/>
<path d="M143.869 27.2701H112.431L144.618 27.3096L143.869 27.2701ZM112.431 27.2701L144.618 27.3096H114.956L112.431 27.2701Z" fill="#FFFFFF"/>
<path d="M53.2642 27.2701H22.9706L52.3569 27.3096L53.2642 27.2701ZM22.9706 27.2701L52.3569 27.3096H22.6945L22.9706 27.2701Z" fill="#FFFFFF"/>
<path d="M52.3569 27.3097H22.6945L49.9903 27.3491L52.3569 27.3097ZM22.6945 27.3097L49.9903 27.3491H22.024L22.6945 27.3097Z" fill="#FFFFFF"/>
<path d="M144.815 27.3095H115.705L145.762 27.3884L144.815 27.3095ZM115.705 27.3095L145.762 27.3884H118.979L115.705 27.3095Z" fill="#FFFFFF"/>
<path d="M49.9902 27.3491H22.024L46.7558 27.428L49.9902 27.3491ZM22.024 27.3491L46.7558 27.428H21.0378L22.024 27.3491Z" fill="#FFFFFF"/>
<path d="M145.762 27.3886H118.979L146.827 27.4675L145.762 27.3886ZM118.979 27.3886L146.827 27.4675H122.135L118.979 27.3886Z" fill="#FFFFFF"/>
<path d="M146.827 27.4674H122.135L146.985 27.5068L146.827 27.4674ZM122.135 27.4674L146.985 27.5068H122.529L122.135 27.4674Z" fill="#FFFFFF"/>
<path d="M46.7559 27.4279H21.0379L44.8231 27.5068L46.7559 27.4279ZM21.0379 27.4279L44.8231 27.5068H20.3279L21.0379 27.4279Z" fill="#FFFFFF"/>
<path d="M146.985 27.5068H122.529L147.892 27.5857L146.985 27.5068ZM122.529 27.5068L147.892 27.5857H125.211L122.529 27.5068Z" fill="#FFFFFF"/>
<path d="M43.6398 27.5069H19.973L40.5631 27.6252L43.6398 27.5069ZM19.973 27.5069L40.5631 27.6252H18.8685L19.973 27.5069Z" fill="#FFFFFF"/>
<path d="M147.892 27.5857H125.211L149.036 27.6646L147.892 27.5857ZM125.211 27.5857L149.036 27.6646H128.249L125.211 27.5857Z" fill="#FFFFFF"/>
<path d="M40.563 27.6251H18.8684L38.5908 27.6646L40.563 27.6251ZM18.8684 27.6251L38.5908 27.6646H18.0795L18.8684 27.6251Z" fill="#FFFFFF"/>
<path d="M38.5908 27.6647H18.0796L37.6047 27.7041L38.5908 27.6647ZM18.0796 27.6647L37.6047 27.7041H17.7246L18.0796 27.6647Z" fill="#FFFFFF"/>
<path d="M149.233 27.6648H128.761L150.18 27.7437L149.233 27.6648ZM128.761 27.6648L150.18 27.7437H131.167L128.761 27.6648Z" fill="#FFFFFF"/>
<path d="M37.6047 27.7039H17.7246L34.7253 27.8223L37.6047 27.7039ZM17.7246 27.7039L34.7253 27.8223H16.5807L17.7246 27.7039Z" fill="#FFFFFF"/>
<path d="M150.18 27.7435H131.167L151.363 27.8618L150.18 27.7435ZM131.167 27.7435L151.363 27.8618H134.007L131.167 27.7435ZM151.363 27.8618H134.007H134.086H151.363Z" fill="#FFFFFF"/>
<path d="M34.7252 27.8224H16.5807L33.2658 27.8618L34.7252 27.8224ZM16.5807 27.8224L33.2658 27.8618H15.9495L16.5807 27.8224Z" fill="#FFFFFF"/>
<path d="M33.2657 27.862H15.9495L31.9246 27.9409L33.2657 27.862ZM15.9495 27.862L31.9246 27.9409H15.4367L15.9495 27.862Z" fill="#FFFFFF"/>
<path d="M151.363 27.8619H134.086L152.468 27.9802L151.363 27.8619ZM134.086 27.8619L152.468 27.9802H136.769L134.086 27.8619Z" fill="#FFFFFF"/>
<path d="M31.9247 27.9407H15.4368L29.2424 28.0591L31.9247 27.9407ZM15.4368 27.9407L29.2424 28.0591H14.2535L15.4368 27.9407Z" fill="#FFFFFF"/>
<path d="M152.468 27.9802H136.769L153.375 28.0591L152.468 27.9802ZM136.769 27.9802L153.375 28.0591H138.741L136.769 27.9802Z" fill="#FFFFFF"/>
<path d="M153.375 28.0589H138.741L153.651 28.0984L153.375 28.0589ZM138.741 28.0589L153.651 28.0984H139.411L138.741 28.0589Z" fill="#FFFFFF"/>
<path d="M28.5718 28.0592H13.9378L26.639 28.1775L28.5718 28.0592ZM13.9378 28.0592L26.639 28.1775H13.1095L13.9378 28.0592Z" fill="#FFFFFF"/>
<path d="M153.651 28.0985H139.411L154.795 28.2168L153.651 28.0985ZM139.411 28.0985L154.795 28.2168H141.936L139.411 28.0985Z" fill="#FFFFFF"/>
<path d="M154.795 28.2168H141.936L155.268 28.2957L154.795 28.2168ZM141.936 28.2168L155.268 28.2957H142.883L141.936 28.2168Z" fill="#FFFFFF"/>
<path d="M26.639 28.1773H13.1095L24.4301 28.2957L26.639 28.1773ZM13.1095 28.1773L24.4301 28.2957H12.0839L13.1095 28.1773Z" fill="#FFFFFF"/>
<path d="M155.268 28.2959H142.883L155.899 28.3748L155.268 28.2959ZM142.883 28.2959L155.899 28.3748H144.342L142.883 28.2959Z" fill="#FFFFFF"/>
<path d="M24.1541 28.2957H11.9656L21.7874 28.4141L24.1541 28.2957ZM11.9656 28.2957L21.7874 28.4141H10.8612L11.9656 28.2957Z" fill="#FFFFFF"/>
<path d="M155.899 28.3746H144.342L157.004 28.4929L155.899 28.3746ZM144.342 28.3746L157.004 28.4929H146.59L144.342 28.3746Z" fill="#FFFFFF"/>
<path d="M21.7874 28.414H10.8612L20.7223 28.4929L21.7874 28.414ZM10.8612 28.414L20.7223 28.4929H10.3484L10.8612 28.414Z" fill="#FFFFFF"/>
<path d="M20.7223 28.4931H10.3483L19.5784 28.572L20.7223 28.4931ZM10.3483 28.4931L19.5784 28.572H9.79611L10.3483 28.4931Z" fill="#FFFFFF"/>
<path d="M157.004 28.4929H146.669L158.069 28.6506L157.004 28.4929ZM146.669 28.4929L158.069 28.6506H148.839L146.669 28.4929Z" fill="#FFFFFF"/>
<path d="M19.5785 28.5719H9.79621L17.4485 28.6902L19.5785 28.5719ZM9.79621 28.5719L17.4485 28.6902H8.7312L9.79621 28.5719Z" fill="#FFFFFF"/>
<path d="M158.069 28.6506H148.839L158.582 28.7295L158.069 28.6506ZM148.839 28.6506L158.582 28.7295H149.864L148.839 28.6506Z" fill="#FFFFFF"/>
<path d="M17.4484 28.69H8.73109L17.4484 28.7295V28.69ZM8.73109 28.69L17.4484 28.7295H8.73109V28.69Z" fill="#FFFFFF"/>
<path d="M158.581 28.7298H149.864L159.055 28.7693L158.581 28.7298ZM149.864 28.7298L159.055 28.7693H150.89L149.864 28.7298Z" fill="#FFFFFF"/>
<path d="M17.4484 28.7296H8.73109L15.4367 28.8479L17.4484 28.7296ZM8.73109 28.7296L15.4367 28.8479H7.78442L8.73109 28.7296Z" fill="#FFFFFF"/>
<path d="M159.055 28.769H150.89L160.041 28.9268L159.055 28.769ZM150.89 28.769L160.041 28.9268H152.823L150.89 28.769Z" fill="#FFFFFF"/>
<path d="M15.4368 28.8479H7.7845L14.5295 28.9268L15.4368 28.8479ZM7.7845 28.8479L14.5295 28.9268H7.27172L7.7845 28.8479Z" fill="#FFFFFF"/>
<path d="M14.5295 28.927H7.27172L13.5829 29.0059L14.5295 28.927ZM7.27172 28.927L13.5829 29.0059H6.83783L7.27172 28.927Z" fill="#FFFFFF"/>
<path d="M160.041 28.9269H152.823L160.948 29.0847L160.041 28.9269ZM152.823 28.9269L160.948 29.0847H154.598L152.823 28.9269Z" fill="#FFFFFF"/>
<path d="M160.948 29.0847H154.598L161.343 29.1636L160.948 29.0847ZM154.598 29.0847L161.343 29.1636H155.347L154.598 29.0847Z" fill="#FFFFFF"/>
<path d="M13.5828 29.0058H6.83772L11.9655 29.1636L13.5828 29.0058ZM6.83772 29.0058L11.9655 29.1636H5.96994L6.83772 29.0058Z" fill="#FFFFFF"/>
<path d="M161.343 29.1635H155.347L161.777 29.2424L161.343 29.1635ZM155.347 29.1635L161.777 29.2424H156.254L155.347 29.1635Z" fill="#FFFFFF"/>
<path d="M11.8867 29.1635H5.93057L10.2695 29.3213L11.8867 29.1635ZM5.93057 29.1635L10.2695 29.3213H5.14168L5.93057 29.1635Z" fill="#FFFFFF"/>
<path d="M161.777 29.2424H156.254L162.526 29.4001L161.777 29.2424ZM156.254 29.2424L162.526 29.4001H157.596L156.254 29.2424Z" fill="#FFFFFF"/>
<path d="M10.2695 29.3213H5.14172L9.75675 29.4001L10.2695 29.3213ZM5.14172 29.3213L9.75675 29.4001H4.82616L5.14172 29.3213Z" fill="#FFFFFF"/>
<path d="M9.75671 29.4001H4.82613L8.84949 29.479L9.75671 29.4001ZM4.82613 29.4001L8.84949 29.479H4.39224L4.82613 29.4001Z" fill="#FFFFFF"/>
<path d="M162.605 29.4001H157.793L163.315 29.5579L162.605 29.4001ZM157.793 29.4001L163.315 29.5579H159.173L157.793 29.4001Z" fill="#FFFFFF"/>
<path d="M163.315 29.5578H159.173L163.512 29.6367L163.315 29.5578ZM159.173 29.5578L163.512 29.6367H159.489L159.173 29.5578Z" fill="#FFFFFF"/>
<path d="M8.84949 29.4789H4.39224L7.82393 29.6367L8.84949 29.4789ZM4.39224 29.4789L7.82393 29.6367H3.80057L4.39224 29.4789Z" fill="#FFFFFF"/>
<path d="M163.512 29.6368H159.489L163.946 29.7551L163.512 29.6368ZM159.489 29.6368L163.946 29.7551H160.396L159.489 29.6368Z" fill="#FFFFFF"/>
<path d="M7.54785 29.6368H3.68227L6.40396 29.834L7.54785 29.6368ZM3.68227 29.6368L6.40396 29.834H3.05116L3.68227 29.6368Z" fill="#FFFFFF"/>
<path d="M163.946 29.7551H160.396L164.38 29.834L163.946 29.7551ZM160.396 29.7551L164.38 29.834H161.106L160.396 29.7551Z" fill="#FFFFFF"/>
<path d="M164.38 29.8342H161.106L164.538 29.9131L164.38 29.8342ZM161.106 29.8342L164.538 29.9131H161.461L161.106 29.8342Z" fill="#FFFFFF"/>
<path d="M6.20667 29.8342H2.9722L5.37833 29.9919L6.20667 29.8342ZM2.9722 29.8342L5.37833 29.9919H2.53831L2.9722 29.8342Z" fill="#FFFFFF"/>
<path d="M164.538 29.9128H161.461L165.05 30.0706L164.538 29.9128ZM161.461 29.9128L165.05 30.0706H162.408L161.461 29.9128Z" fill="#FFFFFF"/>
<path d="M5.37842 29.9917H2.5384L4.90508 30.0706L5.37842 29.9917ZM2.5384 29.9917L4.90508 30.0706H2.26229L2.5384 29.9917Z" fill="#FFFFFF"/>
<path d="M4.90503 30.0708H2.26224L4.51058 30.1497L4.90503 30.0708ZM2.26224 30.0708L4.51058 30.1497H2.06501L2.26224 30.0708Z" fill="#FFFFFF"/>
<path d="M165.09 30.0706H162.447L165.445 30.2678L165.09 30.0706ZM162.447 30.0706L165.445 30.2678H163.157L162.447 30.0706Z" fill="#FFFFFF"/>
<path d="M165.445 30.268H163.157L165.642 30.3469L165.445 30.268ZM163.157 30.268L165.642 30.3469H163.433L163.157 30.268Z" fill="#FFFFFF"/>
<path d="M4.51062 30.1497H2.06505L3.87951 30.3469L4.51062 30.1497ZM2.06505 30.1497L3.87951 30.3469H1.71005L2.06505 30.1497Z" fill="#FFFFFF"/>
<path d="M165.642 30.3469H163.433L165.8 30.4258L165.642 30.3469ZM163.433 30.3469L165.8 30.4258H163.788L163.433 30.3469Z" fill="#FFFFFF"/>
<path d="M3.83997 30.3469H1.67051L3.28774 30.5046L3.83997 30.3469ZM1.67051 30.3469L3.28774 30.5046H1.3944L1.67051 30.3469Z" fill="#FFFFFF"/>
<path d="M165.8 30.4257H163.788L166.036 30.5835L165.8 30.4257ZM163.788 30.4257L166.036 30.5835H164.143L163.788 30.4257Z" fill="#FFFFFF"/>
<path d="M3.28772 30.5046H1.39437L3.16939 30.5835L3.28772 30.5046ZM1.39437 30.5046L3.16939 30.5835H1.31549L1.39437 30.5046Z" fill="#FFFFFF"/>
<path d="M166.036 30.5836H164.143L166.036 30.623V30.5836ZM164.143 30.5836L166.036 30.623H164.261L164.143 30.5836Z" fill="#FFFFFF"/>
<path d="M3.16943 30.5833H1.31553L2.89332 30.7017L3.16943 30.5833ZM1.31553 30.5833L2.89332 30.7017H1.1972L1.31553 30.5833Z" fill="#FFFFFF"/>
<path d="M166.037 30.623H164.262L166.234 30.7808L166.037 30.623ZM164.262 30.623L166.234 30.7808H164.577L164.262 30.623Z" fill="#FFFFFF"/>
<path d="M166.234 30.7809H164.577L166.273 30.8203L166.234 30.7809ZM164.577 30.7809L166.273 30.8203H164.577V30.7809Z" fill="#FFFFFF"/>
<path d="M2.89343 30.702H1.19731L2.73565 30.8203L2.89343 30.702ZM1.19731 30.702L2.73565 30.8203H1.07898L1.19731 30.702Z" fill="#FFFFFF"/>
<path d="M2.7356 30.8202H1.07892L2.65671 30.8596L2.7356 30.8202ZM1.07892 30.8202L2.65671 30.8596H1.03947L1.07892 30.8202Z" fill="#FFFFFF"/>
<path d="M166.273 30.8202H164.577L166.313 30.978L166.273 30.8202ZM164.577 30.8202L166.313 30.978H164.735L164.577 30.8202Z" fill="#FFFFFF"/>
<path d="M166.313 30.978H164.735L166.352 31.0569L166.313 30.978ZM164.735 30.978L166.352 31.0569H164.735V30.978Z" fill="#FFFFFF"/>
<path d="M2.65674 30.8597H1.03951L2.57785 31.0569L2.65674 30.8597ZM1.03951 30.8597L2.57785 31.0569H1.00006L1.03951 30.8597Z" fill="#FFFFFF"/>
<path d="M166.352 31.0569H164.735L166.313 31.1357L166.352 31.0569ZM164.735 31.0569L166.313 31.1357H164.735V31.0569Z" fill="#FFFFFF"/>
<path d="M2.57785 31.0568H1.00006L2.65674 31.2146L2.57785 31.0568ZM1.00006 31.0568L2.65674 31.2146H1.03951L1.00006 31.0568Z" fill="#FFFFFF"/>
<path d="M166.313 31.1357H164.735L166.273 31.2935L166.313 31.1357ZM164.735 31.1357L166.273 31.2935H164.577L164.735 31.1357Z" fill="#FFFFFF"/>
<path d="M2.65671 31.2146H1.03947L2.7356 31.2935L2.65671 31.2146ZM1.03947 31.2146L2.7356 31.2935H1.07892L1.03947 31.2146Z" fill="#FFFFFF"/>
<path d="M166.273 31.2936H164.577L166.234 31.333L166.273 31.2936ZM164.577 31.2936L166.234 31.333H164.577V31.2936Z" fill="#FFFFFF"/>
<path d="M2.73565 31.2935H1.07898L2.89343 31.4119L2.73565 31.2935ZM1.07898 31.2935L2.89343 31.4119H1.19731L1.07898 31.2935Z" fill="#FFFFFF"/>
<path d="M166.234 31.3329H164.577L166.037 31.4907L166.234 31.3329ZM164.577 31.3329L166.037 31.4907H164.262L164.577 31.3329Z" fill="#FFFFFF"/>
<path d="M166.036 31.4906H164.261L166.036 31.53V31.4906ZM164.261 31.4906L166.036 31.53H164.143L164.261 31.4906Z" fill="#FFFFFF"/>
<path d="M2.89332 31.4117H1.1972L3.16943 31.53L2.89332 31.4117ZM1.1972 31.4117L3.16943 31.53H1.31553L1.1972 31.4117Z" fill="#FFFFFF"/>
<path d="M3.16939 31.5301H1.31549L3.28772 31.5696L3.16939 31.5301ZM1.31549 31.5301L3.28772 31.5696H1.39437L1.31549 31.5301Z" fill="#FFFFFF"/>
<path d="M166.036 31.5302H164.143L165.8 31.688L166.036 31.5302ZM164.143 31.5302L165.8 31.688H163.788L164.143 31.5302Z" fill="#FFFFFF"/>
<path d="M3.28774 31.5696H1.3944L3.83997 31.7668L3.28774 31.5696ZM1.3944 31.5696L3.83997 31.7668H1.67051L1.3944 31.5696Z" fill="#FFFFFF"/>
<path d="M165.8 31.688H163.788L165.642 31.7668L165.8 31.688ZM163.788 31.688L165.642 31.7668H163.433L163.788 31.688Z" fill="#FFFFFF"/>
<path d="M165.642 31.7668H163.433L165.445 31.8457L165.642 31.7668ZM163.433 31.7668L165.445 31.8457H163.157L163.433 31.7668Z" fill="#FFFFFF"/>
<path d="M3.87951 31.7668H1.71005L4.51062 31.9246L3.87951 31.7668ZM1.71005 31.7668L4.51062 31.9246H2.06505L1.71005 31.7668Z" fill="#FFFFFF"/>
<path d="M165.445 31.8456H163.157L165.09 32.0034L165.445 31.8456ZM163.157 31.8456L165.09 32.0034H162.447L163.157 31.8456Z" fill="#FFFFFF"/>
<path d="M4.51058 31.9245H2.06501L4.90503 32.0034L4.51058 31.9245ZM2.06501 31.9245L4.90503 32.0034H2.26224L2.06501 31.9245Z" fill="#FFFFFF"/>
<path d="M165.09 32.0035H162.447L165.05 32.043L165.09 32.0035ZM162.447 32.0035L165.05 32.043H162.408L162.447 32.0035Z" fill="#FFFFFF"/>
<path d="M4.90508 32.0035H2.26229L5.37842 32.1218L4.90508 32.0035ZM2.26229 32.0035L5.37842 32.1218H2.5384L2.26229 32.0035Z" fill="#FFFFFF"/>
<path d="M165.05 32.0429H162.408L164.538 32.2007L165.05 32.0429ZM162.408 32.0429L164.538 32.2007H161.461L162.408 32.0429Z" fill="#FFFFFF"/>
<path d="M164.538 32.2005H161.461L164.38 32.24L164.538 32.2005ZM161.461 32.2005L164.38 32.24H161.106L161.461 32.2005Z" fill="#FFFFFF"/>
<path d="M5.37833 32.1217H2.53831L6.20667 32.24L5.37833 32.1217ZM2.53831 32.1217L6.20667 32.24H2.9722L2.53831 32.1217Z" fill="#FFFFFF"/>
<path d="M6.20671 32.2403H2.97224L6.40393 32.2798L6.20671 32.2403ZM2.97224 32.2403L6.40393 32.2798H3.05113L2.97224 32.2403Z" fill="#FFFFFF"/>
<path d="M164.38 32.2401H161.106L163.946 32.3584L164.38 32.2401ZM161.106 32.2401L163.946 32.3584H160.396L161.106 32.2401Z" fill="#FFFFFF"/>
<path d="M6.40396 32.2795H3.05116L7.54785 32.4373L6.40396 32.2795ZM3.05116 32.2795L7.54785 32.4373H3.68227L3.05116 32.2795Z" fill="#FFFFFF"/>
<path d="M163.946 32.3587H160.396L163.512 32.4771L163.946 32.3587ZM160.396 32.3587L163.512 32.4771H159.489L160.396 32.3587Z" fill="#FFFFFF"/>
<path d="M7.54786 32.4376H3.68228L7.82397 32.4771L7.54786 32.4376ZM3.68228 32.4376L7.82397 32.4771H3.80062L3.68228 32.4376Z" fill="#FFFFFF"/>
<path d="M163.512 32.4769H159.489L163.315 32.5164L163.512 32.4769ZM159.489 32.4769L163.315 32.5164H159.173L159.489 32.4769Z" fill="#FFFFFF"/>
<path d="M7.82393 32.4767H3.80057L8.84949 32.6345L7.82393 32.4767ZM3.80057 32.4767L8.84949 32.6345H4.39224L3.80057 32.4767Z" fill="#FFFFFF"/>
<path d="M163.315 32.5164H159.173L162.605 32.7136L163.315 32.5164ZM159.173 32.5164L162.605 32.7136H157.793L159.173 32.5164Z" fill="#FFFFFF"/>
<path d="M8.84949 32.6347H4.39224L9.75671 32.7136L8.84949 32.6347ZM4.39224 32.6347L9.75671 32.7136H4.82613L4.39224 32.6347Z" fill="#FFFFFF"/>
<path d="M9.75675 32.7136H4.82616L10.2695 32.7925L9.75675 32.7136ZM4.82616 32.7136L10.2695 32.7925H5.14172L4.82616 32.7136Z" fill="#FFFFFF"/>
<path d="M162.526 32.7136H157.596L161.777 32.8713L162.526 32.7136ZM157.596 32.7136L161.777 32.8713H156.254L157.596 32.7136Z" fill="#FFFFFF"/>
<path d="M10.2695 32.7924H5.14168L11.8867 32.9502L10.2695 32.7924ZM5.14168 32.7924L11.8867 32.9502H5.93057L5.14168 32.7924Z" fill="#FFFFFF"/>
<path d="M161.777 32.8713H156.254L161.343 32.9502L161.777 32.8713ZM156.254 32.8713L161.343 32.9502H155.347L156.254 32.8713Z" fill="#FFFFFF"/>
<path d="M161.343 32.9502H155.347L160.948 33.0291L161.343 32.9502ZM155.347 32.9502L160.948 33.0291H154.598L155.347 32.9502Z" fill="#FFFFFF"/>
<path d="M11.9655 32.9501H5.96994L13.5828 33.1079L11.9655 32.9501ZM5.96994 32.9501L13.5828 33.1079H6.83772L5.96994 32.9501Z" fill="#FFFFFF"/>
<path d="M160.948 33.0292H154.598L160.041 33.187L160.948 33.0292ZM154.598 33.0292L160.041 33.187H152.823L154.598 33.0292Z" fill="#FFFFFF"/>
<path d="M13.5829 33.1081H6.83783L14.5295 33.187L13.5829 33.1081ZM6.83783 33.1081L14.5295 33.187H7.27172L6.83783 33.1081Z" fill="#FFFFFF"/>
<path d="M14.5295 33.1867H7.27172L15.4368 33.2656L14.5295 33.1867ZM7.27172 33.1867L15.4368 33.2656H7.7845L7.27172 33.1867Z" fill="#FFFFFF"/>
<path d="M160.041 33.1868H152.823L159.055 33.3052L160.041 33.1868ZM152.823 33.1868L159.055 33.3052H150.89L152.823 33.1868Z" fill="#FFFFFF"/>
<path d="M159.055 33.3051H150.89L158.581 33.384L159.055 33.3051ZM150.89 33.3051L158.581 33.384H149.864L150.89 33.3051Z" fill="#FFFFFF"/>
<path d="M15.4367 33.2657H7.78442L17.4484 33.384L15.4367 33.2657ZM7.78442 33.2657L17.4484 33.384H8.73109L7.78442 33.2657Z" fill="#FFFFFF"/>
<path d="M158.582 33.384H149.864L158.069 33.4629L158.582 33.384ZM149.864 33.384L158.069 33.4629H148.839L149.864 33.384Z" fill="#FFFFFF"/>
<path d="M17.4485 33.3842H8.7312L19.5785 33.542L17.4485 33.3842ZM8.7312 33.3842L19.5785 33.542H9.79621L8.7312 33.3842Z" fill="#FFFFFF"/>
<path d="M158.069 33.4631H148.839L157.004 33.6208L158.069 33.4631ZM148.839 33.4631L157.004 33.6208H146.669L148.839 33.4631ZM157.004 33.6208H146.669H146.59H157.004Z" fill="#FFFFFF"/>
<path d="M19.5784 33.542H9.79611L20.7223 33.6208L19.5784 33.542ZM9.79611 33.542L20.7223 33.6208H10.3483L9.79611 33.542Z" fill="#FFFFFF"/>
<path d="M20.7223 33.6207H10.3484L21.7874 33.6602L20.7223 33.6207ZM10.3484 33.6207L21.7874 33.6602H10.8612L10.3484 33.6207Z" fill="#FFFFFF"/>
<path d="M157.004 33.6207H146.59L155.899 33.739L157.004 33.6207ZM146.59 33.6207L155.899 33.739H144.342L146.59 33.6207Z" fill="#FFFFFF"/>
<path d="M21.7874 33.6603H10.8612L24.1541 33.8181L21.7874 33.6603ZM10.8612 33.6603L24.1541 33.8181H11.9656L10.8612 33.6603Z" fill="#FFFFFF"/>
<path d="M155.899 33.7392H144.342L155.268 33.8181L155.899 33.7392ZM144.342 33.7392L155.268 33.8181H142.883L144.342 33.7392Z" fill="#FFFFFF"/>
<path d="M155.268 33.818H142.883L154.795 33.8574L155.268 33.818ZM142.883 33.818L154.795 33.8574H141.936L142.883 33.818Z" fill="#FFFFFF"/>
<path d="M24.4301 33.8179H12.0839L26.639 33.9363L24.4301 33.8179ZM12.0839 33.8179L26.639 33.9363H13.1095L12.0839 33.8179Z" fill="#FFFFFF"/>
<path d="M154.795 33.8574H141.936L153.651 34.0151L154.795 33.8574ZM141.936 33.8574L153.651 34.0151H139.411L141.936 33.8574Z" fill="#FFFFFF"/>
<path d="M26.639 33.9362H13.1095L28.5718 34.0151L26.639 33.9362ZM13.1095 33.9362L28.5718 34.0151H13.9378L13.1095 33.9362Z" fill="#FFFFFF"/>
<path d="M28.5719 34.0152H13.9379L29.2424 34.0547L28.5719 34.0152ZM13.9379 34.0152L29.2424 34.0547H14.2534L13.9379 34.0152Z" fill="#FFFFFF"/>
<path d="M153.375 34.0152H138.741L152.468 34.1335L153.375 34.0152ZM138.741 34.0152L152.468 34.1335H136.769L138.741 34.0152Z" fill="#FFFFFF"/>
<path d="M29.2424 34.0548H14.2535L31.9247 34.1731L29.2424 34.0548ZM14.2535 34.0548L31.9247 34.1731H15.4368L14.2535 34.0548Z" fill="#FFFFFF"/>
<path d="M152.468 34.1335H136.769L151.363 34.2124L152.468 34.1335ZM136.769 34.1335L151.363 34.2124H134.086L136.769 34.1335Z" fill="#FFFFFF"/>
<path d="M31.9246 34.173H15.4367L33.2657 34.2124L31.9246 34.173ZM15.4367 34.173L33.2657 34.2124H15.9495L15.4367 34.173Z" fill="#FFFFFF"/>
<path d="M151.363 34.2125H134.086L151.363 34.252V34.2125ZM134.086 34.2125L151.363 34.252H134.007L134.086 34.2125Z" fill="#FFFFFF"/>
<path d="M33.2658 34.2124H15.9495L34.7252 34.2913L33.2658 34.2124ZM15.9495 34.2124L34.7252 34.2913H16.5807L15.9495 34.2124Z" fill="#FFFFFF"/>
<path d="M151.363 34.2519H134.007L150.18 34.3308L151.363 34.2519ZM134.007 34.2519L150.18 34.3308H131.167L134.007 34.2519Z" fill="#FFFFFF"/>
<path d="M34.7253 34.2913H16.5807L37.6047 34.4097L34.7253 34.2913ZM16.5807 34.2913L37.6047 34.4097H17.7246L16.5807 34.2913Z" fill="#FFFFFF"/>
<path d="M150.18 34.3308H131.167L149.233 34.4097L150.18 34.3308ZM131.167 34.3308L149.233 34.4097H128.761L131.167 34.3308Z" fill="#FFFFFF"/>
<path d="M149.233 34.4098H128.761L149.036 34.4492L149.233 34.4098ZM128.761 34.4098L149.036 34.4492H128.249L128.761 34.4098Z" fill="#FFFFFF"/>
<path d="M38.5908 34.4096H18.0795L40.563 34.4885L38.5908 34.4096ZM18.0795 34.4096L40.563 34.4885H18.8684L18.0795 34.4096Z" fill="#FFFFFF"/>
<path d="M149.036 34.4492H128.249L147.892 34.5281L149.036 34.4492ZM128.249 34.4492L147.892 34.5281H125.211L128.249 34.4492Z" fill="#FFFFFF"/>
<path d="M40.5631 34.4885H18.8685L43.6398 34.5674L40.5631 34.4885ZM18.8685 34.4885L43.6398 34.5674H19.973L18.8685 34.4885Z" fill="#FFFFFF"/>
<path d="M147.892 34.528H125.211L146.985 34.6069L147.892 34.528ZM125.211 34.528L146.985 34.6069H122.529L125.211 34.528Z" fill="#FFFFFF"/>
<path d="M43.6397 34.5675H19.9728L44.823 34.6069L43.6397 34.5675ZM19.9728 34.5675L44.823 34.6069H20.3278L19.9728 34.5675Z" fill="#FFFFFF"/>
<path d="M146.985 34.607H122.529L146.827 34.6465L146.985 34.607ZM122.529 34.607L146.827 34.6465H122.135L122.529 34.607Z" fill="#FFFFFF"/>
<path d="M44.8231 34.6069H20.3279L46.7559 34.6858L44.8231 34.6069ZM20.3279 34.6069L46.7559 34.6858H21.0379L20.3279 34.6069Z" fill="#FFFFFF"/>
<path d="M146.827 34.6462H122.135L145.762 34.7251L146.827 34.6462ZM122.135 34.6462L145.762 34.7251H118.979L122.135 34.6462Z" fill="#FFFFFF"/>
<path d="M46.7558 34.6858H21.0378L49.9902 34.7646L46.7558 34.6858ZM21.0378 34.6858L49.9902 34.7646H22.024L21.0378 34.6858Z" fill="#FFFFFF"/>
<path d="M145.762 34.7252H118.979L144.815 34.7646L145.762 34.7252ZM118.979 34.7252L144.815 34.7646H115.705L118.979 34.7252Z" fill="#FFFFFF"/>
<path d="M144.815 34.7645H115.705L144.618 34.804L144.815 34.7645ZM115.705 34.7645L144.618 34.804H114.956L115.705 34.7645Z" fill="#FFFFFF"/>
<path d="M49.9903 34.7645H22.024L52.3569 34.804L49.9903 34.7645ZM22.024 34.7645L52.3569 34.804H22.6945L22.024 34.7645Z" fill="#FFFFFF"/>
<path d="M144.618 34.8043H114.956L143.869 34.8438L144.618 34.8043ZM114.956 34.8043L143.869 34.8438H112.431L114.956 34.8043Z" fill="#FFFFFF"/>
<path d="M53.2642 34.8042H22.9706L56.5775 34.8831L53.2642 34.8042ZM22.9706 34.8042L56.5775 34.8831H23.8779L22.9706 34.8042Z" fill="#FFFFFF"/>
<path d="M143.869 34.8435H112.431L143.04 34.9224L143.869 34.8435ZM112.431 34.8435L143.04 34.9224H109.078L112.431 34.8435Z" fill="#FFFFFF"/>
<path d="M56.5776 34.8829H23.878L59.9698 34.9224L56.5776 34.8829ZM23.878 34.8829L59.9698 34.9224H24.7063L23.878 34.8829Z" fill="#FFFFFF"/>
<path d="M143.04 34.9225H109.078L142.291 34.9619L143.04 34.9225ZM109.078 34.9225L142.291 34.9619H105.647L109.078 34.9225Z" fill="#FFFFFF"/>
<path d="M59.9698 34.9225H24.7062L62.5337 34.9619L59.9698 34.9225ZM24.7062 34.9225L62.5337 34.9619H25.219L24.7062 34.9225Z" fill="#FFFFFF"/>
<path d="M62.5338 34.9618H25.2192L63.4016 35.0012L62.5338 34.9618ZM25.2192 34.9618L63.4016 35.0012H25.3769L25.2192 34.9618Z" fill="#FFFFFF"/>
<path d="M142.133 34.9618H104.779L141.581 35.0012L142.133 34.9618ZM104.779 34.9618L141.581 35.0012H102.215L104.779 34.9618Z" fill="#FFFFFF"/>
<path d="M63.4015 35.0013H25.3769L66.8727 35.0408L63.4015 35.0013ZM25.3769 35.0013L66.8727 35.0408H26.0474L25.3769 35.0013Z" fill="#FFFFFF"/>
<path d="M141.581 35.0013H102.215L141.029 35.0408L141.581 35.0013ZM102.215 35.0013L141.029 35.0408H98.7044L102.215 35.0013Z" fill="#FFFFFF"/>
<path d="M141.029 35.0409H98.7044L140.555 35.0803L141.029 35.0409ZM98.7044 35.0409L140.555 35.0803H95.1938L98.7044 35.0409Z" fill="#FFFFFF"/>
<path d="M70.3832 35.0409H26.5602L73.8938 35.0803L70.3832 35.0409ZM26.5602 35.0409L73.8938 35.0803H26.9546L26.5602 35.0409Z" fill="#FFFFFF"/>
<path d="M73.8938 35.0802H26.9546L77.4438 35.1196L73.8938 35.0802ZM26.9546 35.0802L77.4438 35.1196H27.2308L26.9546 35.0802Z" fill="#FFFFFF"/>
<path d="M140.24 35.0802H91.6833L140.003 35.1196L140.24 35.0802ZM91.6833 35.0802L140.003 35.1196H88.1333L91.6833 35.0802Z" fill="#FFFFFF"/>
<path d="M139.53 35.1197H27.8223L136.808 35.3169L139.53 35.1197ZM27.8223 35.1197L136.808 35.3169H30.544L27.8223 35.1197Z" fill="#FFFFFF"/>
<path d="M136.808 35.3167H30.5441L134.008 35.4351L136.808 35.3167ZM30.5441 35.3167L134.008 35.4351H33.3447L30.5441 35.3167Z" fill="#FFFFFF"/>
<path d="M134.007 35.4352H33.3446L131.089 35.593L134.007 35.4352ZM33.3446 35.4352L131.089 35.593H36.2635L33.3446 35.4352Z" fill="#FFFFFF"/>
<path d="M131.089 35.5931H36.2636L128.091 35.7114L131.089 35.5931ZM36.2636 35.5931L128.091 35.7114H39.2614L36.2636 35.5931Z" fill="#FFFFFF"/>
<path d="M128.091 35.7114H39.2614L125.014 35.8691L128.091 35.7114ZM39.2614 35.7114L125.014 35.8691H42.3381L39.2614 35.7114Z" fill="#FFFFFF"/>
<path d="M125.014 35.8692H42.338L121.819 35.9875L125.014 35.8692ZM42.338 35.8692L121.819 35.9875H45.4936L42.338 35.8692Z" fill="#FFFFFF"/>
<path d="M121.819 35.9875H45.4936L118.585 36.0664L121.819 35.9875ZM45.4936 35.9875L118.585 36.0664H48.7281L45.4936 35.9875Z" fill="#FFFFFF"/>
<path d="M118.585 36.0665H48.7281L115.311 36.1848L118.585 36.0665ZM48.7281 36.0665L115.311 36.1848H52.0414L48.7281 36.0665Z" fill="#FFFFFF"/>
<path d="M115.311 36.1845H52.0415L111.958 36.2634L115.311 36.1845ZM52.0415 36.1845L111.958 36.2634H55.3943L52.0415 36.1845Z" fill="#FFFFFF"/>
<path d="M111.958 36.2636H55.3943L108.526 36.3425L111.958 36.2636ZM55.3943 36.2636L108.526 36.3425H58.7866L55.3943 36.2636Z" fill="#FFFFFF"/>
<path d="M108.526 36.3425H58.7865L105.055 36.4214L108.526 36.3425ZM58.7865 36.3425L105.055 36.4214H62.2576L58.7865 36.3425Z" fill="#FFFFFF"/>
<path d="M105.055 36.4212H62.2577L101.545 36.4607L105.055 36.4212ZM62.2577 36.4212L101.545 36.4607H65.7683L62.2577 36.4212Z" fill="#FFFFFF"/>
<path d="M101.544 36.4608H65.7681L98.0339 36.5002L101.544 36.4608ZM65.7681 36.4608L98.0339 36.5002H69.3181L65.7681 36.4608Z" fill="#FFFFFF"/>
<path d="M98.0339 36.5001H69.3182L94.4445 36.5396L98.0339 36.5001ZM69.3182 36.5001L94.4445 36.5396H72.8682L69.3182 36.5001Z" fill="#FFFFFF"/>
<path d="M94.4445 36.5397H72.8682L90.855 36.5791L94.4445 36.5397ZM72.8682 36.5397L90.855 36.5791H76.4577L72.8682 36.5397Z" fill="#FFFFFF"/>
<path d="M175.582 1.39444H171.559L176.608 5.53613L175.582 1.39444ZM171.559 1.39444L176.608 5.53613H168.877L171.559 1.39444Z" fill="#FFFFFF"/>
<path d="M176.608 5.53628H172.861L178.304 12.3997L176.608 5.53628ZM172.861 5.53628L178.304 12.3997H174.359L172.861 5.53628Z" fill="#FFFFFF"/>
<path d="M172.86 5.53628H168.877L168.64 12.3997L172.86 5.53628ZM168.877 5.53628L168.64 12.3997H164.419L168.877 5.53628Z" fill="#FFFFFF"/>
<path d="M178.304 12.3995H164.419L179.053 15.5945L178.304 12.3995ZM164.419 12.3995L179.053 15.5945H162.329L164.419 12.3995Z" fill="#FFFFFF"/>
<path d="M179.053 15.5944H175.069L180 19.3811L179.053 15.5944ZM175.069 15.5944L180 19.3811H175.898L175.069 15.5944Z" fill="#FFFFFF"/>
<path d="M166.668 15.5944H162.329L164.34 19.3811L166.668 15.5944ZM162.329 15.5944L164.34 19.3811H159.883L162.329 15.5944Z" fill="#FFFFFF"/>
<path d="M161.619 1.39433H157.398L157.99 19.3811L161.619 1.39433ZM157.398 1.39433L157.99 19.3811H153.73L157.398 1.39433Z" fill="#FFFFFF"/>
<path d="M144.066 1.3945H135.98L145.131 1.47339L144.066 1.3945ZM135.98 1.3945L145.131 1.47339H135.98V1.3945Z" fill="#FFFFFF"/>
<path d="M145.131 1.47346H135.98L146.196 1.5918L145.131 1.47346ZM135.98 1.47346L146.196 1.5918H135.94L135.98 1.47346Z" fill="#FFFFFF"/>
<path d="M146.196 1.5917H135.94L147.261 1.82837L146.196 1.5917ZM135.94 1.5917L147.261 1.82837H135.901L135.94 1.5917Z" fill="#FFFFFF"/>
<path d="M147.261 1.82835H135.901L148.286 2.18335L147.261 1.82835ZM135.901 1.82835L148.286 2.18335H135.822L135.901 1.82835Z" fill="#FFFFFF"/>
<path d="M148.286 2.1835H135.822L148.76 2.42017L148.286 2.1835ZM135.822 2.1835L148.76 2.42017H135.782L135.822 2.1835Z" fill="#FFFFFF"/>
<path d="M148.76 2.42007H135.783L149.233 2.65674L148.76 2.42007ZM135.783 2.42007L149.233 2.65674H135.743L135.783 2.42007Z" fill="#FFFFFF"/>
<path d="M149.233 2.65661H135.743L149.667 2.97217L149.233 2.65661ZM135.743 2.65661L149.667 2.97217H135.664L135.743 2.65661Z" fill="#FFFFFF"/>
<path d="M149.667 2.97239H135.664L150.101 3.32739L149.667 2.97239ZM135.664 2.97239L150.101 3.32739H135.625L135.664 2.97239Z" fill="#FFFFFF"/>
<path d="M150.101 3.32737H135.625L150.495 3.68237L150.101 3.32737ZM135.625 3.32737L150.495 3.68237H135.546L135.625 3.32737Z" fill="#FFFFFF"/>
<path d="M150.495 3.68221H135.546L150.85 4.07666L150.495 3.68221ZM135.546 3.68221L150.85 4.07666H135.467L135.546 3.68221Z" fill="#FFFFFF"/>
<path d="M150.85 4.07661H135.467L151.166 4.5105L150.85 4.07661ZM135.467 4.07661L151.166 4.5105H135.349L135.467 4.07661Z" fill="#FFFFFF"/>
<path d="M151.166 4.51075H135.349L151.363 4.78687L151.166 4.51075ZM135.349 4.51075L151.363 4.78687H135.309L135.349 4.51075Z" fill="#FFFFFF"/>
<path d="M151.363 4.7867H143.198L151.442 4.90503L151.363 4.7867ZM143.198 4.7867L151.442 4.90503H144.026L143.198 4.7867Z" fill="#FFFFFF"/>
<path d="M141.423 4.7867H135.309L139.53 4.90503L141.423 4.7867ZM135.309 4.7867L139.53 4.90503H135.309V4.7867Z" fill="#FFFFFF"/>
<path d="M151.442 4.905H144.026L151.481 4.98389L151.442 4.905ZM144.026 4.905L151.481 4.98389H144.5L144.026 4.905Z" fill="#FFFFFF"/>
<path d="M151.481 4.98399H144.5L151.521 5.02344L151.481 4.98399ZM144.5 4.98399L151.521 5.02344H144.815L144.5 4.98399Z" fill="#FFFFFF"/>
<path d="M151.521 5.02334H144.815L151.639 5.26001L151.521 5.02334ZM144.815 5.02334L151.639 5.26001H145.525L144.815 5.02334Z" fill="#FFFFFF"/>
<path d="M151.639 5.26005H145.525L151.758 5.45728L151.639 5.26005ZM145.525 5.26005L151.758 5.45728H145.92L145.525 5.26005Z" fill="#FFFFFF"/>
<path d="M151.758 5.45711H145.92L151.797 5.57544L151.758 5.45711ZM145.92 5.45711L151.797 5.57544H146.196L145.92 5.45711Z" fill="#FFFFFF"/>
<path d="M151.797 5.57552H146.196L151.994 5.96997L151.797 5.57552ZM146.196 5.57552L151.994 5.96997H146.669L146.196 5.57552Z" fill="#FFFFFF"/>
<path d="M151.994 5.97008H146.669L151.994 6.00952V5.97008ZM146.669 5.97008L151.994 6.00952H146.748L146.669 5.97008Z" fill="#FFFFFF"/>
<path d="M151.994 6.00929H146.748L152.113 6.2854L151.994 6.00929ZM146.748 6.00929L152.113 6.2854H147.024L146.748 6.00929Z" fill="#FFFFFF"/>
<path d="M152.113 6.28565H147.024L152.192 6.56177L152.113 6.28565ZM147.024 6.28565L152.192 6.56177H147.221L147.024 6.28565Z" fill="#FFFFFF"/>
<path d="M152.191 6.56171H147.221L152.349 6.99561L152.191 6.56171ZM147.221 6.56171L152.349 6.99561H147.458L147.221 6.56171Z" fill="#FFFFFF"/>
<path d="M152.349 6.99551H147.458L152.389 7.23218L152.349 6.99551ZM147.458 6.99551L152.389 7.23218H147.616L147.458 6.99551Z" fill="#FFFFFF"/>
<path d="M152.389 7.2321H147.616L152.547 8.021L152.389 7.2321ZM147.616 7.2321L152.547 8.021H147.892L147.616 7.2321Z" fill="#FFFFFF"/>
<path d="M152.547 8.0211H147.892L152.547 8.06055V8.0211ZM147.892 8.0211L152.547 8.06055H147.931L147.892 8.0211Z" fill="#FFFFFF"/>
<path d="M152.546 8.06061H147.931L152.586 8.81006L152.546 8.06061ZM147.931 8.06061L152.586 8.81006H148.089L147.931 8.06061Z" fill="#FFFFFF"/>
<path d="M152.586 8.81004H148.089L152.625 9.16504L152.586 8.81004ZM148.089 8.81004L152.625 9.16504H148.129L148.089 8.81004Z" fill="#FFFFFF"/>
<path d="M152.625 9.16509H148.129L152.586 9.63843L152.625 9.16509ZM148.129 9.16509L152.586 9.63843H148.168L148.129 9.16509Z" fill="#FFFFFF"/>
<path d="M152.586 9.63842H148.168L152.546 10.2695L152.586 9.63842ZM148.168 9.63842L152.546 10.2695H148.168V9.63842Z" fill="#FFFFFF"/>
<path d="M152.547 10.2695H148.168L152.547 10.4272V10.2695ZM148.168 10.2695L152.547 10.4272H148.168V10.2695Z" fill="#FFFFFF"/>
<path d="M152.547 10.4272H148.168L152.389 11.2161L152.547 10.4272ZM148.168 10.4272L152.389 11.2161H148.01L148.168 10.4272Z" fill="#FFFFFF"/>
<path d="M152.389 11.2162H148.01L152.389 11.374V11.2162ZM148.01 11.2162L152.389 11.374H147.971L148.01 11.2162Z" fill="#FFFFFF"/>
<path d="M152.389 11.3739H147.971L152.192 11.9656L152.389 11.3739ZM147.971 11.3739L152.192 11.9656H147.774L147.971 11.3739Z" fill="#FFFFFF"/>
<path d="M152.192 11.9656H147.774L152.073 12.439L152.192 11.9656ZM147.774 11.9656L152.073 12.439H147.576L147.774 11.9656Z" fill="#FFFFFF"/>
<path d="M152.073 12.439H147.577L151.955 12.7151L152.073 12.439ZM147.577 12.439L151.955 12.7151H147.458L147.577 12.439Z" fill="#FFFFFF"/>
<path d="M151.955 12.7149H147.458L151.679 13.3855L151.955 12.7149ZM147.458 12.7149L151.679 13.3855H147.024L147.458 12.7149Z" fill="#FFFFFF"/>
<path d="M151.679 13.3857H147.024L151.639 13.4646L151.679 13.3857ZM147.024 13.3857L151.639 13.4646H146.945L147.024 13.3857Z" fill="#FFFFFF"/>
<path d="M151.639 13.4644H146.945L151.363 14.0166L151.639 13.4644ZM146.945 13.4644L151.363 14.0166H146.511L146.945 13.4644Z" fill="#FFFFFF"/>
<path d="M151.363 14.0168H146.511L151.126 14.4507L151.363 14.0168ZM146.511 14.0168L151.126 14.4507H146.038L146.511 14.0168Z" fill="#FFFFFF"/>
<path d="M151.126 14.4507H146.038L151.048 14.5295L151.126 14.4507ZM146.038 14.4507L151.048 14.5295H145.92L146.038 14.4507Z" fill="#FFFFFF"/>
<path d="M151.048 14.5295H145.92L150.732 14.9634L151.048 14.5295ZM145.92 14.5295L150.732 14.9634H145.289L145.92 14.5295Z" fill="#FFFFFF"/>
<path d="M150.732 14.9634H145.289L150.495 15.3184L150.732 14.9634ZM145.289 14.9634L150.495 15.3184H144.618L145.289 14.9634ZM150.495 15.3184H144.618H144.579H150.495Z" fill="#FFFFFF"/>
<path d="M150.495 15.3184H144.579L150.259 15.5945L150.495 15.3184ZM144.579 15.3184L150.259 15.5945H143.908L144.579 15.3184Z" fill="#FFFFFF"/>
<path d="M150.259 15.5945H143.908L150.061 15.7917L150.259 15.5945ZM143.908 15.5945L150.061 15.7917H143.159L143.908 15.5945Z" fill="#FFFFFF"/>
<path d="M150.062 15.7917H143.159L149.943 15.9495L150.062 15.7917ZM143.159 15.7917L149.943 15.9495H142.37L143.159 15.7917Z" fill="#FFFFFF"/>
<path d="M149.943 15.9495H142.37L149.825 16.0679L149.943 15.9495ZM142.37 15.9495L149.825 16.0679H141.581L142.37 15.9495Z" fill="#FFFFFF"/>
<path d="M149.825 16.0678H141.581L149.785 16.1467L149.825 16.0678ZM141.581 16.0678L149.785 16.1467H140.753L141.581 16.0678Z" fill="#FFFFFF"/>
<path d="M139.53 4.90499H135.309L137.281 16.1467L139.53 4.90499ZM135.309 4.90499L137.281 16.1467H133.021L135.309 4.90499Z" fill="#FFFFFF"/>
<path d="M149.746 16.1467H133.021L148.957 16.8567L149.746 16.1467ZM133.021 16.1467L148.957 16.8567H132.864L133.021 16.1467Z" fill="#FFFFFF"/>
<path d="M148.957 16.8567H132.864L148.089 17.4878L148.957 16.8567ZM132.864 16.8567L148.089 17.4878H132.745L132.864 16.8567Z" fill="#FFFFFF"/>
<path d="M148.089 17.4878H132.745L147.143 18.04L148.089 17.4878ZM132.745 17.4878L147.143 18.04H132.627L132.745 17.4878Z" fill="#FFFFFF"/>
<path d="M147.143 18.0401H132.627L146.156 18.4346L147.143 18.0401ZM132.627 18.0401L146.156 18.4346H132.548L132.627 18.0401Z" fill="#FFFFFF"/>
<path d="M146.156 18.4344H132.548L145.131 18.75L146.156 18.4344ZM132.548 18.4344L145.131 18.75H132.469L132.548 18.4344Z" fill="#FFFFFF"/>
<path d="M145.131 18.7503H132.469L144.105 19.0264L145.131 18.7503ZM132.469 18.7503L144.105 19.0264H132.43L132.469 18.7503Z" fill="#FFFFFF"/>
<path d="M144.105 19.0263H132.43L143.04 19.1841L144.105 19.0263ZM132.43 19.0263L143.04 19.1841H132.39L132.43 19.0263Z" fill="#FFFFFF"/>
<path d="M143.04 19.1842H132.39L141.975 19.3025L143.04 19.1842ZM132.39 19.1842L141.975 19.3025H132.39V19.1842Z" fill="#FFFFFF"/>
<path d="M141.975 19.3022H132.39L140.91 19.3811L141.975 19.3022ZM132.39 19.3022L140.91 19.3811H132.351L132.39 19.3022Z" fill="#FFFFFF"/>
<path d="M136.611 19.3812H140.121L138.741 19.4207L136.611 19.3812Z" fill="#FFFFFF"/>
<path d="M132.311 1.39445H118.624L131.601 4.90503L132.311 1.39445ZM118.624 1.39445L131.601 4.90503H117.914L118.624 1.39445Z" fill="#FFFFFF"/>
<path d="M122.174 4.90485H117.914L121.425 8.6521L122.174 4.90485ZM117.914 4.90485L121.425 8.6521H117.165L117.914 4.90485Z" fill="#FFFFFF"/>
<path d="M129.629 8.65236H117.165L128.959 11.9263L129.629 8.65236ZM117.165 8.65236L128.959 11.9263H116.494L117.165 8.65236Z" fill="#FFFFFF"/>
<path d="M120.754 11.9261H116.494L119.886 16.1467L120.754 11.9261ZM116.494 11.9261L119.886 16.1467H115.666L116.494 11.9261Z" fill="#FFFFFF"/>
<path d="M129.708 16.1466H115.666L129.037 19.3811L129.708 16.1466ZM115.666 16.1466L129.037 19.3811H114.995L115.666 16.1466Z" fill="#FFFFFF"/>
<path d="M114.285 1.39428H110.656L112.786 8.6521L114.285 1.39428ZM110.656 1.39428L112.786 8.6521H104.976L110.656 1.39428Z" fill="#FFFFFF"/>
<path d="M97.3239 1.39428H94.0105L100.243 8.6521L97.3239 1.39428ZM94.0105 1.39428L100.243 8.6521H92.5511L94.0105 1.39428Z" fill="#FFFFFF"/>
<path d="M109 8.65232H104.976L105.844 12.6362L109 8.65232ZM104.976 8.65232L105.844 12.6362H101.86L104.976 8.65232Z" fill="#FFFFFF"/>
<path d="M100.243 8.65232H96.3773L101.86 12.6362L100.243 8.65232ZM96.3773 8.65232L101.86 12.6362H98.034L96.3773 8.65232Z" fill="#FFFFFF"/>
<path d="M105.844 12.6363H98.0339L101.939 17.5669L105.844 12.6363ZM98.0339 12.6363L101.939 17.5669H100.125L98.0339 12.6363Z" fill="#FFFFFF"/>
<path d="M112.786 8.65215H109L110.617 19.3811L112.786 8.65215ZM109 8.65215L110.617 19.3811H106.83L109 8.65215Z" fill="#FFFFFF"/>
<path d="M96.3773 8.65215H92.5512L94.2079 19.3811L96.3773 8.65215ZM92.5512 8.65215L94.2079 19.3811H90.3817L92.5512 8.65215Z" fill="#FFFFFF"/>
<path d="M82.9661 1.39445H69.3182L82.2561 4.90503L82.9661 1.39445ZM69.3182 1.39445L82.2561 4.90503H68.6082L69.3182 1.39445Z" fill="#FFFFFF"/>
<path d="M72.8683 4.90485H68.6083L72.0794 8.6521L72.8683 4.90485ZM68.6083 4.90485L72.0794 8.6521H67.8194L68.6083 4.90485Z" fill="#FFFFFF"/>
<path d="M80.2839 8.65236H67.8194L79.6528 11.9263L80.2839 8.65236ZM67.8194 8.65236L79.6528 11.9263H67.1883L67.8194 8.65236Z" fill="#FFFFFF"/>
<path d="M71.4482 11.9261H67.1882L70.5805 16.1467L71.4482 11.9261ZM67.1882 11.9261L70.5805 16.1467H66.3204L67.1882 11.9261Z" fill="#FFFFFF"/>
<path d="M80.4022 16.1466H66.3205L79.7317 19.3811L80.4022 16.1466ZM66.3205 16.1466L79.7317 19.3811H65.6499L66.3205 16.1466Z" fill="#FFFFFF"/>
<path d="M59.181 0.999862H57.6426L59.891 1.03931L59.181 0.999862ZM57.6426 0.999862L59.891 1.03931H57.051L57.6426 0.999862Z" fill="#FFFFFF"/>
<path d="M59.8909 1.03952H57.0509L60.4825 1.11841L59.8909 1.03952ZM57.0509 1.03952L60.4825 1.11841H56.1436L57.0509 1.03952Z" fill="#FFFFFF"/>
<path d="M60.4826 1.11827H56.1437L60.6404 1.15771L60.4826 1.11827ZM56.1437 1.11827L60.6404 1.15771H56.0254L56.1437 1.11827Z" fill="#FFFFFF"/>
<path d="M60.6403 1.15779H56.0253L61.1531 1.27612L60.6403 1.15779ZM56.0253 1.15779L61.1531 1.27612H55.4336L56.0253 1.15779Z" fill="#FFFFFF"/>
<path d="M61.1531 1.27599H55.4336L61.3503 1.31543L61.1531 1.27599ZM55.4336 1.27599L61.3503 1.31543H55.2364L55.4336 1.27599Z" fill="#FFFFFF"/>
<path d="M61.3504 1.3155H55.2365L61.8237 1.43384L61.3504 1.3155ZM55.2365 1.3155L61.8237 1.43384H54.6842L55.2365 1.3155Z" fill="#FFFFFF"/>
<path d="M61.8237 1.43381H54.6843L62.0999 1.5127L61.8237 1.43381ZM54.6843 1.43381L62.0999 1.5127H54.4476L54.6843 1.43381Z" fill="#FFFFFF"/>
<path d="M62.0998 1.51288H54.4475L62.4943 1.67065L62.0998 1.51288ZM54.4475 1.51288L62.4943 1.67065H53.9742L54.4475 1.51288Z" fill="#FFFFFF"/>
<path d="M62.4943 1.67073H53.9742L62.7704 1.78906L62.4943 1.67073ZM53.9742 1.67073L62.7704 1.78906H53.6981L53.9742 1.67073Z" fill="#FFFFFF"/>
<path d="M62.7704 1.78886H53.6981L63.1254 1.98608L62.7704 1.78886ZM53.6981 1.78886L63.1254 1.98608H53.3036L53.6981 1.78886Z" fill="#FFFFFF"/>
<path d="M63.1254 1.98602H53.3036L63.4409 2.1438L63.1254 1.98602ZM53.3036 1.98602L63.4409 2.1438H52.9486L53.3036 1.98602Z" fill="#FFFFFF"/>
<path d="M63.4409 2.14398H52.9486L63.717 2.30176L63.4409 2.14398ZM52.9486 2.14398L63.717 2.30176H52.6331L52.9486 2.14398Z" fill="#FFFFFF"/>
<path d="M63.7171 2.30152H52.6332L64.0721 2.57764L63.7171 2.30152ZM52.6332 2.30152L64.0721 2.57764H52.2387L52.6332 2.30152Z" fill="#FFFFFF"/>
<path d="M64.0721 2.57782H52.2387L64.2299 2.7356L64.0721 2.57782ZM52.2387 2.57782L64.2299 2.7356H51.9626L52.2387 2.57782Z" fill="#FFFFFF"/>
<path d="M64.2298 2.73571H51.9625L64.6243 3.05127L64.2298 2.73571ZM51.9625 2.73571L64.6243 3.05127H51.4892L51.9625 2.73571Z" fill="#FFFFFF"/>
<path d="M64.6244 3.0511H51.4893L64.7032 3.16943L64.6244 3.0511ZM51.4893 3.0511L64.7032 3.16943H51.3709L51.4893 3.0511Z" fill="#FFFFFF"/>
<path d="M64.7032 3.16949H51.3709L65.0977 3.64282L64.7032 3.16949ZM51.3709 3.16949L65.0977 3.64282H50.7792L51.3709 3.16949Z" fill="#FFFFFF"/>
<path d="M65.0976 3.64298H50.7792L65.4921 4.15576L65.0976 3.64298ZM50.7792 3.64298L65.4921 4.15576H50.227L50.7792 3.64298Z" fill="#FFFFFF"/>
<path d="M65.492 4.15549H50.2269L65.5709 4.23438L65.492 4.15549ZM50.2269 4.15549L65.5709 4.23438H50.1481L50.2269 4.15549Z" fill="#FFFFFF"/>
<path d="M65.5709 4.2346H50.1481L65.1765 4.5896L65.5709 4.2346ZM50.1481 4.2346L65.1765 4.5896H49.8325L50.1481 4.2346Z" fill="#FFFFFF"/>
<path d="M57.8004 4.58957H49.8326L57.0115 4.66846L57.8004 4.58957ZM49.8326 4.58957L57.0115 4.66846H49.7537L49.8326 4.58957Z" fill="#FFFFFF"/>
<path d="M57.0115 4.66832H49.7537L56.8537 4.70776L57.0115 4.66832ZM49.7537 4.66832L56.8537 4.70776H49.7142L49.7537 4.66832Z" fill="#FFFFFF"/>
<path d="M65.1371 4.58943H58.8259L65.0188 4.70776L65.1371 4.58943ZM58.8259 4.58943L65.0188 4.70776H59.7332L58.8259 4.58943Z" fill="#FFFFFF"/>
<path d="M65.0187 4.70784H59.7331L64.8609 4.82617L65.0187 4.70784ZM59.7331 4.70784L64.8609 4.82617H60.167L59.7331 4.70784Z" fill="#FFFFFF"/>
<path d="M56.8538 4.70794H49.7143L56.1043 4.86572L56.8538 4.70794ZM49.7143 4.70794L56.1043 4.86572H49.5959L49.7143 4.70794Z" fill="#FFFFFF"/>
<path d="M64.861 4.82621H60.167L64.6637 5.02344L64.861 4.82621ZM60.167 4.82621L64.6637 5.02344H60.6009L60.167 4.82621Z" fill="#FFFFFF"/>
<path d="M56.1042 4.86559H49.5959L55.2759 5.18115L56.1042 4.86559ZM49.5959 4.86559L55.2759 5.18115H49.3592L49.5959 4.86559Z" fill="#FFFFFF"/>
<path d="M64.6637 5.02348H60.6009L64.427 5.2207L64.6637 5.02348ZM60.6009 5.02348L64.427 5.2207H60.9953L60.6009 5.02348Z" fill="#FFFFFF"/>
<path d="M55.2759 5.18123H49.3592L55.0392 5.29956L55.2759 5.18123ZM49.3592 5.18123L55.0392 5.29956H49.2408L49.3592 5.18123Z" fill="#FFFFFF"/>
<path d="M64.4271 5.22071H60.9954L64.1116 5.49683L64.4271 5.22071ZM60.9954 5.22071L64.1116 5.49683H61.3504L60.9954 5.22071Z" fill="#FFFFFF"/>
<path d="M55.0392 5.29943H49.2408L54.4475 5.61499L55.0392 5.29943ZM49.2408 5.29943L54.4475 5.61499H49.0436L49.2408 5.29943Z" fill="#FFFFFF"/>
<path d="M54.4475 5.61489H49.0436L54.0925 5.85156L54.4475 5.61489ZM49.0436 5.61489L54.0925 5.85156H48.8464L49.0436 5.61489Z" fill="#FFFFFF"/>
<path d="M54.0925 5.85177H48.8464L54.0136 5.93066L54.0925 5.85177ZM48.8464 5.85177L54.0136 5.93066H48.8069L48.8464 5.85177Z" fill="#FFFFFF"/>
<path d="M64.1116 5.49671H61.3504L63.4016 6.08838L64.1116 5.49671ZM61.3504 5.49671L63.4016 6.08838H62.021L61.3504 5.49671Z" fill="#FFFFFF"/>
<path d="M54.0137 5.93057H48.807L53.7376 6.16724L54.0137 5.93057ZM48.807 5.93057L53.7376 6.16724H48.6886L48.807 5.93057Z" fill="#FFFFFF"/>
<path d="M62.021 6.08834L62.4155 6.56167H62.8888L62.021 6.08834ZM62.4155 6.56167H62.8888L62.6127 6.79834L62.4155 6.56167Z" fill="#FFFFFF"/>
<path d="M62.021 6.08843H63.4016L62.8888 6.56177L62.021 6.08843Z" fill="#FFFFFF"/>
<path d="M53.7375 6.16732H48.6886L53.3431 6.56177L53.7375 6.16732ZM48.6886 6.16732L53.3431 6.56177H48.452L48.6886 6.16732Z" fill="#FFFFFF"/>
<path d="M53.343 6.56178H48.4519L53.1063 6.83789L53.343 6.56178ZM48.4519 6.56178L53.1063 6.83789H48.2941L48.4519 6.56178Z" fill="#FFFFFF"/>
<path d="M53.1064 6.83773H48.2942L52.8303 7.23218L53.1064 6.83773ZM48.2942 6.83773L52.8303 7.23218H48.097L48.2942 6.83773Z" fill="#FFFFFF"/>
<path d="M52.8303 7.23216H48.097L52.5937 7.58716L52.8303 7.23216ZM48.097 7.23216L52.5937 7.58716H47.9786L48.097 7.23216Z" fill="#FFFFFF"/>
<path d="M52.5936 7.58727H47.9786L52.4358 7.90283L52.5936 7.58727ZM47.9786 7.58727L52.4358 7.90283H47.8208L47.9786 7.58727Z" fill="#FFFFFF"/>
<path d="M52.4359 7.90288H47.8209L52.1598 8.37622L52.4359 7.90288ZM47.8209 7.90288L52.1598 8.37622H47.6631L47.8209 7.90288Z" fill="#FFFFFF"/>
<path d="M52.1598 8.37612H47.6631L52.0809 8.61279L52.1598 8.37612ZM47.6631 8.37612L52.0809 8.61279H47.5842L47.6631 8.37612Z" fill="#FFFFFF"/>
<path d="M52.0809 8.61278H47.5842L51.8443 9.2439L52.0809 8.61278ZM47.5842 8.61278L51.8443 9.2439H47.4265L47.5842 8.61278Z" fill="#FFFFFF"/>
<path d="M51.8441 9.24397H47.4263L51.8047 9.3623L51.8441 9.24397ZM47.4263 9.24397L51.8047 9.3623H47.3869L47.4263 9.24397Z" fill="#FFFFFF"/>
<path d="M51.8048 9.36237H47.387L51.5681 10.1118L51.8048 9.36237ZM47.387 9.36237L51.5681 10.1118H47.2292L47.387 9.36237Z" fill="#FFFFFF"/>
<path d="M51.5681 10.1118H47.2292L51.4892 10.8218L51.5681 10.1118ZM47.2292 10.1118L51.4892 10.8218H47.1503L47.2292 10.1118Z" fill="#FFFFFF"/>
<path d="M51.4891 10.8218H47.1502L51.4497 11.019L51.4891 10.8218ZM47.1502 10.8218L51.4497 11.019H47.1108L47.1502 10.8218Z" fill="#FFFFFF"/>
<path d="M51.4498 11.0191H47.1109L51.4498 11.5713V11.0191ZM47.1109 11.0191L51.4498 11.5713H47.1109V11.0191Z" fill="#FFFFFF"/>
<path d="M51.4498 11.5713H47.1109L51.4104 11.9263L51.4498 11.5713ZM47.1109 11.5713L51.4104 11.9263H47.1109V11.5713Z" fill="#FFFFFF"/>
<path d="M51.4104 11.9261H47.1109L51.4498 12.3206L51.4104 11.9261ZM47.1109 11.9261L51.4498 12.3206H47.1504L47.1109 11.9261Z" fill="#FFFFFF"/>
<path d="M51.4497 12.3208H47.1502L51.4891 12.3997L51.4497 12.3208ZM47.1502 12.3208L51.4891 12.3997H47.1502V12.3208Z" fill="#FFFFFF"/>
<path d="M51.4892 12.3996H47.1503L51.5681 12.8335L51.4892 12.3996ZM47.1503 12.3996L51.5681 12.8335H47.1898L47.1503 12.3996Z" fill="#FFFFFF"/>
<path d="M51.5681 12.8334H47.1897L51.6075 13.0701L51.5681 12.8334ZM47.1897 12.8334L51.6075 13.0701H47.2292L47.1897 12.8334Z" fill="#FFFFFF"/>
<path d="M51.6075 13.07H47.2292L51.6864 13.3066L51.6075 13.07ZM47.2292 13.07L51.6864 13.3066H47.2686L47.2292 13.07Z" fill="#FFFFFF"/>
<path d="M51.6863 13.3067H47.2685L51.8441 13.7012L51.6863 13.3067ZM47.2685 13.3067L51.8441 13.7012H47.3869L47.2685 13.3067Z" fill="#FFFFFF"/>
<path d="M51.8442 13.7012H47.387L51.9231 13.8196L51.8442 13.7012ZM47.387 13.7012L51.9231 13.8196H47.387V13.7012Z" fill="#FFFFFF"/>
<path d="M61.3109 14.0956L61.3503 14.135H61.3109V14.0956Z" fill="#FFFFFF"/>
<path d="M51.9232 13.8195H47.387L52.0809 14.135L51.9232 13.8195ZM47.387 13.8195L52.0809 14.135H47.5053L47.387 13.8195Z" fill="#FFFFFF"/>
<path d="M61.3503 14.135H61.3109L61.6659 14.4111L61.3503 14.135ZM61.3109 14.135L61.6659 14.4111H61.0348L61.3109 14.135Z" fill="#FFFFFF"/>
<path d="M52.0808 14.135H47.5052L52.3569 14.49L52.0808 14.135ZM47.5052 14.135L52.3569 14.49H47.5841L47.5052 14.135Z" fill="#FFFFFF"/>
<path d="M52.3569 14.4901H47.5841L52.3569 14.5295V14.4901ZM47.5841 14.4901L52.3569 14.5295H47.6236L47.5841 14.4901Z" fill="#FFFFFF"/>
<path d="M61.6659 14.4114H61.0348L61.9814 14.7664L61.6659 14.4114ZM61.0348 14.4114L61.9814 14.7664H60.7192L61.0348 14.4114Z" fill="#FFFFFF"/>
<path d="M52.3571 14.5294H47.6237L52.6332 14.845L52.3571 14.5294ZM47.6237 14.5294L52.6332 14.845H47.742L47.6237 14.5294Z" fill="#FFFFFF"/>
<path d="M61.9815 14.7661H60.7192L62.2576 15.0422L61.9815 14.7661ZM60.7192 14.7661L62.2576 15.0422H60.3642L60.7192 14.7661Z" fill="#FFFFFF"/>
<path d="M52.6332 14.8451H47.742L52.9882 15.1606L52.6332 14.8451ZM47.742 14.8451L52.9882 15.1606H47.8209L47.742 14.8451Z" fill="#FFFFFF"/>
<path d="M52.9881 15.1606H47.8209L53.1064 15.2395L52.9881 15.1606ZM47.8209 15.1606L53.1064 15.2395H47.8603L47.8209 15.1606Z" fill="#FFFFFF"/>
<path d="M62.2576 15.0424H60.3642L62.4943 15.2791L62.2576 15.0424ZM60.3642 15.0424L62.4943 15.2791H59.9698L60.3642 15.0424Z" fill="#FFFFFF"/>
<path d="M53.1065 15.2394H47.8603L53.3826 15.3972L53.1065 15.2394ZM47.8603 15.2394L53.3826 15.3972H47.9392L47.8603 15.2394Z" fill="#FFFFFF"/>
<path d="M53.3825 15.3973H47.9392L53.777 15.5945L53.3825 15.3973ZM47.9392 15.3973L53.777 15.5945H48.0575L47.9392 15.3973Z" fill="#FFFFFF"/>
<path d="M62.4943 15.2789H59.9699L62.8888 15.6733L62.4943 15.2789ZM59.9699 15.2789L62.8888 15.6733H59.1415L59.9699 15.2789Z" fill="#FFFFFF"/>
<path d="M53.7771 15.5945H48.0576L54.1715 15.7917L53.7771 15.5945ZM48.0576 15.5945L54.1715 15.7917H48.1365L48.0576 15.5945Z" fill="#FFFFFF"/>
<path d="M54.1715 15.7918H48.1364L54.6053 15.9102L54.1715 15.7918ZM48.1364 15.7918L54.6053 15.9102H48.1759L48.1364 15.7918Z" fill="#FFFFFF"/>
<path d="M62.8887 15.6734H59.1414L63.1648 15.9495L62.8887 15.6734ZM59.1414 15.6734L63.1648 15.9495H58.2737L59.1414 15.6734Z" fill="#FFFFFF"/>
<path d="M54.6448 15.9102H48.2153L55.552 16.1074L54.6448 15.9102ZM48.2153 15.9102L55.552 16.1074H48.2942L48.2153 15.9102Z" fill="#FFFFFF"/>
<path d="M63.1649 15.9496H58.2737L63.3226 16.1074L63.1649 15.9496ZM58.2737 15.9496L63.3226 16.1074H57.3665L58.2737 15.9496Z" fill="#FFFFFF"/>
<path d="M63.3226 16.1073H57.3665L63.3621 16.1467L63.3226 16.1073ZM57.3665 16.1073L63.3621 16.1467H56.4592L57.3665 16.1073Z" fill="#FFFFFF"/>
<path d="M55.552 16.1073H48.2942L56.4592 16.1467L55.552 16.1073ZM48.2942 16.1073L56.4592 16.1467H48.3336L48.2942 16.1073Z" fill="#FFFFFF"/>
<path d="M63.3621 16.1468H48.3337L63.7566 16.5413L63.3621 16.1468ZM48.3337 16.1468L63.7566 16.5413H48.5704L48.3337 16.1468Z" fill="#FFFFFF"/>
<path d="M63.7565 16.5411H48.5703L63.8749 16.6594L63.7565 16.5411ZM48.5703 16.5411L63.8749 16.6594H48.6887L48.5703 16.5411Z" fill="#FFFFFF"/>
<path d="M63.8749 16.6597H48.6887L63.4804 17.1331L63.8749 16.6597ZM48.6887 16.6597L63.4804 17.1331H49.0437L48.6887 16.6597Z" fill="#FFFFFF"/>
<path d="M63.4803 17.1329H49.0436L63.4015 17.2512L63.4803 17.1329ZM49.0436 17.1329L63.4015 17.2512H49.1619L49.0436 17.1329Z" fill="#FFFFFF"/>
<path d="M63.4016 17.2513H49.1621L62.9283 17.6458L63.4016 17.2513ZM49.1621 17.2513L62.9283 17.6458H49.596L49.1621 17.2513Z" fill="#FFFFFF"/>
<path d="M62.9282 17.6455H49.5959L62.8493 17.7244L62.9282 17.6455ZM49.5959 17.6455L62.8493 17.7244H49.6748L49.5959 17.6455Z" fill="#FFFFFF"/>
<path d="M62.8492 17.7244H49.6747L62.297 18.1189L62.8492 17.7244ZM49.6747 17.7244L62.297 18.1189H50.1481L49.6747 17.7244Z" fill="#FFFFFF"/>
<path d="M62.297 18.1191H50.148L62.2181 18.198L62.297 18.1191ZM50.148 18.1191L62.2181 18.198H50.2269L50.148 18.1191Z" fill="#FFFFFF"/>
<path d="M62.2181 18.1977H50.227L61.6265 18.5527L62.2181 18.1977ZM50.227 18.1977L61.6265 18.5527H50.7792L50.227 18.1977Z" fill="#FFFFFF"/>
<path d="M61.587 18.553H50.8186L60.9165 18.908L61.587 18.553ZM50.8186 18.553L60.9165 18.908H51.4498L50.8186 18.553Z" fill="#FFFFFF"/>
<path d="M60.9165 18.908H51.4498L60.2065 19.1841L60.9165 18.908ZM51.4498 18.908L60.2065 19.1841H52.1598L51.4498 18.908Z" fill="#FFFFFF"/>
<path d="M60.2065 19.184H52.1598L59.536 19.4207L60.2065 19.184ZM52.1598 19.184L59.536 19.4207H52.8698L52.1598 19.184ZM59.536 19.4207H52.8698H52.9093H59.536Z" fill="#FFFFFF"/>
<path d="M59.536 19.4206H52.9093L58.9049 19.5784L59.536 19.4206ZM52.9093 19.4206L58.9049 19.5784H53.5799L52.9093 19.4206Z" fill="#FFFFFF"/>
<path d="M58.9048 19.5785H53.5798L58.7865 19.6179L58.9048 19.5785ZM53.5798 19.5785L58.7865 19.6179H53.7375L53.5798 19.5785Z" fill="#FFFFFF"/>
<path d="M58.7865 19.6179H53.7376L58.2737 19.6968L58.7865 19.6179ZM53.7376 19.6179L58.2737 19.6968H54.3292L53.7376 19.6179Z" fill="#FFFFFF"/>
<path d="M58.2737 19.6969H54.3292L58.037 19.7363L58.2737 19.6969ZM54.3292 19.6969L58.037 19.7363H54.7237L54.3292 19.6969Z" fill="#FFFFFF"/>
<path d="M58.0371 19.7362H54.7238L57.3271 19.8545L58.0371 19.7362ZM54.7238 19.7362L57.3271 19.8545H55.631L54.7238 19.7362Z" fill="#FFFFFF"/>
<path d="M49.2408 1.39458H44.9414L42.8508 9.40186L49.2408 1.39458ZM44.9414 1.39458L42.8508 9.40186H38.5119L44.9414 1.39458Z" fill="#FFFFFF"/>
<path d="M35.2379 1.39458H31.0174L38.5118 9.40186L35.2379 1.39458ZM31.0174 1.39458L38.5118 9.40186H34.2913L31.0174 1.39458Z" fill="#FFFFFF"/>
<path d="M42.8508 9.40181H34.2913L40.0897 12.8335L42.8508 9.40181ZM34.2913 9.40181L40.0897 12.8335H35.7113L34.2913 9.40181Z" fill="#FFFFFF"/>
<path d="M40.0897 12.8335H35.7114L39.9319 13.0308L40.0897 12.8335ZM35.7114 12.8335L39.9319 13.0308H35.6719L35.7114 12.8335Z" fill="#FFFFFF"/>
<path d="M39.9319 13.0305H35.6719L38.6302 19.3811L39.9319 13.0305ZM35.6719 13.0305L38.6302 19.3811H34.4096L35.6719 13.0305Z" fill="#FFFFFF"/>
<path d="M12.9911 1.39453H21.0378" stroke="#FFFFFF" stroke-width="0.96" stroke-linecap="round" stroke-linejoin="round"/>
<path d="M31.0175 1.39453H35.238" stroke="#FFFFFF" stroke-width="0.96" stroke-linecap="round" stroke-linejoin="round"/>
<path d="M44.9414 1.39453H49.2408" stroke="#FFFFFF" stroke-width="0.96" stroke-linecap="round" stroke-linejoin="round"/>
<path d="M69.3182 1.39453H82.9661" stroke="#FFFFFF" stroke-width="0.96" stroke-linecap="round" stroke-linejoin="round"/>
<path d="M94.0106 1.39453H97.324" stroke="#FFFFFF" stroke-width="0.96" stroke-linecap="round" stroke-linejoin="round"/>
<path d="M110.656 1.39453H114.285" stroke="#FFFFFF" stroke-width="0.96" stroke-linecap="round" stroke-linejoin="round"/>
<path d="M118.624 1.39453H132.311" stroke="#FFFFFF" stroke-width="0.96" stroke-linecap="round" stroke-linejoin="round"/>
<path d="M157.398 1.39453H161.619" stroke="#FFFFFF" stroke-width="0.96" stroke-linecap="round" stroke-linejoin="round"/>
<path d="M171.559 1.39453H175.582" stroke="#FFFFFF" stroke-width="0.96" stroke-linecap="round" stroke-linejoin="round"/>
<path d="M9.36229 19.3811H17.5273" stroke="#FFFFFF" stroke-width="0.96" stroke-linecap="round" stroke-linejoin="round"/>
<path d="M34.4097 19.3811H38.6302" stroke="#FFFFFF" stroke-width="0.96" stroke-linecap="round" stroke-linejoin="round"/>
<path d="M65.6499 19.3811H79.7317" stroke="#FFFFFF" stroke-width="0.96" stroke-linecap="round" stroke-linejoin="round"/>
<path d="M90.3816 19.3811H94.2078" stroke="#FFFFFF" stroke-width="0.96" stroke-linecap="round" stroke-linejoin="round"/>
<path d="M106.83 19.3811H110.617" stroke="#FFFFFF" stroke-width="0.96" stroke-linecap="round" stroke-linejoin="round"/>
<path d="M114.995 19.3811H129.037" stroke="#FFFFFF" stroke-width="0.96" stroke-linecap="round" stroke-linejoin="round"/>
<path d="M153.73 19.3811H157.99" stroke="#FFFFFF" stroke-width="0.96" stroke-linecap="round" stroke-linejoin="round"/>
<path d="M159.883 19.3811H164.34" stroke="#FFFFFF" stroke-width="0.96" stroke-linecap="round" stroke-linejoin="round"/>
<path d="M175.898 19.3811H180" stroke="#FFFFFF" stroke-width="0.96" stroke-linecap="round" stroke-linejoin="round"/>
<path d="M12.9912 1.39433L9.3623 19.3811" stroke="#FFFFFF" stroke-width="0.96" stroke-linecap="round" stroke-linejoin="round"/>
<path d="M16.5413 4.90499L14.2535 16.1467" stroke="#FFFFFF" stroke-width="0.96" stroke-linecap="round" stroke-linejoin="round"/>
<path d="M35.7113 12.8333L34.4096 19.3811" stroke="#FFFFFF" stroke-width="0.96" stroke-linecap="round" stroke-linejoin="round"/>
<path d="M39.9319 13.0305L38.6302 19.3811" stroke="#FFFFFF" stroke-width="0.96" stroke-linecap="round" stroke-linejoin="round"/>
<path d="M69.3182 1.39433L65.6499 19.3811" stroke="#FFFFFF" stroke-width="0.96" stroke-linecap="round" stroke-linejoin="round"/>
<path d="M72.8683 4.90485L72.0794 8.6521" stroke="#FFFFFF" stroke-width="0.96" stroke-linecap="round" stroke-linejoin="round"/>
<path d="M71.4482 11.9261L70.5805 16.1467" stroke="#FFFFFF" stroke-width="0.96" stroke-linecap="round" stroke-linejoin="round"/>
<path d="M118.624 1.39433L114.995 19.3811" stroke="#FFFFFF" stroke-width="0.96" stroke-linecap="round" stroke-linejoin="round"/>
<path d="M122.174 4.90485L121.425 8.6521" stroke="#FFFFFF" stroke-width="0.96" stroke-linecap="round" stroke-linejoin="round"/>
<path d="M120.754 11.9261L119.886 16.1467" stroke="#FFFFFF" stroke-width="0.96" stroke-linecap="round" stroke-linejoin="round"/>
<path d="M157.398 1.39433L153.73 19.3811" stroke="#FFFFFF" stroke-width="0.96" stroke-linecap="round" stroke-linejoin="round"/>
<path d="M161.619 1.39433L157.99 19.3811" stroke="#FFFFFF" stroke-width="0.96" stroke-linecap="round" stroke-linejoin="round"/>
<path d="M109 8.65215L106.83 19.3811" stroke="#FFFFFF" stroke-width="0.96" stroke-linecap="round" stroke-linejoin="round"/>
<path d="M114.285 1.39433L110.617 19.3811" stroke="#FFFFFF" stroke-width="0.96" stroke-linecap="round" stroke-linejoin="round"/>
<path d="M94.0105 1.39433L90.3816 19.3811" stroke="#FFFFFF" stroke-width="0.96" stroke-linecap="round" stroke-linejoin="round"/>
<path d="M96.3773 8.65215L94.2079 19.3811" stroke="#FFFFFF" stroke-width="0.96" stroke-linecap="round" stroke-linejoin="round"/>
<path d="M72.8683 4.90503H82.2561" stroke="#FFFFFF" stroke-width="0.96" stroke-linecap="round" stroke-linejoin="round"/>
<path d="M122.174 4.90503H131.601" stroke="#FFFFFF" stroke-width="0.96" stroke-linecap="round" stroke-linejoin="round"/>
<path d="M70.5805 16.1467H80.4022" stroke="#FFFFFF" stroke-width="0.96" stroke-linecap="round" stroke-linejoin="round"/>
<path d="M119.886 16.1467H129.708" stroke="#FFFFFF" stroke-width="0.96" stroke-linecap="round" stroke-linejoin="round"/>
<path d="M171.559 1.39433L159.883 19.3811" stroke="#FFFFFF" stroke-width="0.96" stroke-linecap="round" stroke-linejoin="round"/>
<path d="M175.582 1.39433L180 19.3811" stroke="#FFFFFF" stroke-width="0.96" stroke-linecap="round" stroke-linejoin="round"/>
<path d="M172.86 5.53628L168.64 12.3997" stroke="#FFFFFF" stroke-width="0.96" stroke-linecap="round" stroke-linejoin="round"/>
<path d="M166.668 15.5944L164.34 19.3811" stroke="#FFFFFF" stroke-width="0.96" stroke-linecap="round" stroke-linejoin="round"/>
<path d="M172.86 5.53628L174.359 12.3997" stroke="#FFFFFF" stroke-width="0.96" stroke-linecap="round" stroke-linejoin="round"/>
<path d="M175.069 15.5944L175.898 19.3811" stroke="#FFFFFF" stroke-width="0.96" stroke-linecap="round" stroke-linejoin="round"/>
<path d="M168.64 12.3997H174.359" stroke="#FFFFFF" stroke-width="0.96" stroke-linecap="round" stroke-linejoin="round"/>
<path d="M166.668 15.5945H175.069" stroke="#FFFFFF" stroke-width="0.96" stroke-linecap="round" stroke-linejoin="round"/>
<path d="M129.708 16.1466L129.037 19.3811" stroke="#FFFFFF" stroke-width="0.96" stroke-linecap="round" stroke-linejoin="round"/>
<path d="M132.311 1.39445L131.601 4.90503" stroke="#FFFFFF" stroke-width="0.96" stroke-linecap="round" stroke-linejoin="round"/>
<path d="M129.629 8.65236L128.959 11.9263" stroke="#FFFFFF" stroke-width="0.96" stroke-linecap="round" stroke-linejoin="round"/>
<path d="M71.4482 11.9263H79.6527" stroke="#FFFFFF" stroke-width="0.96" stroke-linecap="round" stroke-linejoin="round"/>
<path d="M120.754 11.9263H128.959" stroke="#FFFFFF" stroke-width="0.96" stroke-linecap="round" stroke-linejoin="round"/>
<path d="M72.0794 8.6521H80.2839" stroke="#FFFFFF" stroke-width="0.96" stroke-linecap="round" stroke-linejoin="round"/>
<path d="M121.425 8.6521H129.629" stroke="#FFFFFF" stroke-width="0.96" stroke-linecap="round" stroke-linejoin="round"/>
<path d="M80.4022 16.1466L79.7317 19.3811" stroke="#FFFFFF" stroke-width="0.96" stroke-linecap="round" stroke-linejoin="round"/>
<path d="M82.9661 1.39445L82.2561 4.90503" stroke="#FFFFFF" stroke-width="0.96" stroke-linecap="round" stroke-linejoin="round"/>
<path d="M80.2839 8.65236L79.6528 11.9263" stroke="#FFFFFF" stroke-width="0.96" stroke-linecap="round" stroke-linejoin="round"/>
<path d="M0.999916 31.0371C0.999916 34.0978 38.0064 36.5791 83.6563 36.5791C129.306 36.5791 166.313 34.0978 166.313 31.0371C166.313 27.9763 129.306 25.4951 83.6563 25.4951C38.0064 25.4951 0.999916 27.9763 0.999916 31.0371Z" stroke="#FFFFFF" stroke-width="0.96" stroke-linecap="round" stroke-linejoin="round"/>
<path d="M2.57776 31.037C2.57776 33.2699 38.8779 35.0801 83.6563 35.0801C128.435 35.0801 164.735 33.2699 164.735 31.037C164.735 28.804 128.435 26.9939 83.6563 26.9939C38.8779 26.9939 2.57776 28.804 2.57776 31.037Z" stroke="#FFFFFF" stroke-width="0.96" stroke-linecap="round" stroke-linejoin="round"/>
<path d="M96.3772 8.65239L100.124 17.5669H101.939L109 8.65239" stroke="#FFFFFF" stroke-width="0.96" stroke-linecap="round" stroke-linejoin="round"/>
<path d="M97.3239 1.3945L101.86 12.6362L110.656 1.3945" stroke="#FFFFFF" stroke-width="0.96" stroke-linecap="round" stroke-linejoin="round"/>
<path d="M35.7113 12.8335L31.0174 1.39454" stroke="#FFFFFF" stroke-width="0.96" stroke-linecap="round" stroke-linejoin="round"/>
<path d="M38.5118 9.40186L35.2379 1.39458" stroke="#FFFFFF" stroke-width="0.96" stroke-linecap="round" stroke-linejoin="round"/>
<path d="M39.9319 13.0308L49.2408 1.39458" stroke="#FFFFFF" stroke-width="0.96" stroke-linecap="round" stroke-linejoin="round"/>
<path d="M38.5118 9.40186L44.9413 1.39458" stroke="#FFFFFF" stroke-width="0.96" stroke-linecap="round" stroke-linejoin="round"/>
<path d="M62.6126 6.79834L65.5709 4.23444" stroke="#FFFFFF" stroke-width="0.96" stroke-linecap="round" stroke-linejoin="round"/>
<path d="M61.311 14.0955L63.8749 16.6594" stroke="#FFFFFF" stroke-width="0.96" stroke-linecap="round" stroke-linejoin="round"/>
<path d="M21.0379 1.39443H21.314L21.5901 1.43388H21.7085H21.8662L21.9846 1.47332H22.1423H22.2607L22.379 1.51277H22.5368H22.6551L22.8129 1.55221H22.9312L23.0496 1.59166H23.2074L23.3257 1.6311L23.4835 1.67054H23.6018L23.7201 1.70999L23.8779 1.74943H23.9963L24.1146 1.78888L24.2724 1.82832L24.3907 1.86777L24.509 1.90721L24.6274 1.94666L24.7851 1.9861L24.9035 2.02555L24.9429 2.06499H25.0218L25.1007 2.10444L25.1401 2.14388H25.219L25.2585 2.18333L25.3374 2.22277H25.4163L25.4557 2.26221L25.5346 2.30166H25.574L25.6529 2.3411L25.6924 2.38055L25.7713 2.41999H25.8107L25.8896 2.45944L25.929 2.49888L26.0079 2.53833L26.0474 2.57777H26.1263L26.1657 2.61722L26.2446 2.65666L26.284 2.69611L26.3235 2.73555L26.4024 2.775L26.4418 2.81444L26.5207 2.85389L26.5602 2.89333L26.5996 2.93277L26.6785 2.97222L26.7179 3.01166L26.7968 3.05111L26.8363 3.09055L26.8757 3.13L26.9546 3.16944L26.994 3.20889L27.0335 3.24833L27.0729 3.32722L27.1518 3.36667L27.1913 3.40611L27.2307 3.44556L27.3096 3.485L27.349 3.52444L27.3885 3.60333L27.4279 3.64278L27.4674 3.68222L27.5463 3.72167L27.5857 3.80056L27.6252 3.84L27.6646 3.87945L27.7041 3.91889L27.7435 3.99778L27.8224 4.03723L27.8618 4.07667L27.9013 4.15556L27.9407 4.195L27.9802 4.23445L28.0196 4.31334L28.0591 4.35278L28.0985 4.39223L28.1379 4.47112L28.1774 4.51056L28.2168 4.58945L28.2563 4.6289L28.2957 4.70779L28.3352 4.74723L28.3746 4.78667L28.4141 4.86556L28.4535 4.90501L28.4929 4.9839L28.5324 5.02334L28.5718 5.10223V5.14168L28.6113 5.22057L28.6507 5.26001L28.6902 5.3389L28.7296 5.37835L28.7691 5.45723V5.53612L28.8085 5.57557L28.8479 5.65446L28.8874 5.6939V5.77279L28.9268 5.81224L28.9663 5.89113L29.0057 5.97002V6.00946L29.0452 6.08835L29.0846 6.12779V6.20668L29.1241 6.28557V6.32502L29.1635 6.40391V6.44335L29.2029 6.52224L29.2424 6.60113V6.64058L29.2818 6.71946V6.79835L29.3213 6.8378V6.91669V6.99558L29.3607 7.03502V7.11391L29.4002 7.1928V7.23225L29.4396 7.31113V7.39002V7.46891L29.4791 7.50836V7.58725V7.66614L29.5185 7.70558V7.78447V7.94225L29.558 8.06058V8.17892L29.5974 8.3367V8.45503V8.61281V8.73114V8.88892L29.6368 9.00726V9.16504V9.28337L29.5974 9.44115V9.55948V9.71726V9.83559V9.99337L29.558 10.1117V10.2695V10.3878L29.5185 10.5456V10.6639L29.4791 10.8217L29.4396 10.94V11.0978L29.4002 11.2162L29.3607 11.3739L29.3213 11.4923V11.6501L29.2818 11.7684L29.2424 11.8867L29.2029 12.0445L29.1635 12.1628L29.1241 12.3206L29.0452 12.4389L29.0057 12.5573L28.9663 12.7151L28.9268 12.8334L28.8479 12.9517L28.8085 13.0701L28.7691 13.2278L28.6902 13.3462L28.6507 13.4645L28.5718 13.5828L28.5324 13.7012L28.4535 13.8195L28.3746 13.9378L28.3352 14.0956L28.2563 14.214L28.1774 14.3323L28.0985 14.4506L28.0591 14.5295L27.9802 14.6478L27.9013 14.7662L27.8224 14.8845L27.7435 15.0028L27.6646 15.1212L27.5857 15.2395L27.4674 15.3184L27.3885 15.4367L27.3096 15.5551L27.2307 15.634L27.1518 15.7523L27.0335 15.8312L26.9546 15.9495L26.8757 16.0284L26.7574 16.1467L26.6785 16.2256L26.5602 16.344L26.4813 16.4229L26.3629 16.5017L26.284 16.6201L26.1657 16.699L26.0868 16.7779L25.9685 16.8567L25.8502 16.9751L25.7713 17.054L25.6529 17.1329L25.5346 17.2118L25.4163 17.2906L25.2979 17.3695L25.219 17.409L25.1007 17.4879L24.9824 17.5668L24.864 17.6456L24.7457 17.7245L24.6274 17.764L24.509 17.8429L24.3907 17.9218L24.2724 17.9612L24.154 18.0401L24.0357 18.0795L23.9174 18.119L23.799 18.1979L23.6807 18.2373L23.5624 18.2768L23.4046 18.3556L23.2862 18.3951L23.1679 18.4345L23.0496 18.474L22.9312 18.5134L22.7735 18.5923L22.6551 18.6318L22.5368 18.6712L22.4185 18.7106H22.2607L22.1423 18.7501L22.024 18.7895L21.8662 18.829L21.7479 18.8684L21.6296 18.9079L21.4718 18.9473H21.3535L21.2351 18.9868L21.0773 19.0262H20.959L20.8407 19.0657H20.6829L20.5646 19.1051L20.4462 19.1445H20.2884L20.1701 19.184H20.0518L19.894 19.2234H19.7757H19.6179L19.4996 19.2629H19.3812L19.2234 19.3023H19.1051H18.9868H18.829L18.7107 19.3418H18.5529H18.4345H18.3162L18.1584 19.3812H18.0401H17.8823H17.764H17.6457L17.3695 19.4207H17.0934H16.8173H16.5806H16.3045H16.0284H15.7523H15.4762H15.2395H14.9634H14.6873H14.1351L13.6223 19.3812" stroke="#FFFFFF" stroke-width="0.96" stroke-linecap="round" stroke-linejoin="round"/>
<path d="M16.5412 4.90499L17.0145 4.86555L17.4879 4.8261H17.9612L18.1584 4.78666H18.3951H18.6317H18.8684H19.1051H19.3023H19.539H19.7362H19.9729H20.1701L20.4068 4.8261H20.604L20.8012 4.86555L21.0379 4.90499H21.2351L21.314 4.94444H21.4323L21.5112 4.98388H21.6295L21.7084 5.02333H21.7873L21.9057 5.06277H21.9845L22.1029 5.10222L22.1818 5.14166L22.2607 5.18111H22.3395L22.4579 5.22055L22.5368 5.26L22.6157 5.29944L22.6946 5.33888L22.7734 5.37833L22.8523 5.41777L22.9312 5.45722L23.0101 5.49666L23.089 5.53611L23.1679 5.57555L23.2468 5.615L23.3257 5.69389L23.4046 5.73333L23.4834 5.77278L23.5623 5.85167L23.6018 5.89111L23.6807 5.97L23.7596 6.00944L23.8384 6.08833L23.8779 6.12778L23.9568 6.20667L23.9962 6.28556L24.0751 6.36445L24.1146 6.40389L24.1934 6.48278L24.2329 6.56167L24.2723 6.64056L24.3512 6.71945L24.3907 6.79834L24.4301 6.91667L24.4696 6.99556L24.5485 7.07445L24.5879 7.15334L24.6273 7.23223L24.6668 7.35056L24.7062 7.42945L24.7457 7.50834L24.7851 7.62668L24.8246 7.70557V7.8239L24.864 7.90279L24.9035 8.02112L24.9429 8.10001V8.21835L24.9823 8.29724L25.0218 8.41557V8.49446L25.0612 8.61279V8.69168L25.1007 8.81002V8.92835V9.00724L25.1401 9.12557V9.24391V9.3228L25.1796 9.44113V9.52002V9.63836V9.71724V9.83558V9.95391V10.0328V10.1511V10.23V10.3484L25.1401 10.4272V10.5456V10.6245L25.1007 10.7428V10.8217V10.94L25.0612 11.0189V11.1373L25.0218 11.2161V11.3345L24.9823 11.4134L24.9429 11.5317L24.9035 11.6106V11.6895L24.864 11.8078L24.8246 11.8867L24.7851 11.9656L24.7457 12.0839L24.7062 12.1628L24.6668 12.2811L24.6273 12.36L24.5879 12.4389L24.5485 12.5178L24.509 12.6362L24.4301 12.715L24.3907 12.7939L24.3512 12.8728L24.3118 12.9912L24.2329 13.07L24.1934 13.1489L24.1146 13.2278L24.0751 13.3067L23.9962 13.3856L23.9568 13.4645L23.8779 13.5434L23.8384 13.6223L23.7596 13.7012L23.7201 13.78L23.6412 13.8589L23.5623 13.9378L23.4834 14.0167L23.444 14.0562L23.3651 14.135L23.2862 14.2139L23.2073 14.2928L23.1284 14.3323L23.089 14.4112L23.0101 14.4506L22.9312 14.5295L22.8523 14.5689L22.7734 14.6478L22.6946 14.6873L22.6157 14.7662L22.5368 14.8056L22.4579 14.8451L22.379 14.9239L22.3001 14.9634L22.2212 15.0028L22.1423 15.0423L22.0634 15.1212L21.9845 15.1606L21.7873 15.2395L21.6295 15.3184L21.4718 15.3973L21.2745 15.4762L21.1168 15.5156L20.9195 15.5945L20.7223 15.6339L20.5645 15.7128L20.3673 15.7523L20.1701 15.7917L19.9729 15.8312L19.7756 15.8706L19.5784 15.9101L19.3812 15.9495L19.184 15.9889L18.9867 16.0284H18.7895L18.5923 16.0678H18.3556L18.1584 16.1073H17.9612L17.7245 16.1467H17.5273H17.3301H17.0934H16.8962H16.6595H16.4623H16.0284H15.5945H15.1606H14.2534" stroke="#FFFFFF" stroke-width="0.96" stroke-linecap="round" stroke-linejoin="round"/>
<path d="M135.98 1.39453H144.066" stroke="#FFFFFF" stroke-width="0.96" stroke-linecap="round" stroke-linejoin="round"/>
<path d="M135.98 1.39433L132.351 19.3811H140.516" stroke="#FFFFFF" stroke-width="0.96" stroke-linecap="round" stroke-linejoin="round"/>
<path d="M139.53 4.90499L137.281 16.1467" stroke="#FFFFFF" stroke-width="0.96" stroke-linecap="round" stroke-linejoin="round"/>
<path d="M144.066 1.39443L144.579 1.43388L145.131 1.47332L145.644 1.51277L145.92 1.55221L146.196 1.59166L146.472 1.67054L146.748 1.70999L146.985 1.74943L147.261 1.82832L147.498 1.90721L147.774 1.9861L148.01 2.06499L148.286 2.18333L148.523 2.30166L148.76 2.41999L148.996 2.53833L149.233 2.65666L149.47 2.81444L149.667 2.97222L149.904 3.13L150.101 3.32722L150.298 3.485L150.495 3.68222L150.653 3.87945L150.85 4.07667L151.008 4.31334L151.166 4.51056L151.324 4.74723L151.481 4.9839L151.639 5.22057L151.758 5.45723L151.876 5.6939L151.994 5.97002L152.073 6.20668L152.191 6.44335L152.27 6.71946L152.349 6.99558L152.389 7.23225L152.468 7.50836L152.507 7.78447L152.546 8.06058L152.586 8.3367V8.61281L152.625 8.88892V9.16504V9.44115L152.586 9.71726V9.99337L152.546 10.2695L152.507 10.5456L152.468 10.8217L152.428 11.0978L152.389 11.3739L152.31 11.6501L152.231 11.8867L152.152 12.1628L152.073 12.4389L151.955 12.7151L151.876 12.9517L151.758 13.2278L151.639 13.4645L151.521 13.7012L151.403 13.9378L151.245 14.214L151.126 14.4506L150.969 14.6478L150.811 14.8845L150.653 15.1212L150.495 15.3184L150.298 15.5551L150.14 15.7523L149.943 15.9495L149.746 16.1467L149.588 16.344L149.391 16.5017L149.154 16.699L148.957 16.8567L148.76 17.054L148.523 17.2118L148.326 17.3695L148.089 17.4879L147.853 17.6456L147.616 17.764L147.379 17.9218L147.143 18.0401L146.906 18.119L146.669 18.2373L146.433 18.3556L146.156 18.4345L145.92 18.5134L145.644 18.6318L145.407 18.7106L145.131 18.7501L144.894 18.829L144.618 18.9079L144.105 19.0262L143.553 19.1051L143.04 19.184L142.488 19.2629L141.975 19.3023L141.423 19.3418L140.91 19.3812L140.358 19.4207H139.845H139.293H138.741H137.676L136.611 19.3812" stroke="#FFFFFF" stroke-width="0.96" stroke-linecap="round" stroke-linejoin="round"/>
<path d="M139.53 4.90499L140.476 4.8261H140.95L141.423 4.78666H141.857H142.291H142.528H142.764H142.961H143.198L143.395 4.8261H143.593L143.829 4.86555L144.026 4.90499H144.224L144.421 4.94444L144.618 4.98388L144.815 5.02333L144.973 5.06277L145.17 5.14166L145.368 5.18111L145.525 5.26L145.683 5.33888L145.88 5.41777L146.038 5.49666L146.196 5.57555L146.314 5.69389L146.472 5.77278L146.63 5.89111L146.748 6.00944L146.866 6.12778L147.024 6.28556L147.143 6.40389L147.221 6.56167L147.34 6.71945L147.458 6.91667L147.537 7.07445L147.616 7.23223L147.695 7.42945L147.774 7.62668L147.853 7.8239L147.892 8.02112L147.971 8.21835L148.01 8.41557L148.05 8.61279L148.089 8.81002L148.129 9.00724V9.24391L148.168 9.44113V9.63836V9.83558V10.0328V10.23V10.4272L148.129 10.6245L148.089 10.8217L148.05 11.0189L148.01 11.2161L147.971 11.4134L147.931 11.6106L147.853 11.8078L147.774 11.9656L147.695 12.1628L147.616 12.36L147.537 12.5178L147.458 12.715L147.34 12.8728L147.221 13.07L147.143 13.2278L147.024 13.3856L146.906 13.5434L146.748 13.7012L146.63 13.8589L146.511 14.0167L146.354 14.135L146.235 14.2928L146.078 14.4112L145.92 14.5295L145.762 14.6478L145.604 14.7662L145.446 14.8451L145.289 14.9634L145.131 15.0423L144.973 15.1606L144.815 15.2395L144.618 15.3184L144.46 15.3973L144.263 15.4762L144.105 15.5156L143.908 15.5945L143.75 15.6339L143.553 15.7128L143.356 15.7523L143.159 15.7917L142.961 15.8312L142.764 15.8706L142.567 15.9101L142.37 15.9495L142.172 15.9889L141.975 16.0284L141.581 16.0678L141.147 16.1073L140.752 16.1467H140.319H139.885H139.451H139.017H138.583H138.149H137.281" stroke="#FFFFFF" stroke-width="0.96" stroke-linecap="round" stroke-linejoin="round"/>
<path d="M65.5709 4.2344L65.3343 3.91884L65.2159 3.8005L65.0976 3.64273L64.9793 3.48495L64.9398 3.40606L64.8609 3.32717L64.8215 3.28772L64.7426 3.20883L64.7031 3.12994L64.6243 3.05105L64.5454 3.01161L64.5059 2.93272L64.427 2.85383L64.3481 2.81439L64.3087 2.7355L64.2298 2.69605L64.1509 2.61716L64.072 2.57772L63.9931 2.49883L63.9142 2.45938L63.8354 2.3805L63.7565 2.34105L63.6776 2.30161L63.5987 2.22272L63.5198 2.18327L63.4409 2.14383L63.362 2.10438L63.2831 2.02549L63.2042 1.98605L63.1254 1.9466L63.0465 1.90716L62.9676 1.86771L62.8887 1.82827L62.7703 1.78882L62.6915 1.74938L62.6126 1.70994L62.5337 1.67049L62.4548 1.63105L62.3365 1.5916H62.2576L62.1787 1.55216L62.0998 1.51271L61.9815 1.47327H61.9026L61.8237 1.43382L61.7448 1.39438L61.6265 1.35493H61.5476L61.4687 1.31549H61.3503L61.2715 1.27604H61.1926L60.9953 1.2366L60.8376 1.19715L60.6403 1.15771L60.4431 1.11827H60.2459L60.0881 1.07882L59.8909 1.03938H59.6937H59.5359L59.3387 0.999931H59.1414H58.9442H58.7864H58.5892H58.392H58.1948H58.037H57.8398H57.6425H57.4453L57.2875 1.03938H57.0903H56.8931L56.6959 1.07882H56.5381L56.3409 1.11827H56.1436L55.9859 1.15771L55.7886 1.19715L55.5914 1.2366L55.4336 1.27604L55.2364 1.31549H55.1575L55.0392 1.35493H54.9603L54.8814 1.39438H54.8025L54.6842 1.43382L54.6053 1.47327H54.5264L54.4081 1.51271L54.3292 1.55216L54.2503 1.5916H54.1714L54.0531 1.63105L53.9742 1.67049L53.8953 1.70994L53.8164 1.74938L53.6192 1.82827L53.4614 1.90716L53.3036 1.98605L53.1064 2.06494L52.9486 2.14383L52.7908 2.22272L52.6331 2.30161L52.4753 2.41994L52.2781 2.49883L52.1203 2.61716L51.9625 2.7355L51.8047 2.81439L51.6469 2.93272L51.5286 3.05105L51.3708 3.16939L51.2131 3.28772L51.0553 3.40606L50.9369 3.52439L50.7792 3.64273L50.6214 3.76106L50.5031 3.87939L50.3453 4.03717L50.2269 4.15551L50.1086 4.31328L49.9508 4.43162L49.8325 4.5894L49.7142 4.70773L49.5958 4.86551L49.4775 5.02329L49.3592 5.14162L49.2408 5.2994L49.1225 5.45718L49.0436 5.61496L48.9253 5.77274L48.8069 5.93052L48.728 6.0883L48.6097 6.24607L48.5308 6.40385L48.4519 6.56163L48.373 6.71941L48.2547 6.87719L48.1758 7.07441L48.0969 7.23219L48.018 7.38997L47.9786 7.58719L47.8997 7.74497L47.8208 7.90275L47.7419 8.09997L47.7025 8.25775L47.6236 8.45498L47.5841 8.61276L47.5447 8.80998L47.4658 9.0072L47.4264 9.16498L47.3869 9.3622L47.3475 9.51998L47.308 9.71721L47.2686 9.91443L47.2291 10.1117L47.1897 10.2694V10.4667L47.1503 10.6639V10.7428V10.8217L47.1108 10.94V11.0189V11.0978V11.2161V11.295V11.4133V11.4922V11.5711V11.6894V11.7683V11.8472V11.9656V12.0444V12.1233V12.2417L47.1503 12.3206V12.4389V12.5178V12.5967L47.1897 12.715V12.7939V12.8728L47.2291 12.9911V13.07L47.2686 13.1489V13.2672L47.308 13.425L47.3475 13.6222L47.3869 13.8195L47.4264 13.9772L47.5053 14.1745L47.5447 14.3322L47.6236 14.5295L47.663 14.6872L47.7419 14.8845L47.8208 15.0422V15.1606L47.8603 15.2395L47.8997 15.3184L47.9391 15.3972L47.9786 15.4761L48.018 15.555L48.0575 15.6734L48.0969 15.7522L48.1364 15.8311L48.1758 15.91L48.2547 15.9889L48.2941 16.0678L48.3336 16.1467L48.373 16.2256L48.4125 16.3045L48.4914 16.3834L48.5308 16.4622L48.5703 16.5411L48.6491 16.62L48.6886 16.6989L48.728 16.7778L48.8069 16.8567L48.8464 16.9356L48.9253 16.975L49.0042 17.0539L49.0436 17.1328L49.1225 17.2117L49.1619 17.2511L49.2408 17.33L49.3197 17.4089L49.3592 17.4878L49.438 17.5273L49.5169 17.6061L49.5958 17.6456L49.6353 17.7245L49.7142 17.8034L49.793 17.8428L49.8719 17.9217L49.9508 17.9611L50.0297 18.04L50.1086 18.0795L50.148 18.1189L50.2269 18.1978L50.3058 18.2373L50.3847 18.2767L50.4636 18.3556L50.5425 18.395L50.6214 18.4345L50.7003 18.5134L50.7792 18.5528L50.8581 18.5923L50.9764 18.6317L51.0553 18.6712L51.1342 18.7106L51.2131 18.7895L51.2919 18.8289L51.3708 18.8684L51.4497 18.9078L51.5286 18.9473L51.6075 18.9867L51.7258 19.0262L51.8047 19.0656L51.8836 19.105H51.9625L52.0414 19.1445L52.1597 19.1839L52.2386 19.2234L52.3175 19.2628H52.3964L52.5147 19.3023L52.5936 19.3417L52.6725 19.3812L52.8697 19.4206L53.0275 19.46L53.2247 19.4995L53.3825 19.5389L53.5797 19.5784L53.777 19.6178L53.9347 19.6573L54.132 19.6967H54.3292L54.5264 19.7362L54.6842 19.7756H54.8814L55.0786 19.815H55.2759L55.4336 19.8545H55.6309H55.8281H55.9859H56.1831H56.3803H56.5775H56.7353H56.9325H57.1298H57.327L57.4848 19.815H57.682L57.8792 19.7756L58.037 19.7362H58.2342L58.4314 19.6967L58.6287 19.6573L58.7864 19.6178L58.9837 19.5784L59.1414 19.5389L59.3387 19.46L59.5359 19.4206L59.6937 19.3812L59.8909 19.3023L60.0487 19.2628L60.2064 19.1839L60.4037 19.105L60.5614 19.0656L60.7587 18.9867L60.9164 18.9078L61.0742 18.8289L61.2715 18.75L61.4292 18.6712L61.587 18.5528L61.7448 18.4739L61.9026 18.395L61.9815 18.3161L62.0603 18.2767L62.1392 18.2373L62.2181 18.1978L62.297 18.1189L62.3759 18.0795L62.4548 18.04L62.5337 17.9611L62.6126 17.9217L62.6915 17.8428L62.7703 17.8034L62.8492 17.7245L62.9281 17.685L62.9676 17.6061L63.0465 17.5667L63.1254 17.4878L63.2042 17.4484L63.2437 17.3695L63.3226 17.2906L63.4015 17.2511L63.4409 17.1723L63.5198 17.0934L63.5592 17.0145L63.6381 16.975L63.6776 16.8961L63.7565 16.8173L63.8748 16.6595" stroke="#FFFFFF" stroke-width="0.96" stroke-linecap="round" stroke-linejoin="round"/>
<path d="M61.3109 14.0956L61.2714 14.1745L61.1925 14.2534L61.1137 14.3323L61.0742 14.3717L61.0348 14.4112L60.9953 14.4901L60.9559 14.5295L60.9164 14.5689L60.877 14.6084L60.8375 14.6478L60.7981 14.6873L60.7586 14.7267L60.7192 14.7662L60.6798 14.8056L60.6403 14.8451H60.6009L60.5614 14.8845L60.522 14.9239L60.4431 14.9634L60.4036 15.0028L60.3642 15.0423L60.3248 15.0817H60.2853L60.2459 15.1212L60.167 15.1606L60.1275 15.2001L60.0881 15.2395H60.0486L59.9698 15.2789L59.9303 15.3184H59.8909L59.8514 15.3578L59.7725 15.3973H59.7331L59.6936 15.4367L59.6148 15.4762H59.5753L59.457 15.5551L59.3781 15.5945L59.2598 15.6339L59.1414 15.6734L59.0231 15.7128L58.9442 15.7523L58.8259 15.7917L58.7075 15.8312H58.5892L58.4709 15.8706L58.392 15.9101L58.2736 15.9495H58.1553L58.037 15.9889L57.9186 16.0284H57.8003L57.7214 16.0678H57.6031H57.4847L57.3664 16.1073H57.2481H57.1297L57.0114 16.1467H56.8931H56.7747H56.6958H56.5775H56.4592H56.3408H56.2225H56.1042H55.9858H55.8675L55.7492 16.1073H55.6308H55.5519L55.4336 16.0678H55.3153L55.1969 16.0284H55.0786L54.9603 15.9889H54.8419L54.7236 15.9495L54.6447 15.9101L54.5264 15.8706H54.4081L54.3686 15.8312H54.2897L54.2503 15.7917H54.1714L54.1319 15.7523H54.0925L54.0136 15.7128H53.9742L53.9347 15.6734H53.8558L53.8164 15.6339L53.7769 15.5945H53.698L53.6586 15.5551H53.6192L53.5797 15.5156L53.5008 15.4762H53.4614L53.4219 15.4367L53.3825 15.3973L53.3036 15.3578H53.2642L53.2247 15.3184L53.1853 15.2789L53.1064 15.2395L53.0669 15.2001L53.0275 15.1606H52.988L52.9486 15.1212L52.9092 15.0817L52.8697 15.0423L52.8303 15.0028L52.7514 14.9634L52.7119 14.9239L52.6725 14.8845L52.633 14.8451L52.5936 14.8056L52.5542 14.7662L52.5147 14.7267L52.4753 14.6873L52.4358 14.6478L52.3964 14.5689V14.5295L52.3569 14.4901L52.3175 14.4506L52.278 14.4112L52.2386 14.3717L52.1992 14.2928L52.1597 14.2534V14.2139L52.1203 14.1745L52.0808 14.135L52.0414 14.0562L52.0019 14.0167V13.9773L51.9625 13.9378L51.923 13.8589V13.8195L51.8836 13.78L51.8441 13.7012V13.6617L51.8047 13.6223V13.5434L51.7653 13.5039L51.7258 13.4645V13.3856L51.6864 13.3462V13.3067L51.6469 13.2278V13.1884V13.1095L51.6075 13.07V13.0306L51.568 12.9517V12.9123V12.8334L51.5286 12.7939V12.7545V12.6756V12.6362L51.4891 12.5573V12.5178V12.4389V12.3995L51.4497 12.36V12.2811V12.2417V12.1628V12.1234V12.0445L51.4103 12.005V11.9261V11.8473V11.7289V11.6106V11.4923V11.3739V11.2556L51.4497 11.1373V11.0189V10.9006V10.7823L51.4891 10.6639V10.585L51.5286 10.4667V10.3484L51.568 10.23V10.1117L51.6075 9.99336L51.6469 9.87502V9.79613L51.6864 9.6778L51.7258 9.55947L51.7653 9.44113L51.8047 9.36224L51.8441 9.24391V9.12557L51.8836 9.00724L51.923 8.92835L52.0019 8.81002L52.0414 8.69168L52.0808 8.61279L52.1203 8.49446L52.1597 8.37613L52.1992 8.29724L52.278 8.1789L52.3175 8.10001L52.3569 7.98168L52.4358 7.86334L52.4753 7.78446L52.5542 7.66612L52.5936 7.58723L52.6725 7.4689L52.7119 7.39001L52.7908 7.27167L52.8303 7.19279L52.9092 7.1139L52.988 6.99556L53.0669 6.91667L53.1064 6.83778L53.1853 6.71945L53.2642 6.64056L53.343 6.56167L53.4219 6.48278L53.4614 6.44334L53.5008 6.40389L53.5403 6.36445L53.5797 6.325L53.6192 6.28556L53.6586 6.24611L53.698 6.20667L53.7375 6.16722L53.7769 6.12778L53.8164 6.08833L53.8558 6.04889L53.8953 6.00944L53.9347 5.97L53.9742 5.93056L54.0136 5.89111L54.0925 5.85167L54.1319 5.81222L54.1714 5.77278H54.2108L54.2503 5.73333L54.2897 5.69389L54.3686 5.65444L54.4081 5.615H54.4475L54.4869 5.57555L54.5264 5.53611L54.6053 5.49666H54.6447L54.6842 5.45722L54.7631 5.41777L54.8419 5.37833L54.9603 5.33888L55.0392 5.26L55.1575 5.22055L55.2758 5.18111L55.3547 5.14166L55.4731 5.10222L55.5914 5.06277L55.6703 5.02333L55.7886 4.98388L55.907 4.94444L56.0253 4.90499L56.1042 4.86555H56.2225L56.3408 4.8261L56.4592 4.78666L56.5775 4.74721H56.6564L56.7747 4.70777H56.8931L57.0114 4.66833H57.1297L57.2481 4.62888H57.327H57.4453L57.5636 4.58944H57.682H57.8003H57.9186H58.037L58.1553 4.54999H58.2342H58.3525L58.4709 4.58944H58.5892H58.7075H58.8259H58.9442L59.0625 4.62888H59.1809H59.2598L59.3781 4.66833H59.4964L59.6148 4.70777H59.6542H59.7331L59.7725 4.74721H59.8514H59.8909L59.9303 4.78666H60.0092L60.0486 4.8261H60.1275H60.167L60.2064 4.86555H60.2853L60.3248 4.90499H60.3642L60.4431 4.94444H60.4825L60.522 4.98388L60.6009 5.02333H60.6403L60.6798 5.06277L60.7586 5.10222H60.7981L60.8375 5.14166L60.877 5.18111H60.9559L60.9953 5.22055L61.0348 5.26L61.0742 5.29944H61.1531L61.1925 5.33888L61.232 5.37833L61.2714 5.41777L61.3109 5.45722L61.3503 5.49666L61.4292 5.53611H61.4687L61.5081 5.57555L61.5475 5.615L61.587 5.65444L61.6264 5.69389L61.6659 5.73333L61.7053 5.77278L61.7842 5.85167L61.8631 5.93056L61.942 6.00944L62.0209 6.08833L62.0998 6.16722L62.1787 6.24611L62.2575 6.36445L62.3364 6.44334L62.4153 6.52223L62.4942 6.60111L62.5337 6.71945L62.6125 6.79834" stroke="#FFFFFF" stroke-width="0.96" stroke-linecap="round" stroke-linejoin="round"/>
</svg>
