<svg xmlns="http://www.w3.org/2000/svg" width="270" height="34" viewBox="0 0 270 34" fill="none">
    <path d="M220.6 2.1H222.2C222.8 2.1 223.2 2.2 223.5 2.5C223.8 2.8 224 3.2 224 3.7C224 4.2 223.8 4.6 223.5 4.9C223.2 5.2 222.7 5.3 222.2 5.3H221.1V7H220.7V2.1H220.6ZM222.2 4.9C222.7 4.9 223 4.8 223.2 4.6C223.4 4.4 223.6 4.1 223.6 3.7C223.6 3.3 223.5 3 223.2 2.8C223 2.6 222.6 2.5 222.2 2.5H221.1V4.9H222.2ZM225.1 2.1H226.9C227.2 2.1 227.5 2.2 227.8 2.3C228 2.4 228.2 2.6 228.4 2.8C228.5 3 228.6 3.3 228.6 3.6C228.6 4 228.5 4.3 228.3 4.6C228.1 4.9 227.8 5 227.4 5.1L228.7 7H228.2L226.9 5.2H225.6V7H225.2L225.1 2.1ZM226.9 4.8C227.3 4.8 227.6 4.7 227.8 4.5C228 4.3 228.1 4 228.1 3.7C228.1 3.4 228 3.1 227.8 2.9C227.6 2.7 227.3 2.6 226.9 2.6H225.6V4.8H226.9ZM232 7.1C231.5 7.1 231.1 7 230.7 6.8C230.3 6.6 230 6.3 229.8 5.9C229.6 5.5 229.5 5.1 229.5 4.6C229.5 4.1 229.6 3.7 229.8 3.3C230 2.9 230.3 2.6 230.7 2.4C231.1 2.2 231.5 2.1 232 2.1C232.5 2.1 232.9 2.2 233.3 2.4C233.7 2.6 234 2.9 234.2 3.3C234.4 3.7 234.5 4.1 234.5 4.6C234.5 5.1 234.4 5.5 234.2 5.9C234 6.3 233.7 6.6 233.3 6.8C232.9 7 232.5 7.1 232 7.1ZM229.9 4.6C229.9 5 230 5.4 230.2 5.7C230.4 6 230.6 6.3 230.9 6.4C231.2 6.6 231.6 6.7 232 6.7C232.4 6.7 232.8 6.6 233.1 6.4C233.4 6.2 233.7 6 233.8 5.7C234 5.4 234.1 5 234.1 4.6C234.1 4.2 234 3.8 233.8 3.5C233.6 3.2 233.4 2.9 233.1 2.8C232.8 2.6 232.4 2.5 232 2.5C231.6 2.5 231.2 2.6 230.9 2.8C230.6 3 230.3 3.2 230.2 3.5C230 3.8 229.9 4.2 229.9 4.6ZM237.9 7.1C237.4 7.1 237 7 236.6 6.8C236.2 6.6 235.9 6.3 235.7 5.9C235.5 5.5 235.4 5.1 235.4 4.6C235.4 4.1 235.5 3.7 235.7 3.3C235.9 2.9 236.2 2.6 236.6 2.4C237 2.2 237.4 2.1 237.9 2.1C238.5 2.1 239 2.2 239.4 2.5C239.8 2.8 240.1 3.2 240.3 3.7H239.8C239.6 3.3 239.4 3 239.1 2.8C238.8 2.6 238.4 2.5 238 2.5C237.6 2.5 237.2 2.6 236.9 2.8C236.6 3 236.3 3.2 236.2 3.5C236 3.8 235.9 4.2 235.9 4.6C235.9 5 236 5.4 236.2 5.7C236.4 6 236.6 6.3 236.9 6.4C237.2 6.6 237.6 6.7 238 6.7C238.4 6.7 238.7 6.6 239 6.5C239.3 6.3 239.5 6.1 239.7 5.8C239.9 5.5 240 5.2 240 4.9H237.8V4.5H240.4C240.4 5 240.3 5.5 240.1 5.9C239.9 6.3 239.6 6.6 239.2 6.8C238.8 7 238.4 7.1 237.9 7.1ZM241.6 2.1H243.4C243.7 2.1 244 2.2 244.3 2.3C244.5 2.4 244.7 2.6 244.9 2.8C245 3 245.1 3.3 245.1 3.6C245.1 4 245 4.3 244.8 4.6C244.6 4.9 244.3 5 243.9 5.1L245.2 7H244.7L243.4 5.2H242.1V7H241.7L241.6 2.1ZM243.4 4.8C243.8 4.8 244.1 4.7 244.3 4.5C244.5 4.3 244.6 4 244.6 3.7C244.6 3.4 244.5 3.1 244.3 2.9C244.1 2.7 243.8 2.6 243.4 2.6H242.1V4.8H243.4ZM246.4 2.1H249.3V2.5H246.8V4.3H249.1V4.7H246.8V6.6H249.3V7H246.3V2.1H246.4ZM252.2 7.1C251.8 7.1 251.5 7 251.2 6.9C250.9 6.8 250.7 6.6 250.5 6.4C250.3 6.2 250.3 5.9 250.3 5.6H250.7C250.7 6 250.9 6.2 251.1 6.4C251.4 6.6 251.7 6.7 252.1 6.7C252.5 6.7 252.8 6.6 253.1 6.5C253.3 6.3 253.4 6.1 253.4 5.8C253.4 5.5 253.3 5.3 253.1 5.2C252.9 5 252.5 4.9 252 4.8C251.4 4.7 251 4.5 250.7 4.3C250.4 4.1 250.3 3.8 250.3 3.4C250.3 3 250.5 2.7 250.8 2.5C251.1 2.3 251.5 2.1 252 2.1C252.5 2.1 253 2.2 253.3 2.5C253.6 2.8 253.8 3.1 253.8 3.6H253.4C253.4 3.3 253.3 3 253 2.8C252.8 2.6 252.4 2.5 252 2.5C251.6 2.5 251.3 2.6 251.1 2.7C250.9 2.9 250.8 3.1 250.8 3.4C250.8 3.6 250.9 3.9 251.1 4C251.3 4.2 251.7 4.3 252.2 4.4C252.8 4.5 253.3 4.7 253.5 4.9C253.8 5.1 253.9 5.4 253.9 5.8C253.9 6.2 253.7 6.5 253.4 6.8C253.1 7 252.7 7.1 252.2 7.1ZM256.8 7.1C256.4 7.1 256.1 7 255.8 6.9C255.5 6.8 255.3 6.6 255.1 6.4C254.9 6.2 254.9 5.9 254.9 5.6H255.3C255.3 6 255.5 6.2 255.7 6.4C256 6.6 256.3 6.7 256.7 6.7C257.1 6.7 257.4 6.6 257.7 6.5C257.9 6.3 258.1 6.1 258.1 5.8C258.1 5.5 258 5.3 257.8 5.2C257.6 5 257.2 4.9 256.7 4.8C256.1 4.7 255.7 4.5 255.4 4.3C255.1 4.1 255 3.8 255 3.4C255 3 255.2 2.7 255.5 2.5C255.8 2.3 256.2 2.1 256.7 2.1C257.2 2.1 257.7 2.2 258 2.5C258.3 2.8 258.5 3.1 258.5 3.6H258.1C258.1 3.3 258 3 257.7 2.8C257.5 2.6 257.1 2.5 256.7 2.5C256.3 2.5 256 2.6 255.8 2.7C255.6 2.9 255.5 3.1 255.5 3.4C255.5 3.6 255.6 3.9 255.8 4C256 4.2 256.4 4.3 256.9 4.4C257.5 4.5 258 4.7 258.2 4.9C258.5 5.1 258.6 5.4 258.6 5.8C258.6 6.2 258.4 6.5 258.1 6.8C257.7 7 257.3 7.1 256.8 7.1ZM259.8 2.1H260.2V7H259.8V2.1ZM261.2 2.1H261.7L263.4 6.4L264.1 4.5L265.1 2H265.5L263.5 6.9H263.1L261.2 2.1ZM266.4 2.1H269.3V2.5H266.8V4.3H269.1V4.7H266.8V6.6H269.3V7H266.3V2.1H266.4ZM220.6 12.3H221L223 15.4L225 12.3H225.4V17.2H225V13.1L223.2 15.9H222.8L221 13.1V17.2H220.6V12.3ZM228.5 12.3H228.9L230.9 17.2H230.5L230 16H227.5L227 17.2H226.5L228.5 12.3ZM229.8 15.6L228.7 12.9L227.6 15.6H229.8ZM231.8 12.3H233.6C233.9 12.3 234.2 12.4 234.5 12.5C234.7 12.6 234.9 12.8 235.1 13C235.2 13.2 235.3 13.5 235.3 13.8C235.3 14.2 235.2 14.5 235 14.8C234.8 15.1 234.5 15.2 234.1 15.3L235.4 17.2H234.9L233.6 15.4H232.3V17.2H231.9L231.8 12.3ZM233.6 14.9C234 14.9 234.3 14.8 234.5 14.6C234.7 14.4 234.8 14.1 234.8 13.8C234.8 13.5 234.7 13.2 234.5 13C234.3 12.8 234 12.7 233.6 12.7H232.3V14.9H233.6ZM236.6 12.3H237V14.5H237.8C238.2 14.5 238.5 14.4 238.6 14.3C238.8 14.2 238.9 14 239.1 13.7L239.6 12.3H240L239.4 13.8C239.3 14 239.2 14.2 239.1 14.3C239 14.4 238.9 14.6 238.7 14.6L240.2 17.1H239.7L238.3 14.7C238.1 14.7 237.9 14.8 237.7 14.8H236.9V17.1H236.5L236.6 12.3ZM241.4 12.3H244.3V12.7H241.8V14.5H244.1V14.9H241.8V16.8H244.3V17.2H241.3V12.3H241.4ZM246.8 12.7H245.2V12.3H249V12.7H247.3V17.2H246.9L246.8 12.7ZM250 12.3H250.4V17.2H250V12.3ZM252 12.3H252.4L255.4 16.5V12.3H255.8V17.2H255.4L252.4 13V17.2H252V12.3ZM259.5 17.3C259 17.3 258.6 17.2 258.2 17C257.8 16.8 257.5 16.5 257.3 16.1C257.1 15.7 257 15.3 257 14.8C257 14.3 257.1 13.9 257.3 13.5C257.5 13.1 257.8 12.8 258.2 12.6C258.6 12.4 259 12.3 259.5 12.3C260.1 12.3 260.6 12.4 261 12.7C261.4 13 261.7 13.4 261.9 13.9H261.4C261.2 13.5 261 13.2 260.7 13C260.4 12.8 260 12.7 259.6 12.7C259.2 12.7 258.8 12.8 258.5 13C258.2 13.2 257.9 13.4 257.8 13.7C257.6 14 257.5 14.4 257.5 14.8C257.5 15.2 257.6 15.6 257.8 15.9C258 16.2 258.2 16.5 258.5 16.6C258.8 16.8 259.2 16.9 259.6 16.9C260 16.9 260.3 16.8 260.6 16.7C260.9 16.5 261.1 16.3 261.3 16C261.5 15.7 261.6 15.4 261.6 15.1H259.4V14.6H262C262 15.1 261.9 15.6 261.7 16C261.5 16.4 261.2 16.7 260.8 16.9C260.5 17.2 260 17.3 259.5 17.3ZM222 22.4H222.4L224.4 27.3H224L223.5 26.1H221L220.5 27.3H220L222 22.4ZM223.3 25.7L222.2 23L221.1 25.7H223.3ZM227.3 27.4C226.8 27.4 226.4 27.3 226 27.1C225.6 26.9 225.3 26.6 225.1 26.2C224.9 25.8 224.8 25.4 224.8 24.9C224.8 24.4 224.9 24 225.1 23.6C225.3 23.2 225.6 22.9 226 22.7C226.4 22.5 226.8 22.4 227.3 22.4C227.9 22.4 228.4 22.5 228.8 22.8C229.2 23.1 229.5 23.5 229.7 24H229.2C229 23.6 228.8 23.3 228.5 23.1C228.2 22.9 227.8 22.8 227.4 22.8C227 22.8 226.6 22.9 226.3 23.1C226 23.3 225.7 23.5 225.6 23.8C225.4 24.1 225.3 24.5 225.3 24.9C225.3 25.3 225.4 25.7 225.6 26C225.8 26.3 226 26.6 226.3 26.7C226.6 26.9 227 27 227.4 27C227.8 27 228.1 26.9 228.4 26.8C228.7 26.6 228.9 26.4 229.1 26.1C229.3 25.8 229.4 25.5 229.4 25.2H227.2V24.8H229.8C229.8 25.3 229.7 25.8 229.5 26.2C229.3 26.6 229 26.9 228.6 27.1C228.3 27.3 227.8 27.4 227.3 27.4ZM231 22.4H233.9V22.8H231.4V24.6H233.7V25H231.4V26.9H233.9V27.3H230.9V22.4H231ZM235.3 22.4H235.7L238.7 26.6V22.4H239.1V27.3H238.7L235.7 23.1V27.3H235.3V22.4ZM242.8 27.4C242.3 27.4 241.9 27.3 241.5 27.1C241.1 26.9 240.8 26.6 240.6 26.2C240.4 25.8 240.3 25.4 240.3 24.9C240.3 24.4 240.4 24 240.6 23.6C240.8 23.2 241.1 22.9 241.5 22.7C241.9 22.5 242.3 22.4 242.8 22.4C243.4 22.4 243.9 22.6 244.3 22.9C244.7 23.2 245 23.6 245.2 24.1H244.8C244.7 23.7 244.4 23.4 244.1 23.2C243.8 23 243.4 22.9 242.9 22.9C242.5 22.9 242.1 23 241.8 23.2C241.5 23.4 241.2 23.6 241.1 23.9C240.9 24.2 240.8 24.6 240.8 25C240.8 25.4 240.9 25.8 241.1 26.1C241.3 26.4 241.5 26.7 241.8 26.8C242.1 26.9 242.5 27.1 242.9 27.1C243.4 27.1 243.8 27 244.1 26.7C244.5 26.5 244.7 26.1 244.8 25.7H245.2C245.1 26.1 244.9 26.4 244.7 26.6C244.5 26.9 244.2 27.1 243.9 27.2C243.6 27.3 243.2 27.4 242.8 27.4ZM247.3 25.5L245.4 22.4H245.9L247.5 25L249.1 22.4H249.6L247.7 25.5V27.3H247.3V25.5Z" fill="white"/>
    <path d="M211.6 30.1V2.1C211.6 1.5 211.1 1 210.5 1H206.4C206.2 1 206 1.2 206 1.4V3.2C206 3.4 206.2 3.6 206.4 3.6H208.5C208.7 3.6 208.9 3.8 208.9 4V28.3C208.9 28.5 208.7 28.7 208.5 28.7H206.4C206.2 28.7 206 28.9 206 29.1V31C206 31.2 206.2 31.4 206.4 31.4H210.5C211.1 31.3 211.6 30.8 211.6 30.1Z" fill="white"/>
    <path d="M197.5 18.3L195 17.8C193.5 17.5 192.4 16.8 192.4 15.7C192.4 14.5 193.6 13.6 195.3 13.6H195.6C197.3 13.6 198.4 14.6 198.7 16C198.7 16.2 198.9 16.3 199.1 16.3H201.3C201.6 16.3 201.8 16.1 201.8 15.8C201.6 12.9 199.3 11 195.3 11C192 11 189.3 12.8 189.3 15.9C189.3 18.5 191.5 20 194.4 20.5L196.8 21C198.4 21.3 199 22 199 23.1C199 24.4 197.7 25.2 196 25.2H195.7C193.9 25.2 192.5 24.4 192.2 22.8C192.2 22.6 192 22.4 191.7 22.4H189.5C189.2 22.4 189 22.7 189 22.9C189.4 25.7 191.6 27.7 195.5 27.7C199.2 27.7 201.9 25.8 201.9 22.9C202 20.3 200.2 18.9 197.5 18.3Z" fill="white"/>
    <path d="M92.3 10.5C87.7 10.5 84 14.2 84 18.8C84 23.4 87.7 27.2 92.3 27.2C96.9 27.2 100.7 23.5 100.7 18.8C100.7 14.2 96.9 10.5 92.3 10.5ZM92.3 24.3C89.3 24.3 86.9 21.9 86.9 18.8C86.9 15.8 89.3 13.3 92.3 13.3C95.3 13.3 97.8 15.7 97.8 18.8C97.8 21.8 95.3 24.3 92.3 24.3ZM113.1 10.8H105C104.3 10.8 103.6 11.4 103.6 12.1V26.4C103.6 26.6 103.8 26.8 104.1 26.8H106.3C106.6 26.8 106.8 26.6 106.8 26.4V14C106.8 13.7 107 13.5 107.3 13.5H113.3C113.6 13.5 113.8 13.3 113.8 13V11.1C113.5 11 113.3 10.8 113.1 10.8ZM117.5 7.5C118.5 7.5 119.3 6.7 119.3 5.7C119.3 4.7 118.5 4 117.5 4C116.5 4 115.7 4.8 115.7 5.7C115.7 6.8 116.5 7.5 117.5 7.5ZM118.5 10.8H116.3C116 10.8 115.8 11 115.8 11.3V26.5C115.8 26.8 116 27 116.3 27H118.5C118.8 27 119 26.8 119 26.5V11.2C119 11 118.8 10.8 118.5 10.8ZM134 11.2V12.6C134 12.7 133.9 12.8 133.8 12.7C133 11.5 131.3 10.5 129.2 10.5C125.3 10.5 122.1 13.2 122.1 18.7C122.1 24.2 125.4 27.2 129.2 27.2C131.3 27.2 132.9 26.2 133.8 24.9C133.9 24.8 134 24.9 134 25V30.2C134 30.4 133.8 30.7 133.5 30.7H124.6C124.4 30.7 124.2 30.9 124.2 31.1V32.8C124.2 33.1 124.4 33.3 124.7 33.3H135.7C136.4 33.3 137 32.7 137 32V11.2C137 11 136.8 10.7 136.5 10.7H134.3C134.2 10.8 134 11 134 11.2ZM129.6 24.6H129.3C127 24.6 125.1 22.5 125.1 18.6C125.1 14.7 127.1 13 129.4 13H129.7C131.9 13 133.9 15.2 133.9 18.6C134 22.1 131.8 24.6 129.6 24.6ZM142.1 7.5C143.1 7.5 143.9 6.7 143.9 5.7C143.9 4.7 143.1 4 142.1 4C141.1 4 140.3 4.8 140.3 5.7C140.3 6.8 141.1 7.5 142.1 7.5ZM143.1 10.8H140.9C140.6 10.8 140.4 11 140.4 11.3V26.5C140.4 26.8 140.6 27 140.9 27H143.1C143.4 27 143.6 26.8 143.6 26.5V11.2C143.6 11 143.4 10.8 143.1 10.8ZM159.7 10.8H148.4C147.7 10.8 147 11.4 147 12.2V26.5C147 26.8 147.2 27 147.5 27H149.8C150 27 150.2 26.8 150.2 26.5V14.1C150.2 13.8 150.4 13.6 150.7 13.6H157.7C158 13.6 158.2 13.8 158.2 14V26.4C158.2 26.7 158.4 26.9 158.7 26.9H160.9C161.2 26.9 161.4 26.7 161.4 26.4V12.1C161 11.4 160.4 10.8 159.7 10.8ZM178.7 24.1H177.8C177.5 24.1 177.3 23.9 177.3 23.6V16.5C177.3 13.2 174.9 10.4 170.8 10.4C167.4 10.4 164.8 12.2 164.4 14.8C164.3 15.1 164.6 15.3 164.9 15.3H167.1C167.3 15.3 167.5 15.2 167.5 15C167.8 13.7 169.1 12.9 170.9 12.9C173.5 12.9 174.4 14.1 174.4 15C174.4 17.1 170.8 17.3 170.8 17.3C169.2 17.4 164.1 18 164.1 22.3C164.1 25 166.4 27.1 169.4 27.1C171.5 27.1 173.3 26 174.2 24.8C174.3 24.7 174.4 24.8 174.4 24.9V25.4C174.4 26.1 175 26.8 175.8 26.8H178.8C179.1 26.8 179.3 26.6 179.3 26.3V24.4C179.2 24.3 179 24.1 178.7 24.1ZM174.4 18V21.1C174.4 23 172.5 24.6 169.9 24.6C167.9 24.6 167.2 23.6 167.2 22.3C167.2 18.9 173.4 19.4 174.2 18C174.2 17.8 174.4 17.9 174.4 18ZM186.3 24.1H185.4C185.1 24.1 184.9 23.9 184.9 23.6V4.8C184.9 4.5 184.7 4.3 184.4 4.3H182.2C181.9 4.3 181.7 4.5 181.7 4.8V25.5C181.7 26.2 182.3 26.8 183.1 26.8H186.1C186.4 26.8 186.6 26.6 186.6 26.3V24.4C186.8 24.3 186.6 24.1 186.3 24.1Z" fill="white"/>
    <path d="M74 1.2V29.3C74 29.9 74.5 30.5 75.1 30.5H79.3C79.5 30.5 79.7 30.3 79.7 30.1V28.2C79.7 28 79.5 27.8 79.3 27.8H77.2C77 27.8 76.8 27.6 76.8 27.4V3C76.8 2.8 77 2.6 77.2 2.6H79.3C79.5 2.6 79.7 2.4 79.7 2.2V0.4C79.7 0.2 79.5 0 79.3 0H75.1C74.5 0 74 0.499999 74 1.2Z" fill="white"/>
    <path fill-rule="evenodd" clip-rule="evenodd" d="M62.5 11.8L56.7 26.1C56.7 26.2 56.6 26.3 56.4 26.3H52.4C52.3 26.3 52.2 26.2 52.1 26.1L46.3 11.8V26C46.3 26.1 46.2 26.3 46 26.3H42.3C42.2 26.3 42 26.2 42 26V6.3C42 6.2 42.1 6 42.3 6H48.3C48.4 6 48.5 6.1 48.6 6.2L54.4 20.9L60.2 6.2C60.2 6.1 60.3 6 60.5 6H66.5C66.6 6 66.8 6.1 66.8 6.3V25.9C66.8 26 66.7 26.2 66.5 26.2H62.8C62.7 26.2 62.5 26.1 62.5 25.9V11.8ZM15.3 22.1H6.2L4.6 26.1C4.6 26.2 4.5 26.3 4.3 26.3H0.3C0.2 26.3 0.0999999 26.3 0.0999999 26.2C-9.68575e-08 26 0 25.9 0 25.8L8 6.2C8 6.1 8.1 6 8.3 6H13.3C13.4 6 13.5 6.1 13.6 6.2L21.6 25.8C21.6 25.9 21.6 26 21.6 26.1C21.5 26.2 21.5 26.2 21.4 26.2H17.3C17.2 26.2 17.1 26.1 17 26L15.3 22.1ZM35 14.6L41 25.8C41 25.9 41 26 41 26.1C40.9 26.2 40.9 26.2 40.8 26.2H36.4C36.3 26.2 36.2 26.1 36.2 26.1L32.2 18.6L26.8 26.1C26.7 26.2 26.7 26.2 26.6 26.2H23.1C23 26.2 22.8 26.1 22.8 25.9V6.3C22.8 6.2 22.9 6 23.1 6H27C27.1 6 27.3 6.1 27.3 6.3V19L36.3 6.2C36.4 6.1 36.4 6.1 36.5 6.1H40.6C40.7 6.1 40.8 6.2 40.8 6.2C40.8 6.3 40.8 6.4 40.8 6.5L35 14.6ZM13.7 17.9L10.8 10.5L7.9 17.9H13.7Z" fill="url(#paint0_linear_205_28)"/>
    <defs>
        <linearGradient id="paint0_linear_205_28" x1="32.1592" y1="30.0091" x2="40.0288" y2="3.90923" gradientUnits="userSpaceOnUse">
            <stop stop-color="#EDA654"/>
            <stop offset="0.251" stop-color="#F26D3D"/>
            <stop offset="0.3569" stop-color="#E55755"/>
            <stop offset="0.4902" stop-color="#D8416E"/>
            <stop offset="0.7882" stop-color="#7A3ED3"/>
            <stop offset="1" stop-color="#573FDA"/>
        </linearGradient>
    </defs>
</svg>